{
.appVersion = "3192";
classes = (
{
automatic = 1;
code = "A Aacute Abreve Acircumflex Adieresis Agrave Amacron Aogonek Aring Atilde AE B C Cacute Ccaron Ccedilla D Eth Dcaron Dcroat E Eacute Ecaron Ecircumflex Edieresis Edotaccent Egrave Emacron Eogonek F G Gcommaaccent H I IJ Iacute Icircumflex Idieresis Igrave Imacron Iogonek J K Kcommaaccent L Lacute Lcaron Lcommaaccent Ldot Lslash M N Nacute Ncaron Ncommaaccent Eng Ntilde O Oacute Ocircumflex Odieresis Ograve Ohungarumlaut Omacron Oslash Otilde OE P Thorn Q R Racute Rcaron Rcommaaccent S Sacute Scaron Scedilla T Tbar Tcaron Tcedilla U Uacute Ucircumflex Udieresis Ugrave Uhungarumlaut Umacron Uogonek Uring V W Wacute Wcircumflex Wdieresis Wgrave X Y Yacute Ycircumflex Ydieresis Ygrave Z Zacute Zcaron Zdotaccent";
name = Uppercase;
}
);
copyright = "Copyright 2023 The Sen Project Authors (https://github.com/philatype/Sen)";
customParameters = (
{
name = fsType;
value = (
);
},
{
name = "Use Typo Metrics";
value = 1;
},
{
name = "Disable Last Change";
value = 1;
},
{
name = "Use Line Breaks";
value = 1;
},
{
name = "Disable Subroutines";
value = 0;
},
{
name = license;
value = "This Font Software is licensed under the SIL Open Font License, Version 1.1. This license is available with a FAQ at: http://scripts.sil.org/OFL";
},
{
name = licenseURL;
value = "http://scripts.sil.org/OFL";
},
{
name = Axes;
value = (
{
Name = Weight;
Tag = wght;
}
);
}
);
date = "2023-05-02 03:54:46 +0000";
designer = "Kosal Sen, Philatype";
designerURL = "http://www.philatype.com";
familyName = Sen;
featurePrefixes = (
{
automatic = 1;
code = "languagesystem DFLT dflt;

languagesystem latn dflt;
languagesystem latn CAT;
";
name = Languagesystems;
}
);
features = (
{
automatic = 1;
code = "feature locl;
";
name = aalt;
},
{
code = "sub t t by tt;
sub k o s a l by whiteSmilingFace;
sub t a n t a n by whiteSmilingFace;
sub s t a r l e e by whiteSmilingFace;
sub colon D by whiteSmilingFace;";
name = liga;
},
{
automatic = 1;

glyphs = (
{
color = 4;
glyphname = A;
layers = (
{
anchors = (
{
name = ogonek;
position = "{667, 10}";
},
{
name = top;
position = "{346, 670}";
}
);
background = {
anchors = (
{
name = ogonek;
position = "{667, 10}";
},
{
name = top;
position = "{346, 670}";
}
);
paths = (
{
closed = 1;
nodes = (
"323 670 LINE",
"10 0 LINE",
"118 0 LINE",
"347 518 LINE",
"573 0 LINE",
"681 0 LINE",
"368 670 LINE"
);
},
{
closed = 1;
nodes = (
"167 245 LINE",
"167 160 LINE",
"538 160 LINE",
"538 245 LINE"
);
}
);
};
layerId = "DEFEBCF2-9FF2-4B76-ADC8-AB6BD79F23E7";
paths = (
{
closed = 1;
nodes = (
"118 0 LINE",
"347 518 LINE",
"573 0 LINE",
"681 0 LINE",
"368 670 LINE",
"323 670 LINE",
"10 0 LINE"
);
},
{
closed = 1;
nodes = (
"538 160 LINE",
"538 245 LINE",
"167 245 LINE",
"167 160 LINE"
);
}
);
width = 691;
},
{
anchors = (
{
name = ogonek;
position = "{653, 10}";
},
{
name = top;
position = "{364, 670}";
}
);
background = {
anchors = (
{
name = ogonek;
position = "{653, 10}";
},
{
name = top;
position = "{364, 670}";
}
);
paths = (
{
closed = 1;
nodes = (
"319 680 LINE",
"15 0 LINE",
"233 0 LINE",
"366 378 LINE",
"499 0 LINE",
"717 0 LINE",
"413 680 LINE"
);
},
{
closed = 1;
nodes = (
"166 240 LINE",
"166 100 LINE",
"547 100 LINE",
"547 240 LINE"
);
}
);
};
layerId = "2D992F1A-8218-4049-8E15-5955C72037C9";
leftMetricsKey = "=V";
rightMetricsKey = "=V";
paths = (
{
closed = 1;
nodes = (
"233 0 LINE",
"366 378 LINE",
"499 0 LINE",
"717 0 LINE",
"413 680 LINE",
"319 680 LINE",
"15 0 LINE"
);
},
{
closed = 1;
nodes = (
"547 100 LINE",
"547 240 LINE",
"166 240 LINE",
"166 100 LINE"
);
}
);
width = 732;
}
);
leftMetricsKey = "=V";
rightMetricsKey = "=V";
unicode = 0041;
},
{
color = 4;
glyphname = Aacute;
layers = (
{
background = {
anchors = (
{
name = ogonek;
position = "{667, 10}";
},
{
name = top;
position = "{346, 670}";
}
);
paths = (
{
closed = 1;
nodes = (
"323 670 LINE",
"10 0 LINE",
"118 0 LINE",
"347 518 LINE",
"573 0 LINE",
"681 0 LINE",
"368 670 LINE"
);
},
{
closed = 1;
nodes = (
"167 245 LINE",
"167 160 LINE",
"538 160 LINE",
"538 245 LINE"
);
},
{
closed = 1;
nodes = (
"404 890 LINE",
"294 755 LINE",
"376 755 LINE",
"518 890 LINE"
);
}
);
};
components = (
{
name = A;
},
{
name = acute;
transform = "{1, 0, 0, 1, 224, 170}";
}
);
layerId = "DEFEBCF2-9FF2-4B76-ADC8-AB6BD79F23E7";
width = 691;
},
{
background = {
anchors = (
{
name = ogonek;
position = "{653, 10}";
},
{
name = top;
position = "{364, 670}";
}
);
paths = (
{
closed = 1;
nodes = (
"319 680 LINE",
"15 0 LINE",
"233 0 LINE",
"366 378 LINE",
"499 0 LINE",
"717 0 LINE",
"413 680 LINE"
);
},
{
closed = 1;
nodes = (
"166 240 LINE",
"166 100 LINE",
"547 100 LINE",
"547 240 LINE"
);
},
{
closed = 1;
nodes = (
"380 870 LINE",
"280 720 LINE",
"402 720 LINE",
"534 870 LINE"
);
}
);
};
components = (
{
name = A;
},
{
name = acute;
transform = "{1, 0, 0, 1, 200, 160}";
}
);
layerId = "2D992F1A-8218-4049-8E15-5955C72037C9";
width = 732;
}
);
unicode = 00C1;
},
{
color = 4;
glyphname = Abreve;
layers = (
{
background = {
anchors = (
{
name = ogonek;
position = "{667, 10}";
},
{
name = top;
position = "{346, 670}";
}
);
paths = (
{
closed = 1;
nodes = (
"323 670 LINE",
"10 0 LINE",
"118 0 LINE",
"347 518 LINE",
"573 0 LINE",
"681 0 LINE",
"368 670 LINE"
);
},
{
closed = 1;
nodes = (
"167 245 LINE",
"167 160 LINE",
"538 160 LINE",
"538 245 LINE"
);
},
{
closed = 1;
nodes = (
"436 890 LINE",
"430 842 OFFCURVE",
"399 808 OFFCURVE",
"346 808 CURVE SMOOTH",
"293 808 OFFCURVE",
"262 842 OFFCURVE",
"256 890 CURVE",
"184 890 LINE",
"187 798 OFFCURVE",
"256 740 OFFCURVE",
"346 740 CURVE SMOOTH",
"436 740 OFFCURVE",
"505 798 OFFCURVE",
"508 890 CURVE"
);
}
);
};
components = (
{
name = A;
},
{
name = breve;
transform = "{1, 0, 0, 1, 104, 170}";
}
);
layerId = "DEFEBCF2-9FF2-4B76-ADC8-AB6BD79F23E7";
width = 691;
},
{
background = {
anchors = (
{
name = ogonek;
position = "{653, 10}";
},
{
name = top;
position = "{364, 670}";
}
);
paths = (
{
closed = 1;
nodes = (
"319 680 LINE",
"15 0 LINE",
"233 0 LINE",
"366 378 LINE",
"499 0 LINE",
"717 0 LINE",
"413 680 LINE"
);
},
{
closed = 1;
nodes = (
"166 240 LINE",
"166 100 LINE",
"547 100 LINE",
"547 240 LINE"
);
},
{
closed = 1;
nodes = (
"424 870 LINE",
"418 852 OFFCURVE",
"397 828 OFFCURVE",
"364 828 CURVE SMOOTH",
"331 828 OFFCURVE",
"310 842 OFFCURVE",
"304 870 CURVE",
"202 870 LINE",
"205 778 OFFCURVE",
"274 720 OFFCURVE",
"364 720 CURVE SMOOTH",
"454 720 OFFCURVE",
"523 778 OFFCURVE",
"526 870 CURVE"
);
}
);
};
components = (
{
name = A;
},
{
name = breve;
transform = "{1, 0, 0, 1, 122, 160}";
}
);
layerId = "2D992F1A-8218-4049-8E15-5955C72037C9";
width = 732;
}
);
unicode = 0102;
},
{
color = 4;
glyphname = Acircumflex;
layers = (
{
background = {
anchors = (
{
name = ogonek;
position = "{667, 10}";
},
{
name = top;
position = "{346, 670}";
}
);
paths = (
{
closed = 1;
nodes = (
"323 670 LINE",
"10 0 LINE",
"118 0 LINE",
"347 518 LINE",
"573 0 LINE",
"681 0 LINE",
"368 670 LINE"
);
},
{
closed = 1;
nodes = (
"167 245 LINE",
"167 160 LINE",
"538 160 LINE",
"538 245 LINE"
);
},
{
closed = 1;
nodes = (
"324 890 LINE",
"184 751 LINE",
"266 751 LINE",
"346 829 LINE",
"426 751 LINE",
"508 751 LINE",
"368 890 LINE"
);
}
);
};
components = (
{
name = A;
},
{
name = circumflex;
transform = "{1, 0, 0, 1, 104, 170}";
}
);
layerId = "DEFEBCF2-9FF2-4B76-ADC8-AB6BD79F23E7";
width = 691;
},
{
background = {
anchors = (
{
name = ogonek;
position = "{653, 10}";
},
{
name = top;
position = "{364, 670}";
}
);
paths = (
{
closed = 1;
nodes = (
"319 680 LINE",
"15 0 LINE",
"233 0 LINE",
"366 378 LINE",
"499 0 LINE",
"717 0 LINE",
"413 680 LINE"
);
},
{
closed = 1;
nodes = (
"166 240 LINE",
"166 100 LINE",
"547 100 LINE",
"547 240 LINE"
);
},
{
closed = 1;
nodes = (
"312 870 LINE",
"192 720 LINE",
"324 720 LINE",
"364 779 LINE",
"404 720 LINE",
"536 720 LINE",
"416 870 LINE"
);
}
);
};
components = (
{
name = A;
},
{
name = circumflex;
transform = "{1, 0, 0, 1, 112, 160}";
}
);
layerId = "2D992F1A-8218-4049-8E15-5955C72037C9";
width = 732;
}
);
unicode = 00C2;
},
{
color = 4;
glyphname = Adieresis;
layers = (
{
background = {
anchors = (
{
name = ogonek;
position = "{667, 10}";
},
{
name = top;
position = "{346, 670}";
}
);
paths = (
{
closed = 1;
nodes = (
"323 670 LINE",
"10 0 LINE",
"118 0 LINE",
"347 518 LINE",
"573 0 LINE",
"681 0 LINE",
"368 670 LINE"
);
},
{
closed = 1;
nodes = (
"167 245 LINE",
"167 160 LINE",
"538 160 LINE",
"538 245 LINE"
);
},
{
closed = 1;
nodes = (
"416 889 OFFCURVE",
"388 861 OFFCURVE",
"388 826 CURVE SMOOTH",
"388 792 OFFCURVE",
"416 763 OFFCURVE",
"451 763 CURVE",
"485 763 OFFCURVE",
"514 792 OFFCURVE",
"514 826 CURVE SMOOTH",
"514 861 OFFCURVE",
"485 889 OFFCURVE",
"451 889 CURVE SMOOTH"
);
},
{
closed = 1;
nodes = (
"206 889 OFFCURVE",
"178 861 OFFCURVE",
"178 826 CURVE SMOOTH",
"178 792 OFFCURVE",
"206 763 OFFCURVE",
"241 763 CURVE",
"275 763 OFFCURVE",
"304 792 OFFCURVE",
"304 826 CURVE SMOOTH",
"304 861 OFFCURVE",
"275 889 OFFCURVE",
"241 889 CURVE SMOOTH"
);
}
);
};
components = (
{
name = A;
},
{
name = dieresis;
transform = "{1, 0, 0, 1, 98, 170}";
}
);
layerId = "DEFEBCF2-9FF2-4B76-ADC8-AB6BD79F23E7";
width = 691;
},
{
background = {
anchors = (
{
name = ogonek;
position = "{653, 10}";
},
{
name = top;
position = "{364, 670}";
}
);
paths = (
{
closed = 1;
nodes = (
"319 680 LINE",
"15 0 LINE",
"233 0 LINE",
"366 378 LINE",
"499 0 LINE",
"717 0 LINE",
"413 680 LINE"
);
},
{
closed = 1;
nodes = (
"166 240 LINE",
"166 100 LINE",
"547 100 LINE",
"547 240 LINE"
);
},
{
closed = 1;
nodes = (
"427 885 OFFCURVE",
"393 851 OFFCURVE",
"393 809 CURVE SMOOTH",
"393 768 OFFCURVE",
"427 733 OFFCURVE",
"469 733 CURVE",
"510 733 OFFCURVE",
"545 768 OFFCURVE",
"545 809 CURVE SMOOTH",
"545 851 OFFCURVE",
"510 885 OFFCURVE",
"469 885 CURVE SMOOTH"
);
},
{
closed = 1;
nodes = (
"217 885 OFFCURVE",
"183 851 OFFCURVE",
"183 809 CURVE SMOOTH",
"183 768 OFFCURVE",
"217 733 OFFCURVE",
"259 733 CURVE",
"300 733 OFFCURVE",
"335 768 OFFCURVE",
"335 809 CURVE SMOOTH",
"335 851 OFFCURVE",
"300 885 OFFCURVE",
"259 885 CURVE SMOOTH"
);
}
);
};
components = (
{
name = A;
},
{
name = dieresis;
transform = "{1, 0, 0, 1, 97, 160}";
}
);
layerId = "2D992F1A-8218-4049-8E15-5955C72037C9";
width = 732;
}
);
unicode = 00C4;
},
{
color = 4;
glyphname = Agrave;
layers = (
{
background = {
anchors = (
{
name = ogonek;
position = "{667, 10}";
},
{
name = top;
position = "{346, 670}";
}
);
paths = (
{
closed = 1;
nodes = (
"323 670 LINE",
"10 0 LINE",
"118 0 LINE",
"347 518 LINE",
"573 0 LINE",
"681 0 LINE",
"368 670 LINE"
);
},
{
closed = 1;
nodes = (
"167 245 LINE",
"167 160 LINE",
"538 160 LINE",
"538 245 LINE"
);
},
{
closed = 1;
nodes = (
"309 755 LINE",
"391 755 LINE",
"281 890 LINE",
"167 890 LINE"
);
}
);
};
components = (
{
name = A;
},
{
name = grave;
transform = "{1, 0, 0, 1, 148, 170}";
}
);
layerId = "DEFEBCF2-9FF2-4B76-ADC8-AB6BD79F23E7";
width = 691;
},
{
background = {
anchors = (
{
name = ogonek;
position = "{653, 10}";
},
{
name = top;
position = "{364, 670}";
}
);
paths = (
{
closed = 1;
nodes = (
"319 680 LINE",
"15 0 LINE",
"233 0 LINE",
"366 378 LINE",
"499 0 LINE",
"717 0 LINE",
"413 680 LINE"
);
},
{
closed = 1;
nodes = (
"166 240 LINE",
"166 100 LINE",
"547 100 LINE",
"547 240 LINE"
);
},
{
closed = 1;
nodes = (
"174 870 LINE",
"306 720 LINE",
"428 720 LINE",
"328 870 LINE"
);
}
);
};
components = (
{
name = A;
},
{
name = grave;
transform = "{1, 0, 0, 1, 94, 160}";
}
);
layerId = "2D992F1A-8218-4049-8E15-5955C72037C9";
width = 732;
}
);
unicode = 00C0;
},
{
color = 4;
glyphname = Amacron;
layers = (
{
background = {
anchors = (
{
name = ogonek;
position = "{667, 10}";
},
{
name = top;
position = "{346, 670}";
}
);
paths = (
{
closed = 1;
nodes = (
"323 670 LINE",
"10 0 LINE",
"118 0 LINE",
"347 518 LINE",
"573 0 LINE",
"681 0 LINE",
"368 670 LINE"
);
},
{
closed = 1;
nodes = (
"167 245 LINE",
"167 160 LINE",
"538 160 LINE",
"538 245 LINE"
);
},
{
closed = 1;
nodes = (
"171 888 LINE",
"171 808 LINE",
"521 808 LINE",
"521 888 LINE"
);
}
);
};
components = (
{
name = A;
},
{
name = macron;
transform = "{1, 0, 0, 1, 81, 170}";
}
);
layerId = "DEFEBCF2-9FF2-4B76-ADC8-AB6BD79F23E7";
width = 691;
},
{
background = {
anchors = (
{
name = ogonek;
position = "{653, 10}";
},
{
name = top;
position = "{364, 670}";
}
);
paths = (
{
closed = 1;
nodes = (
"319 680 LINE",
"15 0 LINE",
"233 0 LINE",
"366 378 LINE",
"499 0 LINE",
"717 0 LINE",
"413 680 LINE"
);
},
{
closed = 1;
nodes = (
"166 240 LINE",
"166 100 LINE",
"547 100 LINE",
"547 240 LINE"
);
},
{
closed = 1;
nodes = (
"179 870 LINE",
"179 760 LINE",
"549 760 LINE",
"549 870 LINE"
);
}
);
};
components = (
{
name = A;
},
{
name = macron;
transform = "{1, 0, 0, 1, 79, 160}";
}
);
layerId = "2D992F1A-8218-4049-8E15-5955C72037C9";
width = 732;
}
);
unicode = 0100;
},
{
color = 4;
glyphname = Aogonek;
layers = (
{
background = {
anchors = (
{
name = ogonek;
position = "{667, 10}";
},
{
name = top;
position = "{346, 670}";
}
);
paths = (
{
closed = 1;
nodes = (
"323 670 LINE",
"10 0 LINE",
"118 0 LINE",
"347 518 LINE",
"573 0 LINE",
"681 0 LINE",
"368 670 LINE"
);
},
{
closed = 1;
nodes = (
"167 245 LINE",
"167 160 LINE",
"538 160 LINE",
"538 245 LINE"
);
},
{
closed = 1;
nodes = (
"545 -12 OFFCURVE",
"471 -56 OFFCURVE",
"471 -126 CURVE SMOOTH",
"471 -192 OFFCURVE",
"528 -225 OFFCURVE",
"588 -225 CURVE SMOOTH",
"624 -225 OFFCURVE",
"648 -207 OFFCURVE",
"662 -200 CURVE",
"662 -131 LINE",
"647 -141 OFFCURVE",
"631 -149 OFFCURVE",
"608 -149 CURVE SMOOTH",
"573 -149 OFFCURVE",
"555 -126 OFFCURVE",
"555 -98 CURVE SMOOTH",
"555 -54 OFFCURVE",
"615 -18 OFFCURVE",
"662 1 CURVE",
"582 1 LINE"
);
}
);
};
components = (
{
name = A;
},
{
name = ogonek;
transform = "{1, 0, 0, 1, 288, 0}";
}
);
layerId = "DEFEBCF2-9FF2-4B76-ADC8-AB6BD79F23E7";
width = 691;
},
{
background = {
anchors = (
{
name = ogonek;
position = "{653, 10}";
},
{
name = top;
position = "{364, 670}";
}
);
paths = (
{
closed = 1;
nodes = (
"319 680 LINE",
"15 0 LINE",
"233 0 LINE",
"366 378 LINE",
"499 0 LINE",
"717 0 LINE",
"413 680 LINE"
);
},
{
closed = 1;
nodes = (
"166 240 LINE",
"166 100 LINE",
"547 100 LINE",
"547 240 LINE"
);
},
{
closed = 1;
nodes = (
"456 -13 OFFCURVE",
"396 -56 OFFCURVE",
"396 -126 CURVE SMOOTH",
"396 -192 OFFCURVE",
"463 -225 OFFCURVE",
"523 -225 CURVE SMOOTH",
"579 -225 OFFCURVE",
"623 -210 OFFCURVE",
"637 -203 CURVE",
"637 -90 LINE",
"622 -100 OFFCURVE",
"606 -108 OFFCURVE",
"583 -108 CURVE SMOOTH",
"562 -108 OFFCURVE",
"547 -94 OFFCURVE",
"547 -73 CURVE SMOOTH",
"547 -51 OFFCURVE",
"594 -13 OFFCURVE",
"653 1 CURVE",
"513 1 LINE"
);
}
);
};
components = (
{
name = A;
},
{
name = ogonek;
transform = "{1, 0, 0, 1, 263, 0}";
}
);
layerId = "2D992F1A-8218-4049-8E15-5955C72037C9";
width = 732;
}
);
unicode = 0104;
},
{
color = 4;
glyphname = Aring;
layers = (
{
background = {
anchors = (
{
name = ogonek;
position = "{667, 10}";
},
{
name = top;
position = "{346, 670}";
}
);
paths = (
{
closed = 1;
nodes = (
"323 670 LINE",
"10 0 LINE",
"118 0 LINE",
"347 518 LINE",
"573 0 LINE",
"681 0 LINE",
"368 670 LINE"
);
},
{
closed = 1;
nodes = (
"167 245 LINE",
"167 160 LINE",
"538 160 LINE",
"538 245 LINE"
);
},
{
closed = 1;
nodes = (
"298 895 OFFCURVE",
"263 857 OFFCURVE",
"263 812 CURVE SMOOTH",
"263 767 OFFCURVE",
"298 729 OFFCURVE",
"346 729 CURVE SMOOTH",
"394 729 OFFCURVE",
"428 767 OFFCURVE",
"428 812 CURVE SMOOTH",
"428 857 OFFCURVE",
"394 895 OFFCURVE",
"346 895 CURVE SMOOTH"
);
},
{
closed = 1;
nodes = (
"368 854 OFFCURVE",
"386 834 OFFCURVE",
"386 812 CURVE SMOOTH",
"386 789 OFFCURVE",
"368 770 OFFCURVE",
"346 770 CURVE SMOOTH",
"323 770 OFFCURVE",
"305 789 OFFCURVE",
"305 812 CURVE SMOOTH",
"305 834 OFFCURVE",
"323 854 OFFCURVE",
"346 854 CURVE SMOOTH"
);
}
);
};
components = (
{
name = A;
},
{
name = ring;
transform = "{1, 0, 0, 1, 183, 170}";
}
);
layerId = "DEFEBCF2-9FF2-4B76-ADC8-AB6BD79F23E7";
width = 691;
},
{
background = {
anchors = (
{
name = ogonek;
position = "{653, 10}";
},
{
name = top;
position = "{364, 670}";
}
);
paths = (
{
closed = 1;
nodes = (
"319 680 LINE",
"15 0 LINE",
"233 0 LINE",
"366 378 LINE",
"499 0 LINE",
"717 0 LINE",
"413 680 LINE"
);
},
{
closed = 1;
nodes = (
"166 240 LINE",
"166 100 LINE",
"547 100 LINE",
"547 240 LINE"
);
},
{
closed = 1;
nodes = (
"311 893 OFFCURVE",
"267 853 OFFCURVE",
"267 802 CURVE SMOOTH",
"267 751 OFFCURVE",
"311 711 OFFCURVE",
"364 711 CURVE SMOOTH",
"417 711 OFFCURVE",
"460 751 OFFCURVE",
"460 802 CURVE SMOOTH",
"460 853 OFFCURVE",
"417 893 OFFCURVE",
"364 893 CURVE SMOOTH"
);
},
{
closed = 1;
nodes = (
"384 838 OFFCURVE",
"402 822 OFFCURVE",
"402 802 CURVE SMOOTH",
"402 781 OFFCURVE",
"384 766 OFFCURVE",
"364 766 CURVE SMOOTH",
"343 766 OFFCURVE",
"325 781 OFFCURVE",
"325 802 CURVE SMOOTH",
"325 822 OFFCURVE",
"343 838 OFFCURVE",
"364 838 CURVE SMOOTH"
);
}
);
};
components = (
{
name = A;
},
{
name = ring;
transform = "{1, 0, 0, 1, 193, 160}";
}
);
layerId = "2D992F1A-8218-4049-8E15-5955C72037C9";
width = 732;
}
);
unicode = 00C5;
},
{
color = 4;
glyphname = Atilde;
layers = (
{
background = {
anchors = (
{
name = ogonek;
position = "{667, 10}";
},
{
name = top;
position = "{346, 670}";
}
);
paths = (
{
closed = 1;
nodes = (
"323 670 LINE",
"10 0 LINE",
"118 0 LINE",
"347 518 LINE",
"573 0 LINE",
"681 0 LINE",
"368 670 LINE"
);
},
{
closed = 1;
nodes = (
"167 245 LINE",
"167 160 LINE",
"538 160 LINE",
"538 245 LINE"
);
},
{
closed = 1;
nodes = (
"452 874 LINE",
"452 849 OFFCURVE",
"440 828 OFFCURVE",
"416 828 CURVE SMOOTH",
"374 828 OFFCURVE",
"363 879 OFFCURVE",
"290 879 CURVE SMOOTH",
"230 879 OFFCURVE",
"186 834 OFFCURVE",
"186 776 CURVE",
"254 776 LINE",
"254 801 OFFCURVE",
"267 822 OFFCURVE",
"290 822 CURVE SMOOTH",
"332 822 OFFCURVE",
"343 771 OFFCURVE",
"416 771 CURVE SMOOTH",
"476 771 OFFCURVE",
"520 816 OFFCURVE",
"520 874 CURVE"
);
}
);
};
components = (
{
name = A;
},
{
name = tilde;
transform = "{1, 0, 0, 1, 110, 154}";
}
);
layerId = "DEFEBCF2-9FF2-4B76-ADC8-AB6BD79F23E7";
width = 691;
},
{
background = {
anchors = (
{
name = ogonek;
position = "{653, 10}";
},
{
name = top;
position = "{364, 670}";
}
);
paths = (
{
closed = 1;
nodes = (
"319 680 LINE",
"15 0 LINE",
"233 0 LINE",
"366 378 LINE",
"499 0 LINE",
"717 0 LINE",
"413 680 LINE"
);
},
{
closed = 1;
nodes = (
"166 240 LINE",
"166 100 LINE",
"547 100 LINE",
"547 240 LINE"
);
},
{
closed = 1;
nodes = (
"461 845 LINE",
"461 822 OFFCURVE",
"450 808 OFFCURVE",
"428 808 CURVE SMOOTH",
"400 808 OFFCURVE",
"377 849 OFFCURVE",
"311 849 CURVE SMOOTH",
"241 849 OFFCURVE",
"183 803 OFFCURVE",
"183 710 CURVE",
"277 710 LINE",
"277 733 OFFCURVE",
"289 747 OFFCURVE",
"310 747 CURVE SMOOTH",
"338 747 OFFCURVE",
"361 706 OFFCURVE",
"427 706 CURVE SMOOTH",
"497 706 OFFCURVE",
"555 752 OFFCURVE",
"555 845 CURVE"
);
}
);
};
components = (
{
name = A;
},
{
name = tilde;
transform = "{1, 0, 0, 1, 139, 160}";
}
);
layerId = "2D992F1A-8218-4049-8E15-5955C72037C9";
width = 732;
}
);
unicode = 00C3;
},
{
color = 4;
glyphname = AE;
layers = (
{
anchors = (
{
name = ogonek;
position = "{334, 10}";
},
{
name = top;
position = "{63, 670}";
}
);
background = {
anchors = (
{
name = bottom;
position = "{753, 0}";
},
{
name = ogonek;
position = "{334, 10}";
},
{
name = top;
position = "{63, 670}";
}
);
paths = (
{
closed = 1;
nodes = (
"503 670 LINE",
"10 0 LINE",
"128 0 LINE",
"532 568 LINE",
"554 670 LINE"
);
},
{
closed = 1;
nodes = (
"247 270 LINE",
"247 193 LINE",
"568 193 LINE",
"568 270 LINE"
);
},
{
closed = 1;
nodes = (
"543 670 LINE",
"543 0 LINE",
"1002 0 LINE",
"1002 85 LINE",
"633 85 LINE",
"633 585 LINE",
"1002 585 LINE",
"1002 670 LINE"
);
},
{
closed = 1;
nodes = (
"600 386 LINE",
"600 301 LINE",
"959 301 LINE",
"959 386 LINE"
);
}
);
};
components = (
{
name = E;
transform = "{1, 0, 0, 1, 433, 0}";
}
);
layerId = "DEFEBCF2-9FF2-4B76-ADC8-AB6BD79F23E7";
rightMetricsKey = "=E";
paths = (
{
closed = 1;
nodes = (
"128 0 LINE",
"532 568 LINE",
"554 670 LINE",
"503 670 LINE",
"10 0 LINE"
);
},
{
closed = 1;
nodes = (
"568 193 LINE",
"568 270 LINE",
"247 270 LINE",
"247 193 LINE"
);
}
);
width = 1072;
},
{
anchors = (
{
name = ogonek;
position = "{359, 10}";
},
{
name = top;
position = "{88, 670}";
}
);
background = {
anchors = (
{
name = bottom;
position = "{752, 0}";
},
{
name = ogonek;
position = "{359, 10}";
},
{
name = top;
position = "{88, 670}";
}
);
paths = (
{
closed = 1;
nodes = (
"488 670 LINE",
"15 0 LINE",
"203 0 LINE",
"557 508 LINE",
"579 670 LINE"
);
},
{
closed = 1;
nodes = (
"272 270 LINE",
"272 133 LINE",
"593 133 LINE",
"593 270 LINE"
);
},
{
closed = 1;
nodes = (
"508 670 LINE",
"508 0 LINE",
"1002 0 LINE",
"1002 160 LINE",
"695 160 LINE",
"695 515 LINE",
"1002 515 LINE",
"1002 670 LINE"
);
},
{
closed = 1;
nodes = (
"613 414 LINE",
"613 264 LINE",
"968 264 LINE",
"968 414 LINE"
);
}
);
};
components = (
{
name = E;
transform = "{1, 0, 0, 1, 428, 0}";
}
);
layerId = "2D992F1A-8218-4049-8E15-5955C72037C9";
leftMetricsKey = "=V";
paths = (
{
closed = 1;
nodes = (
"203 0 LINE",
"557 508 LINE",
"579 670 LINE",
"488 670 LINE",
"15 0 LINE"
);
},
{
closed = 1;
nodes = (
"593 133 LINE",
"593 270 LINE",
"272 270 LINE",
"272 133 LINE"
);
}
);
width = 1072;
}
);
leftMetricsKey = "=V";
rightMetricsKey = "=E";
unicode = 00C6;
},
{
color = 4;
glyphname = B;
layers = (
{
background = {
paths = (
{
closed = 1;
nodes = (
"264 686 OFFCURVE",
"179 677 OFFCURVE",
"110 661 CURVE",
"110 15 LINE",
"173 1 OFFCURVE",
"271 -10 OFFCURVE",
"354 -10 CURVE SMOOTH",
"516 -10 OFFCURVE",
"618 77 OFFCURVE",
"618 189 CURVE SMOOTH",
"618 286 OFFCURVE",
"550 336 OFFCURVE",
"491 348 CURVE",
"547 374 OFFCURVE",
"589 433 OFFCURVE",
"589 498 CURVE SMOOTH",
"589 607 OFFCURVE",
"493 686 OFFCURVE",
"346 686 CURVE SMOOTH"
);
},
{
closed = 1;
nodes = (
"424 601 OFFCURVE",
"497 565 OFFCURVE",
"497 494 CURVE SMOOTH",
"497 433 OFFCURVE",
"448 379 OFFCURVE",
"357 379 CURVE SMOOTH",
"184 379 LINE",
"184 299 LINE",
"359 299 LINE SMOOTH",
"452 299 OFFCURVE",
"526 262 OFFCURVE",
"526 189 CURVE SMOOTH",
"526 119 OFFCURVE",
"452 75 OFFCURVE",
"352 75 CURVE SMOOTH",
"315 75 OFFCURVE",
"248 78 OFFCURVE",
"200 87 CURVE",
"200 589 LINE",
"241 597 OFFCURVE",
"284 601 OFFCURVE",
"340 601 CURVE SMOOTH"
);
}
);
};
layerId = "DEFEBCF2-9FF2-4B76-ADC8-AB6BD79F23E7";
leftMetricsKey = "=L";
rightMetricsKey = "=L";
paths = (
{
closed = 1;
nodes = (
"516 -10 OFFCURVE",
"618 77 OFFCURVE",
"618 189 CURVE SMOOTH",
"618 286 OFFCURVE",
"550 336 OFFCURVE",
"491 348 CURVE",
"547 374 OFFCURVE",
"589 433 OFFCURVE",
"589 498 CURVE SMOOTH",
"589 607 OFFCURVE",
"493 686 OFFCURVE",
"346 686 CURVE SMOOTH",
"264 686 OFFCURVE",
"179 677 OFFCURVE",
"110 661 CURVE",
"110 15 LINE",
"173 1 OFFCURVE",
"271 -10 OFFCURVE",
"354 -10 CURVE SMOOTH"
);
},
{
closed = 1;
nodes = (
"315 75 OFFCURVE",
"248 78 OFFCURVE",
"200 87 CURVE",
"200 589 LINE",
"241 597 OFFCURVE",
"284 601 OFFCURVE",
"340 601 CURVE SMOOTH",
"424 601 OFFCURVE",
"497 565 OFFCURVE",
"497 494 CURVE SMOOTH",
"497 433 OFFCURVE",
"448 379 OFFCURVE",
"357 379 CURVE SMOOTH",
"184 379 LINE",
"184 299 LINE",
"359 299 LINE SMOOTH",
"452 299 OFFCURVE",
"526 262 OFFCURVE",
"526 189 CURVE SMOOTH",
"526 119 OFFCURVE",
"452 75 OFFCURVE",
"352 75 CURVE SMOOTH"
);
}
);
width = 663;
},
{
background = {
paths = (
{
closed = 1;
nodes = (
"253 686 OFFCURVE",
"161 676 OFFCURVE",
"80 660 CURVE",
"80 15 LINE",
"143 1 OFFCURVE",
"282 -15 OFFCURVE",
"375 -15 CURVE SMOOTH",
"557 -15 OFFCURVE",
"654 85 OFFCURVE",
"654 197 CURVE SMOOTH",
"654 286 OFFCURVE",
"598 322 OFFCURVE",
"536 344 CURVE",
"588 373 OFFCURVE",
"624 423 OFFCURVE",
"624 491 CURVE SMOOTH",
"624 607 OFFCURVE",
"524 686 OFFCURVE",
"349 686 CURVE SMOOTH"
);
},
{
closed = 1;
nodes = (
"415 527 OFFCURVE",
"440 493 OFFCURVE",
"440 457 CURVE SMOOTH",
"440 415 OFFCURVE",
"415 394 OFFCURVE",
"371 394 CURVE SMOOTH",
"237 394 LINE",
"237 269 LINE",
"365 269 LINE SMOOTH",
"419 269 OFFCURVE",
"454 253 OFFCURVE",
"454 213 CURVE SMOOTH",
"454 172 OFFCURVE",
"426 140 OFFCURVE",
"372 140 CURVE SMOOTH",
"351 140 OFFCURVE",
"295 143 OFFCURVE",
"267 152 CURVE",
"267 519 LINE",
"291 524 OFFCURVE",
"334 527 OFFCURVE",
"366 527 CURVE SMOOTH"
);
}
);
};
layerId = "2D992F1A-8218-4049-8E15-5955C72037C9";
leftMetricsKey = "=L";
paths = (
{
closed = 1;
nodes = (
"557 -15 OFFCURVE",
"654 85 OFFCURVE",
"654 197 CURVE SMOOTH",
"654 286 OFFCURVE",
"598 322 OFFCURVE",
"536 344 CURVE",
"588 373 OFFCURVE",
"624 423 OFFCURVE",
"624 491 CURVE SMOOTH",
"624 607 OFFCURVE",
"524 686 OFFCURVE",
"349 686 CURVE SMOOTH",
"253 686 OFFCURVE",
"161 676 OFFCURVE",
"80 660 CURVE",
"80 15 LINE",
"143 1 OFFCURVE",
"282 -15 OFFCURVE",
"375 -15 CURVE SMOOTH"
);
},
{
closed = 1;
nodes = (
"351 140 OFFCURVE",
"295 143 OFFCURVE",
"267 152 CURVE",
"267 519 LINE",
"291 524 OFFCURVE",
"334 527 OFFCURVE",
"366 527 CURVE SMOOTH",
"415 527 OFFCURVE",
"440 493 OFFCURVE",
"440 457 CURVE SMOOTH",
"440 415 OFFCURVE",
"415 394 OFFCURVE",
"371 394 CURVE SMOOTH",
"237 394 LINE",
"237 269 LINE",
"365 269 LINE SMOOTH",
"419 269 OFFCURVE",
"454 253 OFFCURVE",
"454 213 CURVE SMOOTH",
"454 172 OFFCURVE",
"426 140 OFFCURVE",
"372 140 CURVE SMOOTH"
);
}
);
width = 694;
}
);
leftMetricsKey = "=I";
rightMetricsKey = "=O";
unicode = 0042;
},
{
color = 4;
glyphname = C;
layers = (
{
anchors = (
{
name = bottom;
position = "{397, 0}";
},
{
name = top;
position = "{405, 670}";
}
);
background = {
anchors = (
{
name = bottom;
position = "{397, 0}";
},
{
name = top;
position = "{405, 670}";
}
);
paths = (
{
closed = 1;
nodes = (
"201 685 OFFCURVE",
"50 527 OFFCURVE",
"50 335 CURVE SMOOTH",
"50 143 OFFCURVE",
"201 -15 OFFCURVE",
"403 -15 CURVE SMOOTH",
"500 -15 OFFCURVE",
"577 19 OFFCURVE",
"624 61 CURVE",
"624 151 LINE",
"577 115 OFFCURVE",
"505 73 OFFCURVE",
"403 73 CURVE SMOOTH",
"253 73 OFFCURVE",
"142 185 OFFCURVE",
"142 335 CURVE SMOOTH",
"142 485 OFFCURVE",
"253 597 OFFCURVE",
"403 597 CURVE SMOOTH",
"505 597 OFFCURVE",
"559 545 OFFCURVE",
"604 514 CURVE",
"604 613 LINE",
"557 655 OFFCURVE",
"500 685 OFFCURVE",
"403 685 CURVE SMOOTH"
);
}
);
};
layerId = "DEFEBCF2-9FF2-4B76-ADC8-AB6BD79F23E7";
leftMetricsKey = "=O";
rightMetricsKey = "=O";
paths = (
{
closed = 1;
nodes = (
"500 -15 OFFCURVE",
"577 19 OFFCURVE",
"624 61 CURVE",
"624 151 LINE",
"577 115 OFFCURVE",
"505 73 OFFCURVE",
"403 73 CURVE SMOOTH",
"253 73 OFFCURVE",
"142 185 OFFCURVE",
"142 335 CURVE SMOOTH",
"142 485 OFFCURVE",
"253 597 OFFCURVE",
"403 597 CURVE SMOOTH",
"505 597 OFFCURVE",
"559 545 OFFCURVE",
"604 514 CURVE",
"604 613 LINE",
"557 655 OFFCURVE",
"500 685 OFFCURVE",
"403 685 CURVE SMOOTH",
"201 685 OFFCURVE",
"50 527 OFFCURVE",
"50 335 CURVE SMOOTH",
"50 143 OFFCURVE",
"201 -15 OFFCURVE",
"403 -15 CURVE SMOOTH"
);
}
);
width = 674;
},
{
anchors = (
{
name = bottom;
position = "{389, 0}";
},
{
name = top;
position = "{394, 670}";
}
);
background = {
anchors = (
{
name = bottom;
position = "{389, 0}";
},
{
name = top;
position = "{394, 670}";
}
);
paths = (
{
closed = 1;
nodes = (
"213 685 OFFCURVE",
"40 557 OFFCURVE",
"40 335 CURVE SMOOTH",
"40 113 OFFCURVE",
"213 -15 OFFCURVE",
"395 -15 CURVE SMOOTH",
"465 -15 OFFCURVE",
"527 5 OFFCURVE",
"572 44 CURVE",
"572 225 LINE",
"519 182 OFFCURVE",
"479 160 OFFCURVE",
"402 160 CURVE SMOOTH",
"312 160 OFFCURVE",
"232 235 OFFCURVE",
"232 335 CURVE SMOOTH",
"232 435 OFFCURVE",
"312 510 OFFCURVE",
"402 510 CURVE SMOOTH",
"479 510 OFFCURVE",
"519 488 OFFCURVE",
"572 445 CURVE",
"572 626 LINE",
"527 665 OFFCURVE",
"465 685 OFFCURVE",
"395 685 CURVE SMOOTH"
);
}
);
};
layerId = "2D992F1A-8218-4049-8E15-5955C72037C9";
paths = (
{
closed = 1;
nodes = (
"465 -15 OFFCURVE",
"527 5 OFFCURVE",
"572 44 CURVE",
"572 225 LINE",
"519 182 OFFCURVE",
"479 160 OFFCURVE",
"402 160 CURVE SMOOTH",
"312 160 OFFCURVE",
"232 235 OFFCURVE",
"232 335 CURVE SMOOTH",
"232 435 OFFCURVE",
"312 510 OFFCURVE",
"402 510 CURVE SMOOTH",
"479 510 OFFCURVE",
"519 488 OFFCURVE",
"572 445 CURVE",
"572 626 LINE",
"527 665 OFFCURVE",
"465 685 OFFCURVE",
"395 685 CURVE SMOOTH",
"213 685 OFFCURVE",
"40 557 OFFCURVE",
"40 335 CURVE SMOOTH",
"40 113 OFFCURVE",
"213 -15 OFFCURVE",
"395 -15 CURVE SMOOTH"
);
}
);
width = 612;
}
);
leftMetricsKey = "=O";
rightMetricsKey = "=O";
unicode = 0043;
},
{
color = 4;
glyphname = Cacute;
layers = (
{
background = {
anchors = (
{
name = bottom;
position = "{397, 0}";
},
{
name = top;
position = "{405, 670}";
}
);
paths = (
{
closed = 1;
nodes = (
"201 685 OFFCURVE",
"50 527 OFFCURVE",
"50 335 CURVE SMOOTH",
"50 143 OFFCURVE",
"201 -15 OFFCURVE",
"403 -15 CURVE SMOOTH",
"500 -15 OFFCURVE",
"577 19 OFFCURVE",
"624 61 CURVE",
"624 151 LINE",
"577 115 OFFCURVE",
"505 73 OFFCURVE",
"403 73 CURVE SMOOTH",
"253 73 OFFCURVE",
"142 185 OFFCURVE",
"142 335 CURVE SMOOTH",
"142 485 OFFCURVE",
"253 597 OFFCURVE",
"403 597 CURVE SMOOTH",
"505 597 OFFCURVE",
"559 545 OFFCURVE",
"604 514 CURVE",
"604 613 LINE",
"557 655 OFFCURVE",
"500 685 OFFCURVE",
"403 685 CURVE SMOOTH"
);
},
{
closed = 1;
nodes = (
"463 890 LINE",
"353 755 LINE",
"435 755 LINE",
"577 890 LINE"
);
}
);
};
components = (
{
name = C;
},
{
name = acute;
transform = "{1, 0, 0, 1, 283, 170}";
}
);
layerId = "DEFEBCF2-9FF2-4B76-ADC8-AB6BD79F23E7";
width = 674;
},
{
background = {
anchors = (
{
name = bottom;
position = "{389, 0}";
},
{
name = top;
position = "{394, 670}";
}
);
paths = (
{
closed = 1;
nodes = (
"213 685 OFFCURVE",
"40 557 OFFCURVE",
"40 335 CURVE SMOOTH",
"40 113 OFFCURVE",
"213 -15 OFFCURVE",
"395 -15 CURVE SMOOTH",
"465 -15 OFFCURVE",
"527 5 OFFCURVE",
"572 44 CURVE",
"572 225 LINE",
"519 182 OFFCURVE",
"479 160 OFFCURVE",
"402 160 CURVE SMOOTH",
"312 160 OFFCURVE",
"232 235 OFFCURVE",
"232 335 CURVE SMOOTH",
"232 435 OFFCURVE",
"312 510 OFFCURVE",
"402 510 CURVE SMOOTH",
"479 510 OFFCURVE",
"519 488 OFFCURVE",
"572 445 CURVE",
"572 626 LINE",
"527 665 OFFCURVE",
"465 685 OFFCURVE",
"395 685 CURVE SMOOTH"
);
},
{
closed = 1;
nodes = (
"410 870 LINE",
"310 720 LINE",
"432 720 LINE",
"564 870 LINE"
);
}
);
};
components = (
{
name = C;
},
{
name = acute;
transform = "{1, 0, 0, 1, 230, 160}";
}
);
layerId = "2D992F1A-8218-4049-8E15-5955C72037C9";
width = 612;
}
);
unicode = 0106;
},
{
color = 4;
glyphname = Ccaron;
layers = (
{
background = {
anchors = (
{
name = bottom;
position = "{397, 0}";
},
{
name = top;
position = "{405, 670}";
}
);
paths = (
{
closed = 1;
nodes = (
"201 685 OFFCURVE",
"50 527 OFFCURVE",
"50 335 CURVE SMOOTH",
"50 143 OFFCURVE",
"201 -15 OFFCURVE",
"403 -15 CURVE SMOOTH",
"500 -15 OFFCURVE",
"577 19 OFFCURVE",
"624 61 CURVE",
"624 151 LINE",
"577 115 OFFCURVE",
"505 73 OFFCURVE",
"403 73 CURVE SMOOTH",
"253 73 OFFCURVE",
"142 185 OFFCURVE",
"142 335 CURVE SMOOTH",
"142 485 OFFCURVE",
"253 597 OFFCURVE",
"403 597 CURVE SMOOTH",
"505 597 OFFCURVE",
"559 545 OFFCURVE",
"604 514 CURVE",
"604 613 LINE",
"557 655 OFFCURVE",
"500 685 OFFCURVE",
"403 685 CURVE SMOOTH"
);
},
{
closed = 1;
nodes = (
"383 751 LINE",
"427 751 LINE",
"567 890 LINE",
"485 890 LINE",
"405 812 LINE",
"325 890 LINE",
"243 890 LINE"
);
}
);
};
components = (
{
name = C;
},
{
name = caron;
transform = "{1, 0, 0, 1, 163, 170}";
}
);
layerId = "DEFEBCF2-9FF2-4B76-ADC8-AB6BD79F23E7";
width = 674;
},
{
background = {
anchors = (
{
name = bottom;
position = "{389, 0}";
},
{
name = top;
position = "{394, 670}";
}
);
paths = (
{
closed = 1;
nodes = (
"213 685 OFFCURVE",
"40 557 OFFCURVE",
"40 335 CURVE SMOOTH",
"40 113 OFFCURVE",
"213 -15 OFFCURVE",
"395 -15 CURVE SMOOTH",
"465 -15 OFFCURVE",
"527 5 OFFCURVE",
"572 44 CURVE",
"572 225 LINE",
"519 182 OFFCURVE",
"479 160 OFFCURVE",
"402 160 CURVE SMOOTH",
"312 160 OFFCURVE",
"232 235 OFFCURVE",
"232 335 CURVE SMOOTH",
"232 435 OFFCURVE",
"312 510 OFFCURVE",
"402 510 CURVE SMOOTH",
"479 510 OFFCURVE",
"519 488 OFFCURVE",
"572 445 CURVE",
"572 626 LINE",
"527 665 OFFCURVE",
"465 685 OFFCURVE",
"395 685 CURVE SMOOTH"
);
},
{
closed = 1;
nodes = (
"342 720 LINE",
"446 720 LINE",
"566 870 LINE",
"434 870 LINE",
"394 811 LINE",
"354 870 LINE",
"222 870 LINE"
);
}
);
};
components = (
{
name = C;
},
{
name = caron;
transform = "{1, 0, 0, 1, 162, 160}";
}
);
layerId = "2D992F1A-8218-4049-8E15-5955C72037C9";
width = 612;
}
);
unicode = 010C;
},
{
color = 4;
glyphname = Ccedilla;
layers = (
{
background = {
anchors = (
{
name = bottom;
position = "{397, 0}";
},
{
name = top;
position = "{405, 670}";
}
);
paths = (
{
closed = 1;
nodes = (
"201 685 OFFCURVE",
"50 527 OFFCURVE",
"50 335 CURVE SMOOTH",
"50 143 OFFCURVE",
"201 -15 OFFCURVE",
"403 -15 CURVE SMOOTH",
"500 -15 OFFCURVE",
"577 19 OFFCURVE",
"624 61 CURVE",
"624 151 LINE",
"577 115 OFFCURVE",
"505 73 OFFCURVE",
"403 73 CURVE SMOOTH",
"253 73 OFFCURVE",
"142 185 OFFCURVE",
"142 335 CURVE SMOOTH",
"142 485 OFFCURVE",
"253 597 OFFCURVE",
"403 597 CURVE SMOOTH",
"505 597 OFFCURVE",
"559 545 OFFCURVE",
"604 514 CURVE",
"604 613 LINE",
"557 655 OFFCURVE",
"500 685 OFFCURVE",
"403 685 CURVE SMOOTH"
);
},
{
closed = 1;
nodes = (
"369 2 LINE",
"355 -118 LINE",
"371 -130 LINE",
"384 -123 OFFCURVE",
"396 -121 OFFCURVE",
"406 -121 CURVE SMOOTH",
"431 -121 OFFCURVE",
"445 -132 OFFCURVE",
"445 -150 CURVE SMOOTH",
"445 -168 OFFCURVE",
"429 -181 OFFCURVE",
"406 -181 CURVE SMOOTH",
"377 -181 OFFCURVE",
"353 -171 OFFCURVE",
"332 -160 CURVE",
"325 -215 LINE",
"346 -232 OFFCURVE",
"383 -240 OFFCURVE",
"403 -240 CURVE SMOOTH",
"472 -240 OFFCURVE",
"513 -200 OFFCURVE",
"513 -147 CURVE SMOOTH",
"513 -98 OFFCURVE",
"472 -63 OFFCURVE",
"417 -70 CURVE",
"423 2 LINE"
);
}
);
};
components = (
{
name = C;
},
{
name = cedilla;
transform = "{1, 0, 0, 1, 240, 0}";
}
);
layerId = "DEFEBCF2-9FF2-4B76-ADC8-AB6BD79F23E7";
width = 674;
},
{
background = {
anchors = (
{
name = bottom;
position = "{389, 0}";
},
{
name = top;
position = "{394, 670}";
}
);
paths = (
{
closed = 1;
nodes = (
"213 685 OFFCURVE",
"40 557 OFFCURVE",
"40 335 CURVE SMOOTH",
"40 113 OFFCURVE",
"213 -15 OFFCURVE",
"395 -15 CURVE SMOOTH",
"465 -15 OFFCURVE",
"527 5 OFFCURVE",
"572 44 CURVE",
"572 225 LINE",
"519 182 OFFCURVE",
"479 160 OFFCURVE",
"402 160 CURVE SMOOTH",
"312 160 OFFCURVE",
"232 235 OFFCURVE",
"232 335 CURVE SMOOTH",
"232 435 OFFCURVE",
"312 510 OFFCURVE",
"402 510 CURVE SMOOTH",
"479 510 OFFCURVE",
"519 488 OFFCURVE",
"572 445 CURVE",
"572 626 LINE",
"527 665 OFFCURVE",
"465 685 OFFCURVE",
"395 685 CURVE SMOOTH"
);
},
{
closed = 1;
nodes = (
"328 2 LINE",
"316 -114 LINE",
"340 -126 LINE",
"353 -119 OFFCURVE",
"360 -117 OFFCURVE",
"370 -117 CURVE SMOOTH",
"385 -117 OFFCURVE",
"400 -125 OFFCURVE",
"400 -141 CURVE SMOOTH",
"400 -159 OFFCURVE",
"381 -167 OFFCURVE",
"368 -167 CURVE SMOOTH",
"339 -167 OFFCURVE",
"319 -152 OFFCURVE",
"298 -141 CURVE",
"291 -215 LINE",
"312 -232 OFFCURVE",
"351 -240 OFFCURVE",
"371 -240 CURVE SMOOTH",
"440 -240 OFFCURVE",
"489 -199 OFFCURVE",
"489 -131 CURVE SMOOTH",
"489 -82 OFFCURVE",
"453 -44 OFFCURVE",
"399 -46 CURVE",
"402 2 LINE"
);
}
);
};
components = (
{
name = C;
},
{
name = cedilla;
transform = "{1, 0, 0, 1, 211, 0}";
}
);
layerId = "2D992F1A-8218-4049-8E15-5955C72037C9";
width = 612;
}
);
unicode = 00C7;
},
{
color = 4;
glyphname = D;
layers = (
{
anchors = (
{
name = center;
position = "{397, 335}";
},
{
name = top;
position = "{367, 670}";
}
);
background = {
anchors = (
{
name = center;
position = "{397, 335}";
},
{
name = top;
position = "{367, 670}";
}
);
paths = (
{
closed = 1;
nodes = (
"264 686 OFFCURVE",
"191 676 OFFCURVE",
"110 661 CURVE",
"110 15 LINE",
"191 0 OFFCURVE",
"264 -10 OFFCURVE",
"356 -10 CURVE SMOOTH",
"581 -10 OFFCURVE",
"709 140 OFFCURVE",
"709 338 CURVE SMOOTH",
"709 536 OFFCURVE",
"581 686 OFFCURVE",
"356 686 CURVE SMOOTH"
);
},
{
closed = 1;
nodes = (
"518 601 OFFCURVE",
"617 488 OFFCURVE",
"617 338 CURVE SMOOTH",
"617 188 OFFCURVE",
"518 75 OFFCURVE",
"356 75 CURVE SMOOTH",
"308 75 OFFCURVE",
"250 79 OFFCURVE",
"200 85 CURVE",
"200 591 LINE",
"250 597 OFFCURVE",
"308 601 OFFCURVE",
"356 601 CURVE SMOOTH"
);
}
);
};
layerId = "DEFEBCF2-9FF2-4B76-ADC8-AB6BD79F23E7";
leftMetricsKey = "=L";
rightMetricsKey = "=O";
paths = (
{
closed = 1;
nodes = (
"581 -10 OFFCURVE",
"709 140 OFFCURVE",
"709 338 CURVE SMOOTH",
"709 536 OFFCURVE",
"581 686 OFFCURVE",
"356 686 CURVE SMOOTH",
"264 686 OFFCURVE",
"191 676 OFFCURVE",
"110 661 CURVE",
"110 15 LINE",
"191 0 OFFCURVE",
"264 -10 OFFCURVE",
"356 -10 CURVE SMOOTH"
);
},
{
closed = 1;
nodes = (
"308 75 OFFCURVE",
"250 79 OFFCURVE",
"200 85 CURVE",
"200 591 LINE",
"250 597 OFFCURVE",
"308 601 OFFCURVE",
"356 601 CURVE SMOOTH",
"518 601 OFFCURVE",
"617 488 OFFCURVE",
"617 338 CURVE SMOOTH",
"617 188 OFFCURVE",
"518 75 OFFCURVE",
"356 75 CURVE SMOOTH"
);
}
);
width = 759;
},
{
anchors = (
{
name = center;
position = "{380, 335}";
},
{
name = top;
position = "{320, 670}";
}
);
background = {
anchors = (
{
name = center;
position = "{380, 335}";
},
{
name = top;
position = "{320, 670}";
}
);
paths = (
{
closed = 1;
nodes = (
"265 686 OFFCURVE",
"165 672 OFFCURVE",
"80 658 CURVE",
"80 13 LINE",
"161 -4 OFFCURVE",
"276 -15 OFFCURVE",
"368 -15 CURVE SMOOTH",
"575 -15 OFFCURVE",
"711 148 OFFCURVE",
"711 346 CURVE SMOOTH",
"711 562 OFFCURVE",
"553 686 OFFCURVE",
"353 686 CURVE SMOOTH"
);
},
{
closed = 1;
nodes = (
"461 511 OFFCURVE",
"519 440 OFFCURVE",
"519 336 CURVE SMOOTH",
"519 237 OFFCURVE",
"461 160 OFFCURVE",
"359 160 CURVE SMOOTH",
"331 160 OFFCURVE",
"297 163 OFFCURVE",
"267 172 CURVE",
"267 499 LINE",
"293 505 OFFCURVE",
"328 511 OFFCURVE",
"359 511 CURVE SMOOTH"
);
}
);
};
layerId = "2D992F1A-8218-4049-8E15-5955C72037C9";
leftMetricsKey = "=L";
paths = (
{
closed = 1;
nodes = (
"575 -15 OFFCURVE",
"711 148 OFFCURVE",
"711 346 CURVE SMOOTH",
"711 562 OFFCURVE",
"553 686 OFFCURVE",
"353 686 CURVE SMOOTH",
"265 686 OFFCURVE",
"165 672 OFFCURVE",
"80 658 CURVE",
"80 13 LINE",
"161 -4 OFFCURVE",
"276 -15 OFFCURVE",
"368 -15 CURVE SMOOTH"
);
},
{
closed = 1;
nodes = (
"331 160 OFFCURVE",
"297 163 OFFCURVE",
"267 172 CURVE",
"267 499 LINE",
"293 505 OFFCURVE",
"328 511 OFFCURVE",
"359 511 CURVE SMOOTH",
"461 511 OFFCURVE",
"519 440 OFFCURVE",
"519 336 CURVE SMOOTH",
"519 237 OFFCURVE",
"461 160 OFFCURVE",
"359 160 CURVE SMOOTH"
);
}
);
width = 751;
}
);
leftMetricsKey = "=l";
rightMetricsKey = "=O";
unicode = 0044;
},
{
color = 4;
glyphname = Dcaron;
layers = (
{
background = {
anchors = (
{
name = center;
position = "{397, 335}";
},
{
name = top;
position = "{367, 670}";
}
);
paths = (
{
closed = 1;
nodes = (
"264 686 OFFCURVE",
"191 676 OFFCURVE",
"110 661 CURVE",
"110 15 LINE",
"191 0 OFFCURVE",
"264 -10 OFFCURVE",
"356 -10 CURVE SMOOTH",
"581 -10 OFFCURVE",
"709 140 OFFCURVE",
"709 338 CURVE SMOOTH",
"709 536 OFFCURVE",
"581 686 OFFCURVE",
"356 686 CURVE SMOOTH"
);
},
{
closed = 1;
nodes = (
"518 601 OFFCURVE",
"617 488 OFFCURVE",
"617 338 CURVE SMOOTH",
"617 188 OFFCURVE",
"518 75 OFFCURVE",
"356 75 CURVE SMOOTH",
"308 75 OFFCURVE",
"250 79 OFFCURVE",
"200 85 CURVE",
"200 591 LINE",
"250 597 OFFCURVE",
"308 601 OFFCURVE",
"356 601 CURVE SMOOTH"
);
},
{
closed = 1;
nodes = (
"345 751 LINE",
"389 751 LINE",
"529 890 LINE",
"447 890 LINE",
"367 812 LINE",
"287 890 LINE",
"205 890 LINE"
);
}
);
};
components = (
{
name = D;
},
{
name = caron;
transform = "{1, 0, 0, 1, 125, 170}";
}
);
layerId = "DEFEBCF2-9FF2-4B76-ADC8-AB6BD79F23E7";
width = 759;
},
{
background = {
anchors = (
{
name = center;
position = "{380, 335}";
},
{
name = top;
position = "{320, 670}";
}
);
paths = (
{
closed = 1;
nodes = (
"265 686 OFFCURVE",
"165 672 OFFCURVE",
"80 658 CURVE",
"80 13 LINE",
"161 -4 OFFCURVE",
"276 -15 OFFCURVE",
"368 -15 CURVE SMOOTH",
"575 -15 OFFCURVE",
"711 148 OFFCURVE",
"711 346 CURVE SMOOTH",
"711 562 OFFCURVE",
"553 686 OFFCURVE",
"353 686 CURVE SMOOTH"
);
},
{
closed = 1;
nodes = (
"461 511 OFFCURVE",
"519 440 OFFCURVE",
"519 336 CURVE SMOOTH",
"519 237 OFFCURVE",
"461 160 OFFCURVE",
"359 160 CURVE SMOOTH",
"331 160 OFFCURVE",
"297 163 OFFCURVE",
"267 172 CURVE",
"267 499 LINE",
"293 505 OFFCURVE",
"328 511 OFFCURVE",
"359 511 CURVE SMOOTH"
);
},
{
closed = 1;
nodes = (
"268 720 LINE",
"372 720 LINE",
"492 870 LINE",
"360 870 LINE",
"320 811 LINE",
"280 870 LINE",
"148 870 LINE"
);
}
);
};
components = (
{
name = D;
},
{
name = caron;
transform = "{1, 0, 0, 1, 88, 160}";
}
);
layerId = "2D992F1A-8218-4049-8E15-5955C72037C9";
width = 751;
}
);
unicode = 010E;
},
{
color = 4;
glyphname = Dcroat;
layers = (
{
background = {
anchors = (
{
name = center;
position = "{397, 335}";
},
{
name = top;
position = "{367, 670}";
}
);
paths = (
{
closed = 1;
nodes = (
"264 686 OFFCURVE",
"191 676 OFFCURVE",
"110 661 CURVE",
"110 15 LINE",
"191 0 OFFCURVE",
"264 -10 OFFCURVE",
"356 -10 CURVE SMOOTH",
"581 -10 OFFCURVE",
"709 140 OFFCURVE",
"709 338 CURVE SMOOTH",
"709 536 OFFCURVE",
"581 686 OFFCURVE",
"356 686 CURVE SMOOTH"
);
},
{
closed = 1;
nodes = (
"518 601 OFFCURVE",
"617 488 OFFCURVE",
"617 338 CURVE SMOOTH",
"617 188 OFFCURVE",
"518 75 OFFCURVE",
"356 75 CURVE SMOOTH",
"308 75 OFFCURVE",
"250 79 OFFCURVE",
"200 85 CURVE",
"200 591 LINE",
"250 597 OFFCURVE",
"308 601 OFFCURVE",
"356 601 CURVE SMOOTH"
);
},
{
closed = 1;
nodes = (
"12 383 LINE",
"12 293 LINE",
"313 293 LINE",
"313 383 LINE"
);
}
);
};
components = (
{
name = Eth;
}
);
layerId = "DEFEBCF2-9FF2-4B76-ADC8-AB6BD79F23E7";
width = 759;
},
{
background = {
anchors = (
{
name = center;
position = "{380, 335}";
},
{
name = top;
position = "{320, 670}";
}
);
paths = (
{
closed = 1;
nodes = (
"265 686 OFFCURVE",
"165 672 OFFCURVE",
"80 658 CURVE",
"80 13 LINE",
"161 -4 OFFCURVE",
"276 -15 OFFCURVE",
"368 -15 CURVE SMOOTH",
"575 -15 OFFCURVE",
"711 148 OFFCURVE",
"711 346 CURVE SMOOTH",
"711 562 OFFCURVE",
"553 686 OFFCURVE",
"353 686 CURVE SMOOTH"
);
},
{
closed = 1;
nodes = (
"461 511 OFFCURVE",
"519 440 OFFCURVE",
"519 336 CURVE SMOOTH",
"519 237 OFFCURVE",
"461 160 OFFCURVE",
"359 160 CURVE SMOOTH",
"331 160 OFFCURVE",
"297 163 OFFCURVE",
"267 172 CURVE",
"267 499 LINE",
"293 505 OFFCURVE",
"328 511 OFFCURVE",
"359 511 CURVE SMOOTH"
);
},
{
closed = 1;
nodes = (
"26 411 LINE",
"26 261 LINE",
"327 261 LINE",
"327 411 LINE"
);
}
);
};
components = (
{
name = Eth;
}
);
layerId = "2D992F1A-8218-4049-8E15-5955C72037C9";
width = 751;
}
);
unicode = 0110;
},
{
color = 4;
glyphname = Eth;
layers = (
{
background = {
anchors = (
{
name = center;
position = "{397, 335}";
},
{
name = top;
position = "{367, 670}";
}
);
paths = (
{
closed = 1;
nodes = (
"264 686 OFFCURVE",
"191 676 OFFCURVE",
"110 661 CURVE",
"110 15 LINE",
"191 0 OFFCURVE",
"264 -10 OFFCURVE",
"356 -10 CURVE SMOOTH",
"581 -10 OFFCURVE",
"709 140 OFFCURVE",
"709 338 CURVE SMOOTH",
"709 536 OFFCURVE",
"581 686 OFFCURVE",
"356 686 CURVE SMOOTH"
);
},
{
closed = 1;
nodes = (
"518 601 OFFCURVE",
"617 488 OFFCURVE",
"617 338 CURVE SMOOTH",
"617 188 OFFCURVE",
"518 75 OFFCURVE",
"356 75 CURVE SMOOTH",
"308 75 OFFCURVE",
"250 79 OFFCURVE",
"200 85 CURVE",
"200 591 LINE",
"250 597 OFFCURVE",
"308 601 OFFCURVE",
"356 601 CURVE SMOOTH"
);
},
{
closed = 1;
nodes = (
"12 383 LINE",
"12 293 LINE",
"313 293 LINE",
"313 383 LINE"
);
}
);
};
components = (
{
name = D;
},
{
name = hyphen;
transform = "{1, 0, 0, 1, -48, 85}";
}
);
layerId = "DEFEBCF2-9FF2-4B76-ADC8-AB6BD79F23E7";
width = 759;
},
{
background = {
anchors = (
{
name = center;
position = "{380, 335}";
},
{
name = top;
position = "{320, 670}";
}
);
paths = (
{
closed = 1;
nodes = (
"265 686 OFFCURVE",
"165 672 OFFCURVE",
"80 658 CURVE",
"80 13 LINE",
"161 -4 OFFCURVE",
"276 -15 OFFCURVE",
"368 -15 CURVE SMOOTH",
"575 -15 OFFCURVE",
"711 148 OFFCURVE",
"711 346 CURVE SMOOTH",
"711 562 OFFCURVE",
"553 686 OFFCURVE",
"353 686 CURVE SMOOTH"
);
},
{
closed = 1;
nodes = (
"461 511 OFFCURVE",
"519 440 OFFCURVE",
"519 336 CURVE SMOOTH",
"519 237 OFFCURVE",
"461 160 OFFCURVE",
"359 160 CURVE SMOOTH",
"331 160 OFFCURVE",
"297 163 OFFCURVE",
"267 172 CURVE",
"267 499 LINE",
"293 505 OFFCURVE",
"328 511 OFFCURVE",
"359 511 CURVE SMOOTH"
);
},
{
closed = 1;
nodes = (
"26 411 LINE",
"26 261 LINE",
"327 261 LINE",
"327 411 LINE"
);
}
);
};
components = (
{
name = D;
},
{
name = hyphen;
transform = "{1, 0, 0, 1, -34, 73}";
}
);
layerId = "2D992F1A-8218-4049-8E15-5955C72037C9";
width = 751;
}
);
unicode = 00D0;
},
{
color = 4;
glyphname = E;
layers = (
{
anchors = (
{
name = bottom;
position = "{320, 0}";
},
{
name = ogonek;
position = "{574, 10}";
},
{
name = top;
position = "{340, 670}";
}
);
background = {
anchors = (
{
name = bottom;
position = "{320, 0}";
},
{
name = ogonek;
position = "{574, 10}";
},
{
name = top;
position = "{340, 670}";
}
);
paths = (
{
closed = 1;
nodes = (
"110 670 LINE",
"110 0 LINE",
"569 0 LINE",
"569 85 LINE",
"200 85 LINE",
"200 585 LINE",
"569 585 LINE",
"569 670 LINE"
);
},
{
closed = 1;
nodes = (
"167 386 LINE",
"167 301 LINE",
"526 301 LINE",
"526 386 LINE"
);
}
);
};
layerId = "DEFEBCF2-9FF2-4B76-ADC8-AB6BD79F23E7";
leftMetricsKey = "=L";
rightMetricsKey = "=|L-40";
paths = (
{
closed = 1;
nodes = (
"569 0 LINE",
"569 85 LINE",
"200 85 LINE",
"200 585 LINE",
"569 585 LINE",
"569 670 LINE",
"110 670 LINE",
"110 0 LINE"
);
},
{
closed = 1;
nodes = (
"526 301 LINE",
"526 386 LINE",
"167 386 LINE",
"167 301 LINE"
);
}
);
width = 639;
},
{
anchors = (
{
name = bottom;
position = "{324, 0}";
},
{
name = ogonek;
position = "{575, 10}";
},
{
name = top;
position = "{324, 670}";
}
);
background = {
anchors = (
{
name = bottom;
position = "{324, 0}";
},
{
name = ogonek;
position = "{575, 10}";
},
{
name = top;
position = "{324, 670}";
}
);
paths = (
{
closed = 1;
nodes = (
"80 670 LINE",
"80 0 LINE",
"574 0 LINE",
"574 160 LINE",
"267 160 LINE",
"267 515 LINE",
"574 515 LINE",
"574 670 LINE"
);
},
{
closed = 1;
nodes = (
"185 414 LINE",
"185 264 LINE",
"540 264 LINE",
"540 414 LINE"
);
}
);
};
layerId = "2D992F1A-8218-4049-8E15-5955C72037C9";
leftMetricsKey = "=L";
rightMetricsKey = "=L+10";
paths = (
{
closed = 1;
nodes = (
"574 0 LINE",
"574 160 LINE",
"267 160 LINE",
"267 515 LINE",
"574 515 LINE",
"574 670 LINE",
"80 670 LINE",
"80 0 LINE"
);
},
{
closed = 1;
nodes = (
"540 264 LINE",
"540 414 LINE",
"185 414 LINE",
"185 264 LINE"
);
}
);
width = 644;
}
);
leftMetricsKey = "=I";
rightMetricsKey = "=I-30";
unicode = 0045;
},
{
color = 4;
glyphname = Eacute;
layers = (
{
background = {
anchors = (
{
name = bottom;
position = "{320, 0}";
},
{
name = ogonek;
position = "{574, 10}";
},
{
name = top;
position = "{340, 670}";
}
);
paths = (
{
closed = 1;
nodes = (
"110 670 LINE",
"110 0 LINE",
"569 0 LINE",
"569 85 LINE",
"200 85 LINE",
"200 585 LINE",
"569 585 LINE",
"569 670 LINE"
);
},
{
closed = 1;
nodes = (
"167 386 LINE",
"167 301 LINE",
"526 301 LINE",
"526 386 LINE"
);
},
{
closed = 1;
nodes = (
"398 890 LINE",
"288 755 LINE",
"370 755 LINE",
"512 890 LINE"
);
}
);
};
components = (
{
name = E;
},
{
name = acute;
transform = "{1, 0, 0, 1, 218, 170}";
}
);
layerId = "DEFEBCF2-9FF2-4B76-ADC8-AB6BD79F23E7";
width = 639;
},
{
background = {
anchors = (
{
name = bottom;
position = "{324, 0}";
},
{
name = ogonek;
position = "{575, 10}";
},
{
name = top;
position = "{324, 670}";
}
);
paths = (
{
closed = 1;
nodes = (
"80 670 LINE",
"80 0 LINE",
"574 0 LINE",
"574 160 LINE",
"267 160 LINE",
"267 515 LINE",
"574 515 LINE",
"574 670 LINE"
);
},
{
closed = 1;
nodes = (
"185 414 LINE",
"185 264 LINE",
"540 264 LINE",
"540 414 LINE"
);
},
{
closed = 1;
nodes = (
"340 870 LINE",
"240 720 LINE",
"362 720 LINE",
"494 870 LINE"
);
}
);
};
components = (
{
name = E;
},
{
name = acute;
transform = "{1, 0, 0, 1, 160, 160}";
}
);
layerId = "2D992F1A-8218-4049-8E15-5955C72037C9";
width = 644;
}
);
unicode = 00C9;
},
{
color = 4;
glyphname = Ecaron;
layers = (
{
background = {
anchors = (
{
name = bottom;
position = "{320, 0}";
},
{
name = ogonek;
position = "{574, 10}";
},
{
name = top;
position = "{340, 670}";
}
);
paths = (
{
closed = 1;
nodes = (
"110 670 LINE",
"110 0 LINE",
"569 0 LINE",
"569 85 LINE",
"200 85 LINE",
"200 585 LINE",
"569 585 LINE",
"569 670 LINE"
);
},
{
closed = 1;
nodes = (
"167 386 LINE",
"167 301 LINE",
"526 301 LINE",
"526 386 LINE"
);
},
{
closed = 1;
nodes = (
"318 751 LINE",
"362 751 LINE",
"502 890 LINE",
"420 890 LINE",
"340 812 LINE",
"260 890 LINE",
"178 890 LINE"
);
}
);
};
components = (
{
name = E;
},
{
name = caron;
transform = "{1, 0, 0, 1, 98, 170}";
}
);
layerId = "DEFEBCF2-9FF2-4B76-ADC8-AB6BD79F23E7";
width = 639;
},
{
background = {
anchors = (
{
name = bottom;
position = "{324, 0}";
},
{
name = ogonek;
position = "{575, 10}";
},
{
name = top;
position = "{324, 670}";
}
);
paths = (
{
closed = 1;
nodes = (
"80 670 LINE",
"80 0 LINE",
"574 0 LINE",
"574 160 LINE",
"267 160 LINE",
"267 515 LINE",
"574 515 LINE",
"574 670 LINE"
);
},
{
closed = 1;
nodes = (
"185 414 LINE",
"185 264 LINE",
"540 264 LINE",
"540 414 LINE"
);
},
{
closed = 1;
nodes = (
"272 720 LINE",
"376 720 LINE",
"496 870 LINE",
"364 870 LINE",
"324 811 LINE",
"284 870 LINE",
"152 870 LINE"
);
}
);
};
components = (
{
name = E;
},
{
name = caron;
transform = "{1, 0, 0, 1, 92, 160}";
}
);
layerId = "2D992F1A-8218-4049-8E15-5955C72037C9";
width = 644;
}
);
unicode = 011A;
},
{
color = 4;
glyphname = Ecircumflex;
layers = (
{
background = {
anchors = (
{
name = bottom;
position = "{320, 0}";
},
{
name = ogonek;
position = "{574, 10}";
},
{
name = top;
position = "{340, 670}";
}
);
paths = (
{
closed = 1;
nodes = (
"110 670 LINE",
"110 0 LINE",
"569 0 LINE",
"569 85 LINE",
"200 85 LINE",
"200 585 LINE",
"569 585 LINE",
"569 670 LINE"
);
},
{
closed = 1;
nodes = (
"167 386 LINE",
"167 301 LINE",
"526 301 LINE",
"526 386 LINE"
);
},
{
closed = 1;
nodes = (
"318 890 LINE",
"178 751 LINE",
"260 751 LINE",
"340 829 LINE",
"420 751 LINE",
"502 751 LINE",
"362 890 LINE"
);
}
);
};
components = (
{
name = E;
},
{
name = circumflex;
transform = "{1, 0, 0, 1, 98, 170}";
}
);
layerId = "DEFEBCF2-9FF2-4B76-ADC8-AB6BD79F23E7";
width = 639;
},
{
background = {
anchors = (
{
name = bottom;
position = "{324, 0}";
},
{
name = ogonek;
position = "{575, 10}";
},
{
name = top;
position = "{324, 670}";
}
);
paths = (
{
closed = 1;
nodes = (
"80 670 LINE",
"80 0 LINE",
"574 0 LINE",
"574 160 LINE",
"267 160 LINE",
"267 515 LINE",
"574 515 LINE",
"574 670 LINE"
);
},
{
closed = 1;
nodes = (
"185 414 LINE",
"185 264 LINE",
"540 264 LINE",
"540 414 LINE"
);
},
{
closed = 1;
nodes = (
"272 870 LINE",
"152 720 LINE",
"284 720 LINE",
"324 779 LINE",
"364 720 LINE",
"496 720 LINE",
"376 870 LINE"
);
}
);
};
components = (
{
name = E;
},
{
name = circumflex;
transform = "{1, 0, 0, 1, 72, 160}";
}
);
layerId = "2D992F1A-8218-4049-8E15-5955C72037C9";
width = 644;
}
);
unicode = 00CA;
},
{
color = 4;
glyphname = Edieresis;
layers = (
{
background = {
anchors = (
{
name = bottom;
position = "{320, 0}";
},
{
name = ogonek;
position = "{574, 10}";
},
{
name = top;
position = "{340, 670}";
}
);
paths = (
{
closed = 1;
nodes = (
"110 670 LINE",
"110 0 LINE",
"569 0 LINE",
"569 85 LINE",
"200 85 LINE",
"200 585 LINE",
"569 585 LINE",
"569 670 LINE"
);
},
{
closed = 1;
nodes = (
"167 386 LINE",
"167 301 LINE",
"526 301 LINE",
"526 386 LINE"
);
},
{
closed = 1;
nodes = (
"410 889 OFFCURVE",
"382 861 OFFCURVE",
"382 826 CURVE SMOOTH",
"382 792 OFFCURVE",
"410 763 OFFCURVE",
"445 763 CURVE",
"479 763 OFFCURVE",
"508 792 OFFCURVE",
"508 826 CURVE SMOOTH",
"508 861 OFFCURVE",
"479 889 OFFCURVE",
"445 889 CURVE SMOOTH"
);
},
{
closed = 1;
nodes = (
"200 889 OFFCURVE",
"172 861 OFFCURVE",
"172 826 CURVE SMOOTH",
"172 792 OFFCURVE",
"200 763 OFFCURVE",
"235 763 CURVE",
"269 763 OFFCURVE",
"298 792 OFFCURVE",
"298 826 CURVE SMOOTH",
"298 861 OFFCURVE",
"269 889 OFFCURVE",
"235 889 CURVE SMOOTH"
);
}
);
};
components = (
{
name = E;
},
{
name = dieresis;
transform = "{1, 0, 0, 1, 92, 170}";
}
);
layerId = "DEFEBCF2-9FF2-4B76-ADC8-AB6BD79F23E7";
width = 639;
},
{
background = {
anchors = (
{
name = bottom;
position = "{324, 0}";
},
{
name = ogonek;
position = "{575, 10}";
},
{
name = top;
position = "{324, 670}";
}
);
paths = (
{
closed = 1;
nodes = (
"80 670 LINE",
"80 0 LINE",
"574 0 LINE",
"574 160 LINE",
"267 160 LINE",
"267 515 LINE",
"574 515 LINE",
"574 670 LINE"
);
},
{
closed = 1;
nodes = (
"185 414 LINE",
"185 264 LINE",
"540 264 LINE",
"540 414 LINE"
);
},
{
closed = 1;
nodes = (
"387 885 OFFCURVE",
"353 851 OFFCURVE",
"353 809 CURVE SMOOTH",
"353 768 OFFCURVE",
"387 733 OFFCURVE",
"429 733 CURVE",
"470 733 OFFCURVE",
"505 768 OFFCURVE",
"505 809 CURVE SMOOTH",
"505 851 OFFCURVE",
"470 885 OFFCURVE",
"429 885 CURVE SMOOTH"
);
},
{
closed = 1;
nodes = (
"177 885 OFFCURVE",
"143 851 OFFCURVE",
"143 809 CURVE SMOOTH",
"143 768 OFFCURVE",
"177 733 OFFCURVE",
"219 733 CURVE",
"260 733 OFFCURVE",
"295 768 OFFCURVE",
"295 809 CURVE SMOOTH",
"295 851 OFFCURVE",
"260 885 OFFCURVE",
"219 885 CURVE SMOOTH"
);
}
);
};
components = (
{
name = E;
},
{
name = dieresis;
transform = "{1, 0, 0, 1, 57, 160}";
}
);
layerId = "2D992F1A-8218-4049-8E15-5955C72037C9";
width = 644;
}
);
unicode = 00CB;
},
{
color = 4;
glyphname = Edotaccent;
layers = (
{
background = {
anchors = (
{
name = bottom;
position = "{320, 0}";
},
{
name = ogonek;
position = "{574, 10}";
},
{
name = top;
position = "{340, 670}";
}
);
paths = (
{
closed = 1;
nodes = (
"110 670 LINE",
"110 0 LINE",
"569 0 LINE",
"569 85 LINE",
"200 85 LINE",
"200 585 LINE",
"569 585 LINE",
"569 670 LINE"
);
},
{
closed = 1;
nodes = (
"167 386 LINE",
"167 301 LINE",
"526 301 LINE",
"526 386 LINE"
);
},
{
closed = 1;
nodes = (
"305 890 OFFCURVE",
"277 862 OFFCURVE",
"277 827 CURVE SMOOTH",
"277 793 OFFCURVE",
"305 764 OFFCURVE",
"340 764 CURVE",
"374 764 OFFCURVE",
"403 793 OFFCURVE",
"403 827 CURVE SMOOTH",
"403 862 OFFCURVE",
"374 890 OFFCURVE",
"340 890 CURVE SMOOTH"
);
}
);
};
components = (
{
name = E;
},
{
name = dotaccent;
transform = "{1, 0, 0, 1, 190, 170}";
}
);
layerId = "DEFEBCF2-9FF2-4B76-ADC8-AB6BD79F23E7";
width = 639;
},
{
background = {
anchors = (
{
name = bottom;
position = "{324, 0}";
},
{
name = ogonek;
position = "{575, 10}";
},
{
name = top;
position = "{324, 670}";
}
);
paths = (
{
closed = 1;
nodes = (
"80 670 LINE",
"80 0 LINE",
"574 0 LINE",
"574 160 LINE",
"267 160 LINE",
"267 515 LINE",
"574 515 LINE",
"574 670 LINE"
);
},
{
closed = 1;
nodes = (
"185 414 LINE",
"185 264 LINE",
"540 264 LINE",
"540 414 LINE"
);
},
{
closed = 1;
nodes = (
"282 870 OFFCURVE",
"248 836 OFFCURVE",
"248 794 CURVE SMOOTH",
"248 753 OFFCURVE",
"282 718 OFFCURVE",
"324 718 CURVE",
"365 718 OFFCURVE",
"400 753 OFFCURVE",
"400 794 CURVE SMOOTH",
"400 836 OFFCURVE",
"365 870 OFFCURVE",
"324 870 CURVE SMOOTH"
);
}
);
};
components = (
{
name = E;
},
{
name = dotaccent;
transform = "{1, 0, 0, 1, 168, 160}";
}
);
layerId = "2D992F1A-8218-4049-8E15-5955C72037C9";
width = 644;
}
);
unicode = 0116;
},
{
color = 4;
glyphname = Egrave;
layers = (
{
background = {
anchors = (
{
name = bottom;
position = "{320, 0}";
},
{
name = ogonek;
position = "{574, 10}";
},
{
name = top;
position = "{340, 670}";
}
);
paths = (
{
closed = 1;
nodes = (
"110 670 LINE",
"110 0 LINE",
"569 0 LINE",
"569 85 LINE",
"200 85 LINE",
"200 585 LINE",
"569 585 LINE",
"569 670 LINE"
);
},
{
closed = 1;
nodes = (
"167 386 LINE",
"167 301 LINE",
"526 301 LINE",
"526 386 LINE"
);
},
{
closed = 1;
nodes = (
"303 755 LINE",
"385 755 LINE",
"275 890 LINE",
"161 890 LINE"
);
}
);
};
components = (
{
name = E;
},
{
name = grave;
transform = "{1, 0, 0, 1, 142, 170}";
}
);
layerId = "DEFEBCF2-9FF2-4B76-ADC8-AB6BD79F23E7";
width = 639;
},
{
background = {
anchors = (
{
name = bottom;
position = "{324, 0}";
},
{
name = ogonek;
position = "{575, 10}";
},
{
name = top;
position = "{324, 670}";
}
);
paths = (
{
closed = 1;
nodes = (
"80 670 LINE",
"80 0 LINE",
"574 0 LINE",
"574 160 LINE",
"267 160 LINE",
"267 515 LINE",
"574 515 LINE",
"574 670 LINE"
);
},
{
closed = 1;
nodes = (
"185 414 LINE",
"185 264 LINE",
"540 264 LINE",
"540 414 LINE"
);
},
{
closed = 1;
nodes = (
"134 870 LINE",
"266 720 LINE",
"388 720 LINE",
"288 870 LINE"
);
}
);
};
components = (
{
name = E;
},
{
name = grave;
transform = "{1, 0, 0, 1, 54, 160}";
}
);
layerId = "2D992F1A-8218-4049-8E15-5955C72037C9";
width = 644;
}
);
unicode = 00C8;
},
{
color = 4;
glyphname = Emacron;
layers = (
{
background = {
anchors = (
{
name = bottom;
position = "{320, 0}";
},
{
name = ogonek;
position = "{574, 10}";
},
{
name = top;
position = "{340, 670}";
}
);
paths = (
{
closed = 1;
nodes = (
"110 670 LINE",
"110 0 LINE",
"569 0 LINE",
"569 85 LINE",
"200 85 LINE",
"200 585 LINE",
"569 585 LINE",
"569 670 LINE"
);
},
{
closed = 1;
nodes = (
"167 386 LINE",
"167 301 LINE",
"526 301 LINE",
"526 386 LINE"
);
},
{
closed = 1;
nodes = (
"165 888 LINE",
"165 808 LINE",
"515 808 LINE",
"515 888 LINE"
);
}
);
};
components = (
{
name = E;
},
{
name = macron;
transform = "{1, 0, 0, 1, 75, 170}";
}
);
layerId = "DEFEBCF2-9FF2-4B76-ADC8-AB6BD79F23E7";
width = 639;
},
{
background = {
anchors = (
{
name = bottom;
position = "{324, 0}";
},
{
name = ogonek;
position = "{575, 10}";
},
{
name = top;
position = "{324, 670}";
}
);
paths = (
{
closed = 1;
nodes = (
"80 670 LINE",
"80 0 LINE",
"574 0 LINE",
"574 160 LINE",
"267 160 LINE",
"267 515 LINE",
"574 515 LINE",
"574 670 LINE"
);
},
{
closed = 1;
nodes = (
"185 414 LINE",
"185 264 LINE",
"540 264 LINE",
"540 414 LINE"
);
},
{
closed = 1;
nodes = (
"139 870 LINE",
"139 760 LINE",
"509 760 LINE",
"509 870 LINE"
);
}
);
};
components = (
{
name = E;
},
{
name = macron;
transform = "{1, 0, 0, 1, 39, 160}";
}
);
layerId = "2D992F1A-8218-4049-8E15-5955C72037C9";
width = 644;
}
);
unicode = 0112;
},
{
color = 4;
glyphname = Eogonek;
layers = (
{
background = {
anchors = (
{
name = bottom;
position = "{320, 0}";
},
{
name = ogonek;
position = "{574, 10}";
},
{
name = top;
position = "{340, 670}";
}
);
paths = (
{
closed = 1;
nodes = (
"110 670 LINE",
"110 0 LINE",
"569 0 LINE",
"569 85 LINE",
"200 85 LINE",
"200 585 LINE",
"569 585 LINE",
"569 670 LINE"
);
},
{
closed = 1;
nodes = (
"167 386 LINE",
"167 301 LINE",
"526 301 LINE",
"526 386 LINE"
);
},
{
closed = 1;
nodes = (
"452 -12 OFFCURVE",
"378 -56 OFFCURVE",
"378 -126 CURVE SMOOTH",
"378 -192 OFFCURVE",
"435 -225 OFFCURVE",
"495 -225 CURVE SMOOTH",
"531 -225 OFFCURVE",
"555 -207 OFFCURVE",
"569 -200 CURVE",
"569 -131 LINE",
"554 -141 OFFCURVE",
"538 -149 OFFCURVE",
"515 -149 CURVE SMOOTH",
"480 -149 OFFCURVE",
"462 -126 OFFCURVE",
"462 -98 CURVE SMOOTH",
"462 -54 OFFCURVE",
"522 -18 OFFCURVE",
"569 1 CURVE",
"489 1 LINE"
);
}
);
};
components = (
{
name = E;
},
{
name = ogonek;
transform = "{1, 0, 0, 1, 195, 0}";
}
);
layerId = "DEFEBCF2-9FF2-4B76-ADC8-AB6BD79F23E7";
width = 639;
},
{
background = {
anchors = (
{
name = bottom;
position = "{324, 0}";
},
{
name = ogonek;
position = "{575, 10}";
},
{
name = top;
position = "{324, 670}";
}
);
paths = (
{
closed = 1;
nodes = (
"80 670 LINE",
"80 0 LINE",
"574 0 LINE",
"574 160 LINE",
"267 160 LINE",
"267 515 LINE",
"574 515 LINE",
"574 670 LINE"
);
},
{
closed = 1;
nodes = (
"185 414 LINE",
"185 264 LINE",
"540 264 LINE",
"540 414 LINE"
);
},
{
closed = 1;
nodes = (
"378 -13 OFFCURVE",
"318 -56 OFFCURVE",
"318 -126 CURVE SMOOTH",
"318 -192 OFFCURVE",
"385 -225 OFFCURVE",
"445 -225 CURVE SMOOTH",
"501 -225 OFFCURVE",
"545 -210 OFFCURVE",
"559 -203 CURVE",
"559 -90 LINE",
"544 -100 OFFCURVE",
"528 -108 OFFCURVE",
"505 -108 CURVE SMOOTH",
"484 -108 OFFCURVE",
"469 -94 OFFCURVE",
"469 -73 CURVE SMOOTH",
"469 -51 OFFCURVE",
"516 -13 OFFCURVE",
"575 1 CURVE",
"435 1 LINE"
);
}
);
};
components = (
{
name = E;
},
{
name = ogonek;
transform = "{1, 0, 0, 1, 185, 0}";
}
);
layerId = "2D992F1A-8218-4049-8E15-5955C72037C9";
width = 644;
}
);
unicode = 0118;
},
{
color = 4;
glyphname = F;
layers = (
{
background = {
paths = (
{
closed = 1;
nodes = (
"110 670 LINE",
"110 0 LINE",
"200 0 LINE",
"200 585 LINE",
"548 585 LINE",
"548 670 LINE"
);
},
{
closed = 1;
nodes = (
"180 361 LINE",
"180 276 LINE",
"488 276 LINE",
"488 361 LINE"
);
}
);
};
layerId = "DEFEBCF2-9FF2-4B76-ADC8-AB6BD79F23E7";
leftMetricsKey = "=L";
rightMetricsKey = "=L+10";
paths = (
{
closed = 1;
nodes = (
"200 0 LINE",
"200 585 LINE",
"548 585 LINE",
"548 670 LINE",
"110 670 LINE",
"110 0 LINE"
);
},
{
closed = 1;
nodes = (
"488 276 LINE",
"488 361 LINE",
"180 361 LINE",
"180 276 LINE"
);
}
);
width = 603;
},
{
background = {
paths = (
{
closed = 1;
nodes = (
"80 670 LINE",
"80 0 LINE",
"267 0 LINE",
"267 505 LINE",
"555 505 LINE",
"555 670 LINE"
);
},
{
closed = 1;
nodes = (
"157 391 LINE",
"157 226 LINE",
"505 226 LINE",
"505 391 LINE"
);
}
);
};
layerId = "2D992F1A-8218-4049-8E15-5955C72037C9";
leftMetricsKey = "=L";
paths = (
{
closed = 1;
nodes = (
"267 0 LINE",
"267 505 LINE",
"555 505 LINE",
"555 670 LINE",
"80 670 LINE",
"80 0 LINE"
);
},
{
closed = 1;
nodes = (
"505 226 LINE",
"505 391 LINE",
"157 391 LINE",
"157 226 LINE"
);
}
);
width = 615;
}
);
leftMetricsKey = "=I";
rightMetricsKey = "=L";
unicode = 0046;
},
{
color = 4;
glyphname = G;
layers = (
{
anchors = (
{
name = bottom;
position = "{406, 0}";
},
{
name = top;
position = "{351, 670}";
}
);
background = {
anchors = (
{
name = bottom;
position = "{406, 0}";
},
{
name = top;
position = "{351, 670}";
}
);
paths = (
{
closed = 1;
nodes = (
"201 685 OFFCURVE",
"50 527 OFFCURVE",
"50 335 CURVE SMOOTH",
"50 143 OFFCURVE",
"201 -15 OFFCURVE",
"403 -15 CURVE SMOOTH",
"520 -15 OFFCURVE",
"613 39 OFFCURVE",
"661 91 CURVE",
"564 131 LINE",
"541 112 OFFCURVE",
"505 73 OFFCURVE",
"403 73 CURVE SMOOTH",
"253 73 OFFCURVE",
"142 185 OFFCURVE",
"142 335 CURVE SMOOTH",
"142 485 OFFCURVE",
"253 597 OFFCURVE",
"403 597 CURVE SMOOTH",
"505 597 OFFCURVE",
"559 545 OFFCURVE",
"604 514 CURVE",
"604 613 LINE",
"557 655 OFFCURVE",
"500 685 OFFCURVE",
"403 685 CURVE SMOOTH"
);
},
{
closed = 1;
nodes = (
"564 366 LINE",
"563 29 LINE",
"661 91 LINE",
"661 366 LINE"
);
},
{
closed = 1;
nodes = (
"366 286 LINE",
"607 286 LINE",
"607 366 LINE",
"366 366 LINE"
);
}
);
};
layerId = "DEFEBCF2-9FF2-4B76-ADC8-AB6BD79F23E7";
leftMetricsKey = "=O";
rightMetricsKey = "=O-10";
paths = (
{
closed = 1;
nodes = (
"520 -15 OFFCURVE",
"613 39 OFFCURVE",
"661 91 CURVE",
"564 131 LINE",
"541 112 OFFCURVE",
"505 73 OFFCURVE",
"403 73 CURVE SMOOTH",
"253 73 OFFCURVE",
"142 185 OFFCURVE",
"142 335 CURVE SMOOTH",
"142 485 OFFCURVE",
"253 597 OFFCURVE",
"403 597 CURVE SMOOTH",
"505 597 OFFCURVE",
"559 545 OFFCURVE",
"604 514 CURVE",
"604 613 LINE",
"557 655 OFFCURVE",
"500 685 OFFCURVE",
"403 685 CURVE SMOOTH",
"201 685 OFFCURVE",
"50 527 OFFCURVE",
"50 335 CURVE SMOOTH",
"50 143 OFFCURVE",
"201 -15 OFFCURVE",
"403 -15 CURVE SMOOTH"
);
},
{
closed = 1;
nodes = (
"661 91 LINE",
"661 366 LINE",
"564 366 LINE",
"563 29 LINE"
);
},
{
closed = 1;
nodes = (
"607 286 LINE",
"607 366 LINE",
"366 366 LINE",
"366 286 LINE"
);
}
);
width = 701;
},
{
anchors = (
{
name = bottom;
position = "{423, 0}";
},
{
name = top;
position = "{363, 670}";
}
);
background = {
anchors = (
{
name = bottom;
position = "{423, 0}";
},
{
name = top;
position = "{363, 670}";
}
);
paths = (
{
closed = 1;
nodes = (
"213 685 OFFCURVE",
"40 557 OFFCURVE",
"40 335 CURVE SMOOTH",
"40 113 OFFCURVE",
"213 -15 OFFCURVE",
"395 -15 CURVE SMOOTH",
"495 -15 OFFCURVE",
"577 24 OFFCURVE",
"640 89 CURVE",
"502 193 LINE",
"486 175 OFFCURVE",
"449 160 OFFCURVE",
"402 160 CURVE SMOOTH",
"312 160 OFFCURVE",
"232 235 OFFCURVE",
"232 335 CURVE SMOOTH",
"232 435 OFFCURVE",
"312 510 OFFCURVE",
"402 510 CURVE SMOOTH",
"479 510 OFFCURVE",
"519 488 OFFCURVE",
"572 445 CURVE",
"572 626 LINE",
"527 665 OFFCURVE",
"465 685 OFFCURVE",
"395 685 CURVE SMOOTH"
);
},
{
closed = 1;
nodes = (
"480 359 LINE",
"478 29 LINE",
"640 89 LINE",
"640 359 LINE"
);
},
{
closed = 1;
nodes = (
"480 239 LINE",
"580 239 LINE",
"580 359 LINE",
"480 359 LINE"
);
}
);
};
layerId = "2D992F1A-8218-4049-8E15-5955C72037C9";
rightMetricsKey = "=|L-25";
paths = (
{
closed = 1;
nodes = (
"495 -15 OFFCURVE",
"577 24 OFFCURVE",
"640 89 CURVE",
"502 193 LINE",
"486 175 OFFCURVE",
"449 160 OFFCURVE",
"402 160 CURVE SMOOTH",
"312 160 OFFCURVE",
"232 235 OFFCURVE",
"232 335 CURVE SMOOTH",
"232 435 OFFCURVE",
"312 510 OFFCURVE",
"402 510 CURVE SMOOTH",
"479 510 OFFCURVE",
"519 488 OFFCURVE",
"572 445 CURVE",
"572 626 LINE",
"527 665 OFFCURVE",
"465 685 OFFCURVE",
"395 685 CURVE SMOOTH",
"213 685 OFFCURVE",
"40 557 OFFCURVE",
"40 335 CURVE SMOOTH",
"40 113 OFFCURVE",
"213 -15 OFFCURVE",
"395 -15 CURVE SMOOTH"
);
},
{
closed = 1;
nodes = (
"640 89 LINE",
"640 359 LINE",
"480 359 LINE",
"478 29 LINE"
);
},
{
closed = 1;
nodes = (
"480 359 LINE",
"580 359 LINE",
"580 239 LINE",
"480 239 LINE"
);
}
);
width = 695;
}
);
leftMetricsKey = "=O";
rightMetricsKey = "=|L";
unicode = 0047;
},
{
color = 4;
glyphname = Gcommaaccent;
layers = (
{
background = {
anchors = (
{
name = bottom;
position = "{406, 0}";
},
{
name = top;
position = "{351, 670}";
}
);
paths = (
{
closed = 1;
nodes = (
"201 685 OFFCURVE",
"50 527 OFFCURVE",
"50 335 CURVE SMOOTH",
"50 143 OFFCURVE",
"201 -15 OFFCURVE",
"403 -15 CURVE SMOOTH",
"520 -15 OFFCURVE",
"613 39 OFFCURVE",
"661 91 CURVE",
"564 131 LINE",
"541 112 OFFCURVE",
"505 73 OFFCURVE",
"403 73 CURVE SMOOTH",
"253 73 OFFCURVE",
"142 185 OFFCURVE",
"142 335 CURVE SMOOTH",
"142 485 OFFCURVE",
"253 597 OFFCURVE",
"403 597 CURVE SMOOTH",
"505 597 OFFCURVE",
"559 545 OFFCURVE",
"604 514 CURVE",
"604 613 LINE",
"557 655 OFFCURVE",
"500 685 OFFCURVE",
"403 685 CURVE SMOOTH"
);
},
{
closed = 1;
nodes = (
"564 366 LINE",
"563 29 LINE",
"661 91 LINE",
"661 366 LINE"
);
},
{
closed = 1;
nodes = (
"366 286 LINE",
"607 286 LINE",
"607 366 LINE",
"366 366 LINE"
);
},
{
closed = 1;
nodes = (
"372 -70 LINE",
"397 -70 OFFCURVE",
"426 -88 OFFCURVE",
"426 -119 CURVE SMOOTH",
"426 -151 OFFCURVE",
"404 -173 OFFCURVE",
"368 -173 CURVE SMOOTH",
"348 -173 OFFCURVE",
"330 -168 OFFCURVE",
"314 -155 CURVE",
"314 -207 LINE",
"327 -216 OFFCURVE",
"348 -225 OFFCURVE",
"376 -225 CURVE SMOOTH",
"421 -225 OFFCURVE",
"479 -187 OFFCURVE",
"479 -116 CURVE SMOOTH",
"479 -60 OFFCURVE",
"429 -22 OFFCURVE",
"372 -22 CURVE"
);
}
);
};
components = (
{
name = G;
},
{
name = commaaccent;
transform = "{1, 0, 0, 1, 254, 0}";
}
);
layerId = "DEFEBCF2-9FF2-4B76-ADC8-AB6BD79F23E7";
width = 701;
},
{
background = {
anchors = (
{
name = bottom;
position = "{423, 0}";
},
{
name = top;
position = "{363, 670}";
}
);
paths = (
{
closed = 1;
nodes = (
"213 685 OFFCURVE",
"40 557 OFFCURVE",
"40 335 CURVE SMOOTH",
"40 113 OFFCURVE",
"213 -15 OFFCURVE",
"395 -15 CURVE SMOOTH",
"495 -15 OFFCURVE",
"577 24 OFFCURVE",
"640 89 CURVE",
"502 193 LINE",
"486 175 OFFCURVE",
"449 160 OFFCURVE",
"402 160 CURVE SMOOTH",
"312 160 OFFCURVE",
"232 235 OFFCURVE",
"232 335 CURVE SMOOTH",
"232 435 OFFCURVE",
"312 510 OFFCURVE",
"402 510 CURVE SMOOTH",
"479 510 OFFCURVE",
"519 488 OFFCURVE",
"572 445 CURVE",
"572 626 LINE",
"527 665 OFFCURVE",
"465 685 OFFCURVE",
"395 685 CURVE SMOOTH"
);
},
{
closed = 1;
nodes = (
"480 359 LINE",
"478 29 LINE",
"640 89 LINE",
"640 359 LINE"
);
},
{
closed = 1;
nodes = (
"480 239 LINE",
"580 239 LINE",
"580 359 LINE",
"480 359 LINE"
);
},
{
closed = 1;
nodes = (
"386 -101 LINE",
"401 -101 OFFCURVE",
"413 -108 OFFCURVE",
"413 -120 CURVE SMOOTH",
"413 -132 OFFCURVE",
"402 -138 OFFCURVE",
"387 -138 CURVE SMOOTH",
"371 -138 OFFCURVE",
"356 -134 OFFCURVE",
"340 -123 CURVE",
"340 -207 LINE",
"353 -216 OFFCURVE",
"371 -225 OFFCURVE",
"393 -225 CURVE SMOOTH",
"446 -225 OFFCURVE",
"496 -190 OFFCURVE",
"496 -119 CURVE SMOOTH",
"496 -54 OFFCURVE",
"443 -22 OFFCURVE",
"386 -22 CURVE"
);
}
);
};
components = (
{
name = G;
},
{
name = commaaccent;
transform = "{1, 0, 0, 1, 271, 0}";
}
);
layerId = "2D992F1A-8218-4049-8E15-5955C72037C9";
width = 695;
}
);
unicode = 0122;
},
{
color = 4;
glyphname = H;
layers = (
{
background = {
paths = (
{
closed = 1;
nodes = (
"582 670 LINE",
"582 0 LINE",
"672 0 LINE",
"672 670 LINE"
);
},
{
closed = 1;
nodes = (
"110 670 LINE",
"110 0 LINE",
"200 0 LINE",
"200 670 LINE"
);
},
{
closed = 1;
nodes = (
"187 388 LINE",
"187 303 LINE",
"610 303 LINE",
"610 388 LINE"
);
}
);
};
layerId = "DEFEBCF2-9FF2-4B76-ADC8-AB6BD79F23E7";
leftMetricsKey = "=L";
rightMetricsKey = "=|L";
paths = (
{
closed = 1;
nodes = (
"672 0 LINE",
"672 670 LINE",
"582 670 LINE",
"582 0 LINE"
);
},
{
closed = 1;
nodes = (
"200 0 LINE",
"200 670 LINE",
"110 670 LINE",
"110 0 LINE"
);
},
{
closed = 1;
nodes = (
"610 303 LINE",
"610 388 LINE",
"187 388 LINE",
"187 303 LINE"
);
}
);
width = 782;
},
{
background = {
paths = (
{
closed = 1;
nodes = (
"507 670 LINE",
"507 0 LINE",
"694 0 LINE",
"694 670 LINE"
);
},
{
closed = 1;
nodes = (
"80 670 LINE",
"80 0 LINE",
"267 0 LINE",
"267 670 LINE"
);
},
{
closed = 1;
nodes = (
"247 405 LINE",
"247 240 LINE",
"535 240 LINE",
"535 405 LINE"
);
}
);
};
layerId = "2D992F1A-8218-4049-8E15-5955C72037C9";
leftMetricsKey = "=L";
paths = (
{
closed = 1;
nodes = (
"694 0 LINE",
"694 670 LINE",
"507 670 LINE",
"507 0 LINE"
);
},
{
closed = 1;
nodes = (
"267 0 LINE",
"267 670 LINE",
"80 670 LINE",
"80 0 LINE"
);
},
{
closed = 1;
nodes = (
"535 240 LINE",
"535 405 LINE",
"247 405 LINE",
"247 240 LINE"
);
}
);
width = 774;
}
);
leftMetricsKey = "=L";
rightMetricsKey = "=|L";
unicode = 0048;
},
{
color = 4;
glyphname = I;
layers = (
{
anchors = (
{
name = ogonek;
position = "{320, 10}";
},
{
name = top;
position = "{272, 670}";
}
);
background = {
anchors = (
{
name = ogonek;
position = "{320, 10}";
},
{
name = top;
position = "{272, 670}";
}
);
paths = (
{
closed = 1;
nodes = (
"223 670 LINE",
"223 0 LINE",
"313 0 LINE",
"313 670 LINE"
);
},
{
closed = 1;
nodes = (
"110 85 LINE",
"110 0 LINE",
"426 0 LINE",
"426 85 LINE"
);
},
{
closed = 1;
nodes = (
"110 670 LINE",
"110 585 LINE",
"426 585 LINE",
"426 670 LINE"
);
}
);
};
layerId = "DEFEBCF2-9FF2-4B76-ADC8-AB6BD79F23E7";
leftMetricsKey = "=L";
rightMetricsKey = "=|L";
paths = (
{
closed = 1;
nodes = (
"313 0 LINE",
"313 670 LINE",
"223 670 LINE",
"223 0 LINE"
);
},
{
closed = 1;
nodes = (
"426 0 LINE",
"426 85 LINE",
"110 85 LINE",
"110 0 LINE"
);
},
{
closed = 1;
nodes = (
"426 585 LINE",
"426 670 LINE",
"110 670 LINE",
"110 585 LINE"
);
}
);
width = 536;
},
{
anchors = (
{
name = ogonek;
position = "{369, 10}";
},
{
name = top;
position = "{287, 670}";
}
);
background = {
anchors = (
{
name = ogonek;
position = "{369, 10}";
},
{
name = top;
position = "{287, 670}";
}
);
paths = (
{
closed = 1;
nodes = (
"193 670 LINE",
"193 0 LINE",
"380 0 LINE",
"380 670 LINE"
);
},
{
closed = 1;
nodes = (
"70 155 LINE",
"70 0 LINE",
"503 0 LINE",
"503 155 LINE"
);
},
{
closed = 1;
nodes = (
"70 670 LINE",
"70 515 LINE",
"503 515 LINE",
"503 670 LINE"
);
}
);
};
layerId = "2D992F1A-8218-4049-8E15-5955C72037C9";
leftMetricsKey = "=L-10";
rightMetricsKey = "=|L-10";
paths = (
{
closed = 1;
nodes = (
"380 0 LINE",
"380 670 LINE",
"193 670 LINE",
"193 0 LINE"
);
},
{
closed = 1;
nodes = (
"503 0 LINE",
"503 155 LINE",
"70 155 LINE",
"70 0 LINE"
);
},
{
closed = 1;
nodes = (
"503 515 LINE",
"503 670 LINE",
"70 670 LINE",
"70 515 LINE"
);
}
);
width = 573;
}
);
leftMetricsKey = "=L-20";
rightMetricsKey = "=|L-20";
unicode = 0049;
},
{
color = 4;
glyphname = IJ;
layers = (
{
background = {
anchors = (
{
name = ogonek;
position = "{320, 10}";
},
{
name = top;
position = "{272, 670}";
}
);
paths = (
{
closed = 1;
nodes = (
"223 670 LINE",
"223 0 LINE",
"313 0 LINE",
"313 670 LINE"
);
},
{
closed = 1;
nodes = (
"110 85 LINE",
"110 0 LINE",
"426 0 LINE",
"426 85 LINE"
);
},
{
closed = 1;
nodes = (
"110 670 LINE",
"110 585 LINE",
"426 585 LINE",
"426 670 LINE"
);
},
{
closed = 1;
nodes = (
"651 672 LINE",
"651 16 LINE SMOOTH",
"651 -65 OFFCURVE",
"595 -127 OFFCURVE",
"481 -168 CURVE",
"525 -255 LINE",
"650 -210 OFFCURVE",
"741 -136 OFFCURVE",
"741 34 CURVE SMOOTH",
"741 672 LINE"
);
}
);
};
components = (
{
name = I;
},
{
name = J;
transform = "{1, 0, 0, 1, 536, 0}";
}
);
layerId = "DEFEBCF2-9FF2-4B76-ADC8-AB6BD79F23E7";
width = 851;
},
{
background = {
anchors = (
{
name = ogonek;
position = "{369, 10}";
},
{
name = top;
position = "{287, 670}";
}
);
paths = (
{
closed = 1;
nodes = (
"193 670 LINE",
"193 0 LINE",
"380 0 LINE",
"380 670 LINE"
);
},
{
closed = 1;
nodes = (
"70 155 LINE",
"70 0 LINE",
"503 0 LINE",
"503 155 LINE"
);
},
{
closed = 1;
nodes = (
"70 670 LINE",
"70 515 LINE",
"503 515 LINE",
"503 670 LINE"
);
},
{
closed = 1;
nodes = (
"690 672 LINE",
"690 54 LINE SMOOTH",
"690 -23 OFFCURVE",
"640 -72 OFFCURVE",
"543 -93 CURVE",
"605 -255 LINE",
"766 -222 OFFCURVE",
"877 -120 OFFCURVE",
"877 47 CURVE SMOOTH",
"877 672 LINE"
);
}
);
};
components = (
{
name = I;
},
{
name = J;
transform = "{1, 0, 0, 1, 573, 0}";
}
);
layerId = "2D992F1A-8218-4049-8E15-5955C72037C9";
width = 947;
}
);
unicode = 0132;
},
{
color = 4;
glyphname = Iacute;
layers = (
{
background = {
anchors = (
{
name = ogonek;
position = "{320, 10}";
},
{
name = top;
position = "{272, 670}";
}
);
paths = (
{
closed = 1;
nodes = (
"223 670 LINE",
"223 0 LINE",
"313 0 LINE",
"313 670 LINE"
);
},
{
closed = 1;
nodes = (
"110 85 LINE",
"110 0 LINE",
"426 0 LINE",
"426 85 LINE"
);
},
{
closed = 1;
nodes = (
"110 670 LINE",
"110 585 LINE",
"426 585 LINE",
"426 670 LINE"
);
},
{
closed = 1;
nodes = (
"330 890 LINE",
"220 755 LINE",
"302 755 LINE",
"444 890 LINE"
);
}
);
};
components = (
{
name = I;
},
{
name = acute;
transform = "{1, 0, 0, 1, 150, 170}";
}
);
layerId = "DEFEBCF2-9FF2-4B76-ADC8-AB6BD79F23E7";
width = 536;
},
{
background = {
anchors = (
{
name = ogonek;
position = "{369, 10}";
},
{
name = top;
position = "{287, 670}";
}
);
paths = (
{
closed = 1;
nodes = (
"193 670 LINE",
"193 0 LINE",
"380 0 LINE",
"380 670 LINE"
);
},
{
closed = 1;
nodes = (
"70 155 LINE",
"70 0 LINE",
"503 0 LINE",
"503 155 LINE"
);
},
{
closed = 1;
nodes = (
"70 670 LINE",
"70 515 LINE",
"503 515 LINE",
"503 670 LINE"
);
},
{
closed = 1;
nodes = (
"303 870 LINE",
"203 720 LINE",
"325 720 LINE",
"457 870 LINE"
);
}
);
};
components = (
{
name = I;
},
{
name = acute;
transform = "{1, 0, 0, 1, 123, 160}";
}
);
layerId = "2D992F1A-8218-4049-8E15-5955C72037C9";
width = 573;
}
);
unicode = 00CD;
},
{
color = 4;
glyphname = Icircumflex;
layers = (
{
background = {
anchors = (
{
name = ogonek;
position = "{320, 10}";
},
{
name = top;
position = "{272, 670}";
}
);
paths = (
{
closed = 1;
nodes = (
"223 670 LINE",
"223 0 LINE",
"313 0 LINE",
"313 670 LINE"
);
},
{
closed = 1;
nodes = (
"110 85 LINE",
"110 0 LINE",
"426 0 LINE",
"426 85 LINE"
);
},
{
closed = 1;
nodes = (
"110 670 LINE",
"110 585 LINE",
"426 585 LINE",
"426 670 LINE"
);
},
{
closed = 1;
nodes = (
"250 890 LINE",
"110 751 LINE",
"192 751 LINE",
"272 829 LINE",
"352 751 LINE",
"434 751 LINE",
"294 890 LINE"
);
}
);
};
components = (
{
name = I;
},
{
name = circumflex;
transform = "{1, 0, 0, 1, 30, 170}";
}
);
layerId = "DEFEBCF2-9FF2-4B76-ADC8-AB6BD79F23E7";
width = 536;
},
{
background = {
anchors = (
{
name = ogonek;
position = "{369, 10}";
},
{
name = top;
position = "{287, 670}";
}
);
paths = (
{
closed = 1;
nodes = (
"193 670 LINE",
"193 0 LINE",
"380 0 LINE",
"380 670 LINE"
);
},
{
closed = 1;
nodes = (
"70 155 LINE",
"70 0 LINE",
"503 0 LINE",
"503 155 LINE"
);
},
{
closed = 1;
nodes = (
"70 670 LINE",
"70 515 LINE",
"503 515 LINE",
"503 670 LINE"
);
},
{
closed = 1;
nodes = (
"235 870 LINE",
"115 720 LINE",
"247 720 LINE",
"287 779 LINE",
"327 720 LINE",
"459 720 LINE",
"339 870 LINE"
);
}
);
};
components = (
{
name = I;
},
{
name = circumflex;
transform = "{1, 0, 0, 1, 35, 160}";
}
);
layerId = "2D992F1A-8218-4049-8E15-5955C72037C9";
width = 573;
}
);
unicode = 00CE;
},
{
color = 4;
glyphname = Idieresis;
layers = (
{
background = {
anchors = (
{
name = ogonek;
position = "{320, 10}";
},
{
name = top;
position = "{272, 670}";
}
);
paths = (
{
closed = 1;
nodes = (
"223 670 LINE",
"223 0 LINE",
"313 0 LINE",
"313 670 LINE"
);
},
{
closed = 1;
nodes = (
"110 85 LINE",
"110 0 LINE",
"426 0 LINE",
"426 85 LINE"
);
},
{
closed = 1;
nodes = (
"110 670 LINE",
"110 585 LINE",
"426 585 LINE",
"426 670 LINE"
);
},
{
closed = 1;
nodes = (
"342 889 OFFCURVE",
"314 861 OFFCURVE",
"314 826 CURVE SMOOTH",
"314 792 OFFCURVE",
"342 763 OFFCURVE",
"377 763 CURVE",
"411 763 OFFCURVE",
"440 792 OFFCURVE",
"440 826 CURVE SMOOTH",
"440 861 OFFCURVE",
"411 889 OFFCURVE",
"377 889 CURVE SMOOTH"
);
},
{
closed = 1;
nodes = (
"132 889 OFFCURVE",
"104 861 OFFCURVE",
"104 826 CURVE SMOOTH",
"104 792 OFFCURVE",
"132 763 OFFCURVE",
"167 763 CURVE",
"201 763 OFFCURVE",
"230 792 OFFCURVE",
"230 826 CURVE SMOOTH",
"230 861 OFFCURVE",
"201 889 OFFCURVE",
"167 889 CURVE SMOOTH"
);
}
);
};
components = (
{
name = I;
},
{
name = dieresis;
transform = "{1, 0, 0, 1, 24, 170}";
}
);
layerId = "DEFEBCF2-9FF2-4B76-ADC8-AB6BD79F23E7";
width = 536;
},
{
background = {
anchors = (
{
name = ogonek;
position = "{369, 10}";
},
{
name = top;
position = "{287, 670}";
}
);
paths = (
{
closed = 1;
nodes = (
"193 670 LINE",
"193 0 LINE",
"380 0 LINE",
"380 670 LINE"
);
},
{
closed = 1;
nodes = (
"70 155 LINE",
"70 0 LINE",
"503 0 LINE",
"503 155 LINE"
);
},
{
closed = 1;
nodes = (
"70 670 LINE",
"70 515 LINE",
"503 515 LINE",
"503 670 LINE"
);
},
{
closed = 1;
nodes = (
"350 885 OFFCURVE",
"316 851 OFFCURVE",
"316 809 CURVE SMOOTH",
"316 768 OFFCURVE",
"350 733 OFFCURVE",
"392 733 CURVE",
"433 733 OFFCURVE",
"468 768 OFFCURVE",
"468 809 CURVE SMOOTH",
"468 851 OFFCURVE",
"433 885 OFFCURVE",
"392 885 CURVE SMOOTH"
);
},
{
closed = 1;
nodes = (
"140 885 OFFCURVE",
"106 851 OFFCURVE",
"106 809 CURVE SMOOTH",
"106 768 OFFCURVE",
"140 733 OFFCURVE",
"182 733 CURVE",
"223 733 OFFCURVE",
"258 768 OFFCURVE",
"258 809 CURVE SMOOTH",
"258 851 OFFCURVE",
"223 885 OFFCURVE",
"182 885 CURVE SMOOTH"
);
}
);
};
components = (
{
name = I;
},
{
name = dieresis;
transform = "{1, 0, 0, 1, 20, 160}";
}
);
layerId = "2D992F1A-8218-4049-8E15-5955C72037C9";
width = 573;
}
);
unicode = 00CF;
},
{
color = 4;
glyphname = Igrave;
layers = (
{
background = {
anchors = (
{
name = ogonek;
position = "{320, 10}";
},
{
name = top;
position = "{272, 670}";
}
);
paths = (
{
closed = 1;
nodes = (
"223 670 LINE",
"223 0 LINE",
"313 0 LINE",
"313 670 LINE"
);
},
{
closed = 1;
nodes = (
"110 85 LINE",
"110 0 LINE",
"426 0 LINE",
"426 85 LINE"
);
},
{
closed = 1;
nodes = (
"110 670 LINE",
"110 585 LINE",
"426 585 LINE",
"426 670 LINE"
);
},
{
closed = 1;
nodes = (
"235 755 LINE",
"317 755 LINE",
"207 890 LINE",
"93 890 LINE"
);
}
);
};
components = (
{
name = I;
},
{
name = grave;
transform = "{1, 0, 0, 1, 74, 170}";
}
);
layerId = "DEFEBCF2-9FF2-4B76-ADC8-AB6BD79F23E7";
width = 536;
},
{
background = {
anchors = (
{
name = ogonek;
position = "{369, 10}";
},
{
name = top;
position = "{287, 670}";
}
);
paths = (
{
closed = 1;
nodes = (
"193 670 LINE",
"193 0 LINE",
"380 0 LINE",
"380 670 LINE"
);
},
{
closed = 1;
nodes = (
"70 155 LINE",
"70 0 LINE",
"503 0 LINE",
"503 155 LINE"
);
},
{
closed = 1;
nodes = (
"70 670 LINE",
"70 515 LINE",
"503 515 LINE",
"503 670 LINE"
);
},
{
closed = 1;
nodes = (
"97 870 LINE",
"229 720 LINE",
"351 720 LINE",
"251 870 LINE"
);
}
);
};
components = (
{
name = I;
},
{
name = grave;
transform = "{1, 0, 0, 1, 17, 160}";
}
);
layerId = "2D992F1A-8218-4049-8E15-5955C72037C9";
width = 573;
}
);
unicode = 00CC;
},
{
color = 4;
glyphname = Imacron;
layers = (
{
background = {
anchors = (
{
name = ogonek;
position = "{320, 10}";
},
{
name = top;
position = "{272, 670}";
}
);
paths = (
{
closed = 1;
nodes = (
"223 670 LINE",
"223 0 LINE",
"313 0 LINE",
"313 670 LINE"
);
},
{
closed = 1;
nodes = (
"110 85 LINE",
"110 0 LINE",
"426 0 LINE",
"426 85 LINE"
);
},
{
closed = 1;
nodes = (
"110 670 LINE",
"110 585 LINE",
"426 585 LINE",
"426 670 LINE"
);
},
{
closed = 1;
nodes = (
"97 888 LINE",
"97 808 LINE",
"447 808 LINE",
"447 888 LINE"
);
}
);
};
components = (
{
name = I;
},
{
name = macron;
transform = "{1, 0, 0, 1, 7, 170}";
}
);
layerId = "DEFEBCF2-9FF2-4B76-ADC8-AB6BD79F23E7";
width = 536;
},
{
background = {
anchors = (
{
name = ogonek;
position = "{369, 10}";
},
{
name = top;
position = "{287, 670}";
}
);
paths = (
{
closed = 1;
nodes = (
"193 670 LINE",
"193 0 LINE",
"380 0 LINE",
"380 670 LINE"
);
},
{
closed = 1;
nodes = (
"70 155 LINE",
"70 0 LINE",
"503 0 LINE",
"503 155 LINE"
);
},
{
closed = 1;
nodes = (
"70 670 LINE",
"70 515 LINE",
"503 515 LINE",
"503 670 LINE"
);
},
{
closed = 1;
nodes = (
"102 870 LINE",
"102 760 LINE",
"472 760 LINE",
"472 870 LINE"
);
}
);
};
components = (
{
name = I;
},
{
name = macron;
transform = "{1, 0, 0, 1, 2, 160}";
}
);
layerId = "2D992F1A-8218-4049-8E15-5955C72037C9";
width = 573;
}
);
unicode = 012A;
},
{
color = 4;
glyphname = Iogonek;
layers = (
{
background = {
anchors = (
{
name = ogonek;
position = "{320, 10}";
},
{
name = top;
position = "{272, 670}";
}
);
paths = (
{
closed = 1;
nodes = (
"223 670 LINE",
"223 0 LINE",
"313 0 LINE",
"313 670 LINE"
);
},
{
closed = 1;
nodes = (
"110 85 LINE",
"110 0 LINE",
"426 0 LINE",
"426 85 LINE"
);
},
{
closed = 1;
nodes = (
"110 670 LINE",
"110 585 LINE",
"426 585 LINE",
"426 670 LINE"
);
},
{
closed = 1;
nodes = (
"198 -12 OFFCURVE",
"124 -56 OFFCURVE",
"124 -126 CURVE SMOOTH",
"124 -192 OFFCURVE",
"181 -225 OFFCURVE",
"241 -225 CURVE SMOOTH",
"277 -225 OFFCURVE",
"301 -207 OFFCURVE",
"315 -200 CURVE",
"315 -131 LINE",
"300 -141 OFFCURVE",
"284 -149 OFFCURVE",
"261 -149 CURVE SMOOTH",
"226 -149 OFFCURVE",
"208 -126 OFFCURVE",
"208 -98 CURVE SMOOTH",
"208 -54 OFFCURVE",
"268 -18 OFFCURVE",
"315 1 CURVE",
"235 1 LINE"
);
}
);
};
components = (
{
name = I;
},
{
name = ogonek;
transform = "{1, 0, 0, 1, -59, 0}";
}
);
layerId = "DEFEBCF2-9FF2-4B76-ADC8-AB6BD79F23E7";
width = 536;
},
{
background = {
anchors = (
{
name = ogonek;
position = "{369, 10}";
},
{
name = top;
position = "{287, 670}";
}
);
paths = (
{
closed = 1;
nodes = (
"193 670 LINE",
"193 0 LINE",
"380 0 LINE",
"380 670 LINE"
);
},
{
closed = 1;
nodes = (
"70 155 LINE",
"70 0 LINE",
"503 0 LINE",
"503 155 LINE"
);
},
{
closed = 1;
nodes = (
"70 670 LINE",
"70 515 LINE",
"503 515 LINE",
"503 670 LINE"
);
},
{
closed = 1;
nodes = (
"172 -13 OFFCURVE",
"112 -56 OFFCURVE",
"112 -126 CURVE SMOOTH",
"112 -192 OFFCURVE",
"179 -225 OFFCURVE",
"239 -225 CURVE SMOOTH",
"295 -225 OFFCURVE",
"339 -210 OFFCURVE",
"353 -203 CURVE",
"353 -90 LINE",
"338 -100 OFFCURVE",
"322 -108 OFFCURVE",
"299 -108 CURVE SMOOTH",
"278 -108 OFFCURVE",
"263 -94 OFFCURVE",
"263 -73 CURVE SMOOTH",
"263 -51 OFFCURVE",
"310 -13 OFFCURVE",
"369 1 CURVE",
"229 1 LINE"
);
}
);
};
components = (
{
name = I;
},
{
name = ogonek;
transform = "{1, 0, 0, 1, -21, 0}";
}
);
layerId = "2D992F1A-8218-4049-8E15-5955C72037C9";
width = 573;
}
);
unicode = 012E;
},
{
color = 4;
glyphname = J;
layers = (
{
background = {
paths = (
{
closed = 1;
nodes = (
"115 672 LINE",
"115 16 LINE SMOOTH",
"115 -65 OFFCURVE",
"59 -127 OFFCURVE",
"-55 -168 CURVE",
"-11 -255 LINE",
"114 -210 OFFCURVE",
"205 -136 OFFCURVE",
"205 34 CURVE SMOOTH",
"205 672 LINE"
);
}
);
};
layerId = "DEFEBCF2-9FF2-4B76-ADC8-AB6BD79F23E7";
rightMetricsKey = "=|L";
paths = (
{
closed = 1;
nodes = (
"114 -210 OFFCURVE",
"205 -136 OFFCURVE",
"205 34 CURVE SMOOTH",
"205 672 LINE",
"115 672 LINE",
"115 16 LINE SMOOTH",
"115 -65 OFFCURVE",
"59 -127 OFFCURVE",
"-55 -168 CURVE",
"-11 -255 LINE"
);
}
);
width = 315;
},
{
background = {
paths = (
{
closed = 1;
nodes = (
"117 672 LINE",
"117 54 LINE SMOOTH",
"117 -23 OFFCURVE",
"67 -72 OFFCURVE",
"-30 -93 CURVE",
"32 -255 LINE",
"193 -222 OFFCURVE",
"304 -120 OFFCURVE",
"304 47 CURVE SMOOTH",
"304 672 LINE"
);
}
);
};
layerId = "2D992F1A-8218-4049-8E15-5955C72037C9";
rightMetricsKey = "=|L-10";
paths = (
{
closed = 1;
nodes = (
"193 -222 OFFCURVE",
"304 -120 OFFCURVE",
"304 47 CURVE SMOOTH",
"304 672 LINE",
"117 672 LINE",
"117 54 LINE SMOOTH",
"117 -23 OFFCURVE",
"67 -72 OFFCURVE",
"-30 -93 CURVE",
"32 -255 LINE"
);
}
);
width = 374;
}
);
rightMetricsKey = "=I";
unicode = 004A;
},
{
color = 4;
glyphname = K;
layers = (
{
anchors = (
{
name = bottom;
position = "{336, 0}";
},
{
name = top;
position = "{336, 670}";
}
);
background = {
anchors = (
{
name = bottom;
position = "{336, 0}";
},
{
name = top;
position = "{336, 670}";
}
);
paths = (
{
closed = 1;
nodes = (
"516 670 LINE",
"139 268 LINE",
"168 190 LINE",
"632 670 LINE"
);
},
{
closed = 1;
nodes = (
"110 670 LINE",
"110 0 LINE",
"200 0 LINE",
"200 670 LINE"
);
},
{
closed = 1;
nodes = (
"251 329 LINE",
"537 0 LINE",
"662 0 LINE",
"319 398 LINE"
);
}
);
};
layerId = "DEFEBCF2-9FF2-4B76-ADC8-AB6BD79F23E7";
leftMetricsKey = "=L";
rightMetricsKey = "=V";
paths = (
{
closed = 1;
nodes = (
"632 670 LINE",
"516 670 LINE",
"139 268 LINE",
"168 190 LINE"
);
},
{
closed = 1;
nodes = (
"200 0 LINE",
"200 670 LINE",
"110 670 LINE",
"110 0 LINE"
);
},
{
closed = 1;
nodes = (
"662 0 LINE",
"319 398 LINE",
"251 329 LINE",
"537 0 LINE"
);
}
);
width = 672;
},
{
anchors = (
{
name = bottom;
position = "{379, 0}";
},
{
name = top;
position = "{379, 670}";
}
);
background = {
anchors = (
{
name = bottom;
position = "{379, 0}";
},
{
name = top;
position = "{379, 670}";
}
);
paths = (
{
closed = 1;
nodes = (
"467 670 LINE",
"129 268 LINE",
"248 181 LINE",
"682 670 LINE"
);
},
{
closed = 1;
nodes = (
"80 670 LINE",
"80 0 LINE",
"267 0 LINE",
"267 670 LINE"
);
},
{
closed = 1;
nodes = (
"231 330 LINE",
"465 0 LINE",
"695 0 LINE",
"377 429 LINE"
);
}
);
};
layerId = "2D992F1A-8218-4049-8E15-5955C72037C9";
leftMetricsKey = "=L";
rightMetricsKey = "=L-45";
paths = (
{
closed = 1;
nodes = (
"682 670 LINE",
"467 670 LINE",
"129 268 LINE",
"248 181 LINE"
);
},
{
closed = 1;
nodes = (
"267 0 LINE",
"267 670 LINE",
"80 670 LINE",
"80 0 LINE"
);
},
{
closed = 1;
nodes = (
"695 0 LINE",
"377 429 LINE",
"231 330 LINE",
"465 0 LINE"
);
}
);
width = 710;
}
);
leftMetricsKey = "=I";
rightMetricsKey = "=L";
unicode = 004B;
},
{
color = 4;
glyphname = Kcommaaccent;
layers = (
{
background = {
anchors = (
{
name = bottom;
position = "{336, 0}";
},
{
name = top;
position = "{336, 670}";
}
);
paths = (
{
closed = 1;
nodes = (
"516 670 LINE",
"139 268 LINE",
"168 190 LINE",
"632 670 LINE"
);
},
{
closed = 1;
nodes = (
"110 670 LINE",
"110 0 LINE",
"200 0 LINE",
"200 670 LINE"
);
},
{
closed = 1;
nodes = (
"251 329 LINE",
"537 0 LINE",
"662 0 LINE",
"319 398 LINE"
);
},
{
closed = 1;
nodes = (
"302 -70 LINE",
"327 -70 OFFCURVE",
"356 -88 OFFCURVE",
"356 -119 CURVE SMOOTH",
"356 -151 OFFCURVE",
"334 -173 OFFCURVE",
"298 -173 CURVE SMOOTH",
"278 -173 OFFCURVE",
"260 -168 OFFCURVE",
"244 -155 CURVE",
"244 -207 LINE",
"257 -216 OFFCURVE",
"278 -225 OFFCURVE",
"306 -225 CURVE SMOOTH",
"351 -225 OFFCURVE",
"409 -187 OFFCURVE",
"409 -116 CURVE SMOOTH",
"409 -60 OFFCURVE",
"359 -22 OFFCURVE",
"302 -22 CURVE"
);
}
);
};
components = (
{
name = K;
},
{
name = commaaccent;
transform = "{1, 0, 0, 1, 184, 0}";
}
);
layerId = "DEFEBCF2-9FF2-4B76-ADC8-AB6BD79F23E7";
width = 672;
},
{
background = {
anchors = (
{
name = bottom;
position = "{379, 0}";
},
{
name = top;
position = "{379, 670}";
}
);
paths = (
{
closed = 1;
nodes = (
"467 670 LINE",
"129 268 LINE",
"248 181 LINE",
"682 670 LINE"
);
},
{
closed = 1;
nodes = (
"80 670 LINE",
"80 0 LINE",
"267 0 LINE",
"267 670 LINE"
);
},
{
closed = 1;
nodes = (
"231 330 LINE",
"465 0 LINE",
"695 0 LINE",
"377 429 LINE"
);
},
{
closed = 1;
nodes = (
"342 -101 LINE",
"357 -101 OFFCURVE",
"369 -108 OFFCURVE",
"369 -120 CURVE SMOOTH",
"369 -132 OFFCURVE",
"358 -138 OFFCURVE",
"343 -138 CURVE SMOOTH",
"327 -138 OFFCURVE",
"312 -134 OFFCURVE",
"296 -123 CURVE",
"296 -207 LINE",
"309 -216 OFFCURVE",
"327 -225 OFFCURVE",
"349 -225 CURVE SMOOTH",
"402 -225 OFFCURVE",
"452 -190 OFFCURVE",
"452 -119 CURVE SMOOTH",
"452 -54 OFFCURVE",
"399 -22 OFFCURVE",
"342 -22 CURVE"
);
}
);
};
components = (
{
name = K;
},
{
name = commaaccent;
transform = "{1, 0, 0, 1, 227, 0}";
}
);
layerId = "2D992F1A-8218-4049-8E15-5955C72037C9";
width = 710;
}
);
unicode = 0136;
},
{
color = 4;
glyphname = L;
layers = (
{
anchors = (
{
name = bottom;
position = "{326, 0}";
},
{
name = top;
position = "{171, 670}";
},
{
name = topright;
position = "{596, 670}";
}
);
background = {
anchors = (
{
name = bottom;
position = "{326, 0}";
},
{
name = top;
position = "{171, 670}";
},
{
name = topright;
position = "{596, 670}";
}
);
paths = (
{
closed = 1;
nodes = (
"110 670 LINE",
"110 0 LINE",
"569 0 LINE",
"569 85 LINE",
"200 85 LINE",
"200 670 LINE"
);
}
);
};
layerId = "DEFEBCF2-9FF2-4B76-ADC8-AB6BD79F23E7";
paths = (
{
closed = 1;
nodes = (
"569 0 LINE",
"569 85 LINE",
"200 85 LINE",
"200 670 LINE",
"110 670 LINE",
"110 0 LINE"
);
}
);
width = 614;
},
{
anchors = (
{
name = bottom;
position = "{309, 0}";
},
{
name = top;
position = "{238, 670}";
},
{
name = topright;
position = "{588, 670}";
}
);
background = {
anchors = (
{
name = bottom;
position = "{309, 0}";
},
{
name = top;
position = "{238, 670}";
},
{
name = topright;
position = "{588, 670}";
}
);
paths = (
{
closed = 1;
nodes = (
"80 670 LINE",
"80 0 LINE",
"558 0 LINE",
"558 165 LINE",
"267 165 LINE",
"267 670 LINE"
);
}
);
};
layerId = "2D992F1A-8218-4049-8E15-5955C72037C9";
paths = (
{
closed = 1;
nodes = (
"558 0 LINE",
"558 165 LINE",
"267 165 LINE",
"267 670 LINE",
"80 670 LINE",
"80 0 LINE"
);
}
);
width = 618;
}
);
unicode = 004C;
},
{
color = 4;
glyphname = Lacute;
layers = (
{
background = {
anchors = (
{
name = bottom;
position = "{326, 0}";
},
{
name = top;
position = "{171, 670}";
},
{
name = topright;
position = "{596, 670}";
}
);
paths = (
{
closed = 1;
nodes = (
"110 670 LINE",
"110 0 LINE",
"569 0 LINE",
"569 85 LINE",
"200 85 LINE",
"200 670 LINE"
);
},
{
closed = 1;
nodes = (
"229 890 LINE",
"119 755 LINE",
"201 755 LINE",
"343 890 LINE"
);
}
);
};
components = (
{
name = L;
},
{
name = acute;
transform = "{1, 0, 0, 1, 49, 170}";
}
);
layerId = "DEFEBCF2-9FF2-4B76-ADC8-AB6BD79F23E7";
width = 614;
},
{
background = {
anchors = (
{
name = bottom;
position = "{309, 0}";
},
{
name = top;
position = "{238, 670}";
},
{
name = topright;
position = "{588, 670}";
}
);
paths = (
{
closed = 1;
nodes = (
"80 670 LINE",
"80 0 LINE",
"558 0 LINE",
"558 165 LINE",
"267 165 LINE",
"267 670 LINE"
);
},
{
closed = 1;
nodes = (
"254 870 LINE",
"154 720 LINE",
"276 720 LINE",
"408 870 LINE"
);
}
);
};
components = (
{
name = L;
},
{
name = acute;
transform = "{1, 0, 0, 1, 74, 160}";
}
);
layerId = "2D992F1A-8218-4049-8E15-5955C72037C9";
width = 618;
}
);
unicode = 0139;
},
{
color = 4;
glyphname = Lcaron;
layers = (
{
background = {
anchors = (
{
name = bottom;
position = "{326, 0}";
},
{
name = top;
position = "{171, 670}";
},
{
name = topright;
position = "{596, 670}";
}
);
paths = (
{
closed = 1;
nodes = (
"265 530 LINE",
"332 530 LINE",
"362 718 LINE",
"275 718 LINE"
);
},
{
closed = 1;
nodes = (
"110 670 LINE",
"110 0 LINE",
"569 0 LINE",
"569 85 LINE",
"200 85 LINE",
"200 670 LINE"
);
}
);
};
components = (
{
name = L;
}
);
layerId = "DEFEBCF2-9FF2-4B76-ADC8-AB6BD79F23E7";
paths = (
{
closed = 1;
nodes = (
"332 530 LINE",
"362 718 LINE",
"275 718 LINE",
"265 530 LINE"
);
}
);
width = 581;
},
{
background = {
anchors = (
{
name = bottom;
position = "{309, 0}";
},
{
name = top;
position = "{238, 670}";
},
{
name = topright;
position = "{588, 670}";
}
);
paths = (
{
closed = 1;
nodes = (
"325 530 LINE",
"447 530 LINE",
"477 718 LINE",
"335 718 LINE"
);
},
{
closed = 1;
nodes = (
"80 670 LINE",
"80 0 LINE",
"558 0 LINE",
"558 165 LINE",
"267 165 LINE",
"267 670 LINE"
);
}
);
};
components = (
{
name = L;
}
);
layerId = "2D992F1A-8218-4049-8E15-5955C72037C9";
paths = (
{
closed = 1;
nodes = (
"447 530 LINE",
"477 718 LINE",
"335 718 LINE",
"325 530 LINE"
);
}
);
width = 598;
}
);
unicode = 013D;
},
{
color = 4;
glyphname = Lcommaaccent;
layers = (
{
background = {
anchors = (
{
name = bottom;
position = "{326, 0}";
},
{
name = top;
position = "{171, 670}";
},
{
name = topright;
position = "{596, 670}";
}
);
paths = (
{
closed = 1;
nodes = (
"110 670 LINE",
"110 0 LINE",
"569 0 LINE",
"569 85 LINE",
"200 85 LINE",
"200 670 LINE"
);
},
{
closed = 1;
nodes = (
"292 -70 LINE",
"317 -70 OFFCURVE",
"346 -88 OFFCURVE",
"346 -119 CURVE SMOOTH",
"346 -151 OFFCURVE",
"324 -173 OFFCURVE",
"288 -173 CURVE SMOOTH",
"268 -173 OFFCURVE",
"250 -168 OFFCURVE",
"234 -155 CURVE",
"234 -207 LINE",
"247 -216 OFFCURVE",
"268 -225 OFFCURVE",
"296 -225 CURVE SMOOTH",
"341 -225 OFFCURVE",
"399 -187 OFFCURVE",
"399 -116 CURVE SMOOTH",
"399 -60 OFFCURVE",
"349 -22 OFFCURVE",
"292 -22 CURVE"
);
}
);
};
components = (
{
name = L;
},
{
name = commaaccent;
transform = "{1, 0, 0, 1, 174, 0}";
}
);
layerId = "DEFEBCF2-9FF2-4B76-ADC8-AB6BD79F23E7";
width = 614;
},
{
background = {
anchors = (
{
name = bottom;
position = "{309, 0}";
},
{
name = top;
position = "{238, 670}";
},
{
name = topright;
position = "{588, 670}";
}
);
paths = (
{
closed = 1;
nodes = (
"80 670 LINE",
"80 0 LINE",
"558 0 LINE",
"558 165 LINE",
"267 165 LINE",
"267 670 LINE"
);
},
{
closed = 1;
nodes = (
"272 -101 LINE",
"287 -101 OFFCURVE",
"299 -108 OFFCURVE",
"299 -120 CURVE SMOOTH",
"299 -132 OFFCURVE",
"288 -138 OFFCURVE",
"273 -138 CURVE SMOOTH",
"257 -138 OFFCURVE",
"242 -134 OFFCURVE",
"226 -123 CURVE",
"226 -207 LINE",
"239 -216 OFFCURVE",
"257 -225 OFFCURVE",
"279 -225 CURVE SMOOTH",
"332 -225 OFFCURVE",
"382 -190 OFFCURVE",
"382 -119 CURVE SMOOTH",
"382 -54 OFFCURVE",
"329 -22 OFFCURVE",
"272 -22 CURVE"
);
}
);
};
components = (
{
name = L;
},
{
name = commaaccent;
transform = "{1, 0, 0, 1, 157, 0}";
}
);
layerId = "2D992F1A-8218-4049-8E15-5955C72037C9";
width = 618;
}
);
unicode = 013B;
},
{
color = 4;
glyphname = Ldot;
layers = (
{
background = {
anchors = (
{
name = bottom;
position = "{326, 0}";
},
{
name = top;
position = "{171, 670}";
},
{
name = topright;
position = "{596, 670}";
}
);
paths = (
{
closed = 1;
nodes = (
"110 670 LINE",
"110 0 LINE",
"569 0 LINE",
"569 85 LINE",
"200 85 LINE",
"200 670 LINE"
);
},
{
closed = 1;
nodes = (
"370 462 OFFCURVE",
"339 431 OFFCURVE",
"339 392 CURVE SMOOTH",
"339 354 OFFCURVE",
"370 322 OFFCURVE",
"409 322 CURVE SMOOTH",
"447 322 OFFCURVE",
"479 354 OFFCURVE",
"479 392 CURVE SMOOTH",
"479 431 OFFCURVE",
"447 462 OFFCURVE",
"409 462 CURVE SMOOTH"
);
}
);
};
components = (
{
alignment = -1;
name = L;
},
{
alignment = -1;
name = periodcentered;
transform = "{1, 0, 0, 1, 259, 59}";
}
);
layerId = "DEFEBCF2-9FF2-4B76-ADC8-AB6BD79F23E7";
width = 588;
},
{
background = {
anchors = (
{
name = bottom;
position = "{309, 0}";
},
{
name = top;
position = "{238, 670}";
},
{
name = topright;
position = "{588, 670}";
}
);
paths = (
{
closed = 1;
nodes = (
"80 670 LINE",
"80 0 LINE",
"558 0 LINE",
"558 165 LINE",
"267 165 LINE",
"267 670 LINE"
);
},
{
closed = 1;
nodes = (
"379 501 OFFCURVE",
"339 461 OFFCURVE",
"339 411 CURVE SMOOTH",
"339 362 OFFCURVE",
"379 321 OFFCURVE",
"429 321 CURVE SMOOTH",
"478 321 OFFCURVE",
"519 362 OFFCURVE",
"519 411 CURVE SMOOTH",
"519 461 OFFCURVE",
"478 501 OFFCURVE",
"429 501 CURVE SMOOTH"
);
}
);
};
components = (
{
alignment = -1;
name = L;
},
{
alignment = -1;
name = periodcentered;
transform = "{1, 0, 0, 1, 259, 59}";
}
);
layerId = "2D992F1A-8218-4049-8E15-5955C72037C9";
width = 600;
}
);
unicode = 013F;
},
{
color = 4;
glyphname = Lslash;
layers = (
{
background = {
anchors = (
{
name = bottom;
position = "{326, 0}";
},
{
name = top;
position = "{171, 670}";
},
{
name = topright;
position = "{596, 670}";
}
);
paths = (
{
closed = 1;
nodes = (
"10 309 LINE",
"10 233 LINE",
"291 441 LINE",
"291 517 LINE"
);
},
{
closed = 1;
nodes = (
"110 670 LINE",
"110 0 LINE",
"569 0 LINE",
"569 85 LINE",
"200 85 LINE",
"200 670 LINE"
);
}
);
};
components = (
{
name = L;
}
);
layerId = "DEFEBCF2-9FF2-4B76-ADC8-AB6BD79F23E7";
rightMetricsKey = "=L";
paths = (
{
closed = 1;
nodes = (
"291 441 LINE",
"291 517 LINE",
"10 309 LINE",
"10 233 LINE"
);
}
);
width = 614;
},
{
background = {
anchors = (
{
name = bottom;
position = "{309, 0}";
},
{
name = top;
position = "{238, 670}";
},
{
name = topright;
position = "{588, 670}";
}
);
paths = (
{
closed = 1;
nodes = (
"10 329 LINE",
"10 173 LINE",
"361 391 LINE",
"361 547 LINE"
);
},
{
closed = 1;
nodes = (
"80 670 LINE",
"80 0 LINE",
"558 0 LINE",
"558 165 LINE",
"267 165 LINE",
"267 670 LINE"
);
}
);
};
components = (
{
name = L;
}
);
layerId = "2D992F1A-8218-4049-8E15-5955C72037C9";
paths = (
{
closed = 1;
nodes = (
"361 391 LINE",
"361 547 LINE",
"10 329 LINE",
"10 173 LINE"
);
}
);
width = 598;
}
);
rightMetricsKey = "=auto";
unicode = 0141;
},
{
color = 4;
glyphname = M;
layers = (
{
background = {
paths = (
{
closed = 1;
nodes = (
"705 670 LINE",
"424 363 LINE",
"138 670 LINE",
"110 670 LINE",
"110 0 LINE",
"200 0 LINE",
"200 485 LINE",
"412 264 LINE",
"436 264 LINE",
"643 485 LINE",
"643 0 LINE",
"733 0 LINE",
"733 670 LINE"
);
}
);
};
layerId = "DEFEBCF2-9FF2-4B76-ADC8-AB6BD79F23E7";
leftMetricsKey = "=L";
rightMetricsKey = "=|L";
paths = (
{
closed = 1;
nodes = (
"200 0 LINE",
"200 485 LINE",
"412 264 LINE",
"436 264 LINE",
"643 485 LINE",
"643 0 LINE",
"733 0 LINE",
"733 670 LINE",
"705 670 LINE",
"424 363 LINE",
"138 670 LINE",
"110 670 LINE",
"110 0 LINE"
);
}
);
width = 843;
},
{
background = {
paths = (
{
closed = 1;
nodes = (
"718 680 LINE",
"432 390 LINE",
"146 680 LINE",
"80 680 LINE",
"80 0 LINE",
"267 0 LINE",
"267 330 LINE",
"404 175 LINE",
"460 175 LINE",
"597 330 LINE",
"597 0 LINE",
"784 0 LINE",
"784 680 LINE"
);
}
);
};
layerId = "2D992F1A-8218-4049-8E15-5955C72037C9";
paths = (
{
closed = 1;
nodes = (
"267 0 LINE",
"267 330 LINE",
"404 175 LINE",
"460 175 LINE",
"597 330 LINE",
"597 0 LINE",
"784 0 LINE",
"784 680 LINE",
"718 680 LINE",
"432 390 LINE",
"146 680 LINE",
"80 680 LINE",
"80 0 LINE"
);
}
);
width = 864;
}
);
leftMetricsKey = "=L";
rightMetricsKey = "=|L";
unicode = 004D;
},
{
color = 4;
glyphname = N;
layers = (
{
anchors = (
{
name = bottom;
position = "{389, 0}";
},
{
name = top;
position = "{387, 670}";
}
);
background = {
anchors = (
{
name = bottom;
position = "{389, 0}";
},
{
name = top;
position = "{387, 670}";
}
);
paths = (
{
closed = 1;
nodes = (
"579 670 LINE",
"579 185 LINE",
"144 670 LINE",
"110 670 LINE",
"110 0 LINE",
"200 0 LINE",
"200 479 LINE",
"635 0 LINE",
"669 0 LINE",
"669 670 LINE"
);
}
);
};
layerId = "DEFEBCF2-9FF2-4B76-ADC8-AB6BD79F23E7";
leftMetricsKey = "=L";
rightMetricsKey = "=|L";
paths = (
{
closed = 1;
nodes = (
"200 0 LINE",
"200 479 LINE",
"635 0 LINE",
"669 0 LINE",
"669 670 LINE",
"579 670 LINE",
"579 185 LINE",
"144 670 LINE",
"110 670 LINE",
"110 0 LINE"
);
}
);
width = 779;
},
{
anchors = (
{
name = bottom;
position = "{386, 0}";
},
{
name = top;
position = "{386, 670}";
}
);
background = {
anchors = (
{
name = bottom;
position = "{386, 0}";
},
{
name = top;
position = "{386, 670}";
}
);
paths = (
{
closed = 1;
nodes = (
"505 670 LINE",
"505 345 LINE",
"146 680 LINE",
"80 680 LINE",
"80 0 LINE",
"267 0 LINE",
"267 319 LINE",
"626 -10 LINE",
"692 -10 LINE",
"692 670 LINE"
);
}
);
};
layerId = "2D992F1A-8218-4049-8E15-5955C72037C9";
leftMetricsKey = "=L";
rightMetricsKey = "=|L";
paths = (
{
closed = 1;
nodes = (
"692 -10 LINE",
"692 670 LINE",
"505 670 LINE",
"505 345 LINE",
"146 680 LINE",
"80 680 LINE",
"80 0 LINE",
"267 0 LINE",
"267 319 LINE",
"626 -10 LINE"
);
}
);
width = 772;
}
);
leftMetricsKey = "=I";
rightMetricsKey = "=I";
unicode = 004E;
},
{
color = 4;
glyphname = Nacute;
layers = (
{
background = {
anchors = (
{
name = bottom;
position = "{389, 0}";
},
{
name = top;
position = "{387, 670}";
}
);
paths = (
{
closed = 1;
nodes = (
"579 670 LINE",
"579 185 LINE",
"144 670 LINE",
"110 670 LINE",
"110 0 LINE",
"200 0 LINE",
"200 479 LINE",
"635 0 LINE",
"669 0 LINE",
"669 670 LINE"
);
},
{
closed = 1;
nodes = (
"445 890 LINE",
"335 755 LINE",
"417 755 LINE",
"559 890 LINE"
);
}
);
};
components = (
{
name = N;
},
{
name = acute;
transform = "{1, 0, 0, 1, 265, 170}";
}
);
layerId = "DEFEBCF2-9FF2-4B76-ADC8-AB6BD79F23E7";
width = 779;
},
{
background = {
anchors = (
{
name = bottom;
position = "{386, 0}";
},
{
name = top;
position = "{386, 670}";
}
);
paths = (
{
closed = 1;
nodes = (
"505 670 LINE",
"505 345 LINE",
"146 680 LINE",
"80 680 LINE",
"80 0 LINE",
"267 0 LINE",
"267 319 LINE",
"626 -10 LINE",
"692 -10 LINE",
"692 670 LINE"
);
},
{
closed = 1;
nodes = (
"402 870 LINE",
"302 720 LINE",
"424 720 LINE",
"556 870 LINE"
);
}
);
};
components = (
{
name = N;
},
{
name = acute;
transform = "{1, 0, 0, 1, 222, 160}";
}
);
layerId = "2D992F1A-8218-4049-8E15-5955C72037C9";
width = 772;
}
);
unicode = 0143;
},
{
color = 4;
glyphname = Ncaron;
layers = (
{
background = {
anchors = (
{
name = bottom;
position = "{389, 0}";
},
{
name = top;
position = "{387, 670}";
}
);
paths = (
{
closed = 1;
nodes = (
"579 670 LINE",
"579 185 LINE",
"144 670 LINE",
"110 670 LINE",
"110 0 LINE",
"200 0 LINE",
"200 479 LINE",
"635 0 LINE",
"669 0 LINE",
"669 670 LINE"
);
},
{
closed = 1;
nodes = (
"365 751 LINE",
"409 751 LINE",
"549 890 LINE",
"467 890 LINE",
"387 812 LINE",
"307 890 LINE",
"225 890 LINE"
);
}
);
};
components = (
{
name = N;
},
{
name = caron;
transform = "{1, 0, 0, 1, 145, 170}";
}
);
layerId = "DEFEBCF2-9FF2-4B76-ADC8-AB6BD79F23E7";
width = 779;
},
{
background = {
anchors = (
{
name = bottom;
position = "{386, 0}";
},
{
name = top;
position = "{386, 670}";
}
);
paths = (
{
closed = 1;
nodes = (
"505 670 LINE",
"505 345 LINE",
"146 680 LINE",
"80 680 LINE",
"80 0 LINE",
"267 0 LINE",
"267 319 LINE",
"626 -10 LINE",
"692 -10 LINE",
"692 670 LINE"
);
},
{
closed = 1;
nodes = (
"334 720 LINE",
"438 720 LINE",
"558 870 LINE",
"426 870 LINE",
"386 811 LINE",
"346 870 LINE",
"214 870 LINE"
);
}
);
};
components = (
{
name = N;
},
{
name = caron;
transform = "{1, 0, 0, 1, 154, 160}";
}
);
layerId = "2D992F1A-8218-4049-8E15-5955C72037C9";
width = 772;
}
);
unicode = 0147;
},
{
color = 4;
glyphname = Ncommaaccent;
layers = (
{
background = {
anchors = (
{
name = bottom;
position = "{389, 0}";
},
{
name = top;
position = "{387, 670}";
}
);
paths = (
{
closed = 1;
nodes = (
"579 670 LINE",
"579 185 LINE",
"144 670 LINE",
"110 670 LINE",
"110 0 LINE",
"200 0 LINE",
"200 479 LINE",
"635 0 LINE",
"669 0 LINE",
"669 670 LINE"
);
},
{
closed = 1;
nodes = (
"355 -70 LINE",
"380 -70 OFFCURVE",
"409 -88 OFFCURVE",
"409 -119 CURVE SMOOTH",
"409 -151 OFFCURVE",
"387 -173 OFFCURVE",
"351 -173 CURVE SMOOTH",
"331 -173 OFFCURVE",
"313 -168 OFFCURVE",
"297 -155 CURVE",
"297 -207 LINE",
"310 -216 OFFCURVE",
"331 -225 OFFCURVE",
"359 -225 CURVE SMOOTH",
"404 -225 OFFCURVE",
"462 -187 OFFCURVE",
"462 -116 CURVE SMOOTH",
"462 -60 OFFCURVE",
"412 -22 OFFCURVE",
"355 -22 CURVE"
);
}
);
};
components = (
{
name = N;
},
{
name = commaaccent;
transform = "{1, 0, 0, 1, 237, 0}";
}
);
layerId = "DEFEBCF2-9FF2-4B76-ADC8-AB6BD79F23E7";
width = 779;
},
{
background = {
anchors = (
{
name = bottom;
position = "{386, 0}";
},
{
name = top;
position = "{386, 670}";
}
);
paths = (
{
closed = 1;
nodes = (
"505 670 LINE",
"505 345 LINE",
"146 680 LINE",
"80 680 LINE",
"80 0 LINE",
"267 0 LINE",
"267 319 LINE",
"626 -10 LINE",
"692 -10 LINE",
"692 670 LINE"
);
},
{
closed = 1;
nodes = (
"349 -101 LINE",
"364 -101 OFFCURVE",
"376 -108 OFFCURVE",
"376 -120 CURVE SMOOTH",
"376 -132 OFFCURVE",
"365 -138 OFFCURVE",
"350 -138 CURVE SMOOTH",
"334 -138 OFFCURVE",
"319 -134 OFFCURVE",
"303 -123 CURVE",
"303 -207 LINE",
"316 -216 OFFCURVE",
"334 -225 OFFCURVE",
"356 -225 CURVE SMOOTH",
"409 -225 OFFCURVE",
"459 -190 OFFCURVE",
"459 -119 CURVE SMOOTH",
"459 -54 OFFCURVE",
"406 -22 OFFCURVE",
"349 -22 CURVE"
);
}
);
};
components = (
{
name = N;
},
{
name = commaaccent;
transform = "{1, 0, 0, 1, 234, 0}";
}
);
layerId = "2D992F1A-8218-4049-8E15-5955C72037C9";
width = 772;
}
);
unicode = 0145;
},
{
color = 4;
glyphname = Ntilde;
layers = (
{
background = {
anchors = (
{
name = bottom;
position = "{389, 0}";
},
{
name = top;
position = "{387, 670}";
}
);
paths = (
{
closed = 1;
nodes = (
"579 670 LINE",
"579 185 LINE",
"144 670 LINE",
"110 670 LINE",
"110 0 LINE",
"200 0 LINE",
"200 479 LINE",
"635 0 LINE",
"669 0 LINE",
"669 670 LINE"
);
},
{
closed = 1;
nodes = (
"493 874 LINE",
"493 849 OFFCURVE",
"481 828 OFFCURVE",
"457 828 CURVE SMOOTH",
"415 828 OFFCURVE",
"404 879 OFFCURVE",
"331 879 CURVE SMOOTH",
"271 879 OFFCURVE",
"227 834 OFFCURVE",
"227 776 CURVE",
"295 776 LINE",
"295 801 OFFCURVE",
"308 822 OFFCURVE",
"331 822 CURVE SMOOTH",
"373 822 OFFCURVE",
"384 771 OFFCURVE",
"457 771 CURVE SMOOTH",
"517 771 OFFCURVE",
"561 816 OFFCURVE",
"561 874 CURVE"
);
}
);
};
components = (
{
name = N;
},
{
name = tilde;
transform = "{1, 0, 0, 1, 151, 154}";
}
);
layerId = "DEFEBCF2-9FF2-4B76-ADC8-AB6BD79F23E7";
width = 779;
},
{
background = {
anchors = (
{
name = bottom;
position = "{386, 0}";
},
{
name = top;
position = "{386, 670}";
}
);
paths = (
{
closed = 1;
nodes = (
"505 670 LINE",
"505 345 LINE",
"146 680 LINE",
"80 680 LINE",
"80 0 LINE",
"267 0 LINE",
"267 319 LINE",
"626 -10 LINE",
"692 -10 LINE",
"692 670 LINE"
);
},
{
closed = 1;
nodes = (
"483 845 LINE",
"483 822 OFFCURVE",
"472 808 OFFCURVE",
"450 808 CURVE SMOOTH",
"422 808 OFFCURVE",
"399 849 OFFCURVE",
"333 849 CURVE SMOOTH",
"263 849 OFFCURVE",
"205 803 OFFCURVE",
"205 710 CURVE",
"299 710 LINE",
"299 733 OFFCURVE",
"311 747 OFFCURVE",
"332 747 CURVE SMOOTH",
"360 747 OFFCURVE",
"383 706 OFFCURVE",
"449 706 CURVE SMOOTH",
"519 706 OFFCURVE",
"577 752 OFFCURVE",
"577 845 CURVE"
);
}
);
};
components = (
{
name = N;
},
{
name = tilde;
transform = "{1, 0, 0, 1, 161, 160}";
}
);
layerId = "2D992F1A-8218-4049-8E15-5955C72037C9";
width = 772;
}
);
unicode = 00D1;
},
{
color = 4;
glyphname = Eng;
layers = (
{
anchors = (
{
name = bottom;
position = "{396, 0}";
},
{
name = top;
position = "{396, 670}";
}
);
background = {
anchors = (
{
name = bottom;
position = "{396, 0}";
},
{
name = top;
position = "{396, 670}";
}
);
paths = (
{
closed = 1;
nodes = (
"646 135 LINE",
"146 670 LINE",
"110 670 LINE",
"110 0 LINE",
"207 0 LINE",
"207 469 LINE",
"613 35 LINE"
);
},
{
closed = 1;
nodes = (
"561 672 LINE",
"561 16 LINE SMOOTH",
"561 -65 OFFCURVE",
"505 -127 OFFCURVE",
"391 -168 CURVE",
"435 -255 LINE",
"560 -210 OFFCURVE",
"651 -136 OFFCURVE",
"651 34 CURVE SMOOTH",
"651 672 LINE"
);
}
);
};
components = (
{
alignment = -1;
name = J;
transform = "{1, 0, 0, 1, 446, 0}";
}
);
layerId = "DEFEBCF2-9FF2-4B76-ADC8-AB6BD79F23E7";
paths = (
{
closed = 1;
nodes = (
"207 0 LINE",
"207 469 LINE",
"613 35 LINE",
"646 135 LINE",
"146 670 LINE",
"110 670 LINE",
"110 0 LINE"
);
}
);
width = 761;
},
{
anchors = (
{
name = bottom;
position = "{386, 0}";
},
{
name = top;
position = "{386, 670}";
}
);
background = {
anchors = (
{
name = bottom;
position = "{386, 0}";
},
{
name = top;
position = "{386, 670}";
}
);
paths = (
{
closed = 1;
nodes = (
"624 224 LINE",
"146 680 LINE",
"80 680 LINE",
"80 0 LINE",
"267 0 LINE",
"267 329 LINE",
"561 51 LINE"
);
},
{
closed = 1;
nodes = (
"505 672 LINE",
"505 54 LINE SMOOTH",
"505 -23 OFFCURVE",
"455 -72 OFFCURVE",
"358 -93 CURVE",
"420 -255 LINE",
"581 -222 OFFCURVE",
"692 -120 OFFCURVE",
"692 47 CURVE SMOOTH",
"692 672 LINE"
);
}
);
};
components = (
{
name = J;
transform = "{1, 0, 0, 1, 388, 0}";
}
);
layerId = "2D992F1A-8218-4049-8E15-5955C72037C9";
leftMetricsKey = "=N";
rightMetricsKey = "=J";
paths = (
{
closed = 1;
nodes = (
"267 0 LINE",
"267 329 LINE",
"561 51 LINE",
"624 224 LINE",
"146 680 LINE",
"80 680 LINE",
"80 0 LINE"
);
}
);
width = 762;
}
);
leftMetricsKey = "=N";
rightMetricsKey = "=J";
unicode = 014A;
},
{
color = 4;
glyphname = O;
layers = (
{
anchors = (
{
name = top;
position = "{403, 670}";
}
);
background = {
anchors = (
{
name = top;
position = "{403, 670}";
}
);
paths = (
{
closed = 1;
nodes = (
"201 685 OFFCURVE",
"50 527 OFFCURVE",
"50 335 CURVE SMOOTH",
"50 143 OFFCURVE",
"201 -15 OFFCURVE",
"403 -15 CURVE SMOOTH",
"605 -15 OFFCURVE",
"756 143 OFFCURVE",
"756 335 CURVE SMOOTH",
"756 527 OFFCURVE",
"605 685 OFFCURVE",
"403 685 CURVE SMOOTH"
);
},
{
closed = 1;
nodes = (
"553 597 OFFCURVE",
"664 485 OFFCURVE",
"664 335 CURVE SMOOTH",
"664 185 OFFCURVE",
"553 73 OFFCURVE",
"403 73 CURVE SMOOTH",
"253 73 OFFCURVE",
"142 185 OFFCURVE",
"142 335 CURVE SMOOTH",
"142 485 OFFCURVE",
"253 597 OFFCURVE",
"403 597 CURVE SMOOTH"
);
}
);
};
layerId = "DEFEBCF2-9FF2-4B76-ADC8-AB6BD79F23E7";
paths = (
{
closed = 1;
nodes = (
"605 -15 OFFCURVE",
"756 143 OFFCURVE",
"756 335 CURVE SMOOTH",
"756 527 OFFCURVE",
"605 685 OFFCURVE",
"403 685 CURVE SMOOTH",
"201 685 OFFCURVE",
"50 527 OFFCURVE",
"50 335 CURVE SMOOTH",
"50 143 OFFCURVE",
"201 -15 OFFCURVE",
"403 -15 CURVE SMOOTH"
);
},
{
closed = 1;
nodes = (
"253 73 OFFCURVE",
"142 185 OFFCURVE",
"142 335 CURVE SMOOTH",
"142 485 OFFCURVE",
"253 597 OFFCURVE",
"403 597 CURVE SMOOTH",
"553 597 OFFCURVE",
"664 485 OFFCURVE",
"664 335 CURVE SMOOTH",
"664 185 OFFCURVE",
"553 73 OFFCURVE",
"403 73 CURVE SMOOTH"
);
}
);
width = 806;
},
{
anchors = (
{
name = top;
position = "{388, 670}";
}
);
background = {
anchors = (
{
name = top;
position = "{388, 670}";
}
);
paths = (
{
closed = 1;
nodes = (
"206 685 OFFCURVE",
"40 557 OFFCURVE",
"40 335 CURVE SMOOTH",
"40 113 OFFCURVE",
"206 -15 OFFCURVE",
"388 -15 CURVE SMOOTH",
"570 -15 OFFCURVE",
"736 113 OFFCURVE",
"736 335 CURVE SMOOTH",
"736 557 OFFCURVE",
"570 685 OFFCURVE",
"388 685 CURVE SMOOTH"
);
},
{
closed = 1;
nodes = (
"478 510 OFFCURVE",
"544 435 OFFCURVE",
"544 335 CURVE SMOOTH",
"544 235 OFFCURVE",
"478 160 OFFCURVE",
"388 160 CURVE SMOOTH",
"298 160 OFFCURVE",
"232 235 OFFCURVE",
"232 335 CURVE SMOOTH",
"232 435 OFFCURVE",
"298 510 OFFCURVE",
"388 510 CURVE SMOOTH"
);
}
);
};
layerId = "2D992F1A-8218-4049-8E15-5955C72037C9";
paths = (
{
closed = 1;
nodes = (
"570 -15 OFFCURVE",
"736 113 OFFCURVE",
"736 335 CURVE SMOOTH",
"736 557 OFFCURVE",
"570 685 OFFCURVE",
"388 685 CURVE SMOOTH",
"206 685 OFFCURVE",
"40 557 OFFCURVE",
"40 335 CURVE SMOOTH",
"40 113 OFFCURVE",
"206 -15 OFFCURVE",
"388 -15 CURVE SMOOTH"
);
},
{
closed = 1;
nodes = (
"298 160 OFFCURVE",
"232 235 OFFCURVE",
"232 335 CURVE SMOOTH",
"232 435 OFFCURVE",
"298 510 OFFCURVE",
"388 510 CURVE SMOOTH",
"478 510 OFFCURVE",
"544 435 OFFCURVE",
"544 335 CURVE SMOOTH",
"544 235 OFFCURVE",
"478 160 OFFCURVE",
"388 160 CURVE SMOOTH"
);
}
);
width = 776;
}
);
unicode = 004F;
},
{
color = 4;
glyphname = Oacute;
layers = (
{
background = {
anchors = (
{
name = top;
position = "{403, 670}";
}
);
paths = (
{
closed = 1;
nodes = (
"201 685 OFFCURVE",
"50 527 OFFCURVE",
"50 335 CURVE SMOOTH",
"50 143 OFFCURVE",
"201 -15 OFFCURVE",
"403 -15 CURVE SMOOTH",
"605 -15 OFFCURVE",
"756 143 OFFCURVE",
"756 335 CURVE SMOOTH",
"756 527 OFFCURVE",
"605 685 OFFCURVE",
"403 685 CURVE SMOOTH"
);
},
{
closed = 1;
nodes = (
"553 597 OFFCURVE",
"664 485 OFFCURVE",
"664 335 CURVE SMOOTH",
"664 185 OFFCURVE",
"553 73 OFFCURVE",
"403 73 CURVE SMOOTH",
"253 73 OFFCURVE",
"142 185 OFFCURVE",
"142 335 CURVE SMOOTH",
"142 485 OFFCURVE",
"253 597 OFFCURVE",
"403 597 CURVE SMOOTH"
);
},
{
closed = 1;
nodes = (
"461 890 LINE",
"351 755 LINE",
"433 755 LINE",
"575 890 LINE"
);
}
);
};
components = (
{
name = O;
},
{
name = acute;
transform = "{1, 0, 0, 1, 281, 170}";
}
);
layerId = "DEFEBCF2-9FF2-4B76-ADC8-AB6BD79F23E7";
width = 806;
},
{
background = {
anchors = (
{
name = top;
position = "{388, 670}";
}
);
paths = (
{
closed = 1;
nodes = (
"206 685 OFFCURVE",
"40 557 OFFCURVE",
"40 335 CURVE SMOOTH",
"40 113 OFFCURVE",
"206 -15 OFFCURVE",
"388 -15 CURVE SMOOTH",
"570 -15 OFFCURVE",
"736 113 OFFCURVE",
"736 335 CURVE SMOOTH",
"736 557 OFFCURVE",
"570 685 OFFCURVE",
"388 685 CURVE SMOOTH"
);
},
{
closed = 1;
nodes = (
"478 510 OFFCURVE",
"544 435 OFFCURVE",
"544 335 CURVE SMOOTH",
"544 235 OFFCURVE",
"478 160 OFFCURVE",
"388 160 CURVE SMOOTH",
"298 160 OFFCURVE",
"232 235 OFFCURVE",
"232 335 CURVE SMOOTH",
"232 435 OFFCURVE",
"298 510 OFFCURVE",
"388 510 CURVE SMOOTH"
);
},
{
closed = 1;
nodes = (
"404 870 LINE",
"304 720 LINE",
"426 720 LINE",
"558 870 LINE"
);
}
);
};
components = (
{
name = O;
},
{
name = acute;
transform = "{1, 0, 0, 1, 224, 160}";
}
);
layerId = "2D992F1A-8218-4049-8E15-5955C72037C9";
width = 776;
}
);
unicode = 00D3;
},
{
color = 4;
glyphname = Ocircumflex;
layers = (
{
background = {
anchors = (
{
name = top;
position = "{403, 670}";
}
);
paths = (
{
closed = 1;
nodes = (
"201 685 OFFCURVE",
"50 527 OFFCURVE",
"50 335 CURVE SMOOTH",
"50 143 OFFCURVE",
"201 -15 OFFCURVE",
"403 -15 CURVE SMOOTH",
"605 -15 OFFCURVE",
"756 143 OFFCURVE",
"756 335 CURVE SMOOTH",
"756 527 OFFCURVE",
"605 685 OFFCURVE",
"403 685 CURVE SMOOTH"
);
},
{
closed = 1;
nodes = (
"553 597 OFFCURVE",
"664 485 OFFCURVE",
"664 335 CURVE SMOOTH",
"664 185 OFFCURVE",
"553 73 OFFCURVE",
"403 73 CURVE SMOOTH",
"253 73 OFFCURVE",
"142 185 OFFCURVE",
"142 335 CURVE SMOOTH",
"142 485 OFFCURVE",
"253 597 OFFCURVE",
"403 597 CURVE SMOOTH"
);
},
{
closed = 1;
nodes = (
"381 890 LINE",
"241 751 LINE",
"323 751 LINE",
"403 829 LINE",
"483 751 LINE",
"565 751 LINE",
"425 890 LINE"
);
}
);
};
components = (
{
name = O;
},
{
name = circumflex;
transform = "{1, 0, 0, 1, 161, 170}";
}
);
layerId = "DEFEBCF2-9FF2-4B76-ADC8-AB6BD79F23E7";
width = 806;
},
{
background = {
anchors = (
{
name = top;
position = "{388, 670}";
}
);
paths = (
{
closed = 1;
nodes = (
"206 685 OFFCURVE",
"40 557 OFFCURVE",
"40 335 CURVE SMOOTH",
"40 113 OFFCURVE",
"206 -15 OFFCURVE",
"388 -15 CURVE SMOOTH",
"570 -15 OFFCURVE",
"736 113 OFFCURVE",
"736 335 CURVE SMOOTH",
"736 557 OFFCURVE",
"570 685 OFFCURVE",
"388 685 CURVE SMOOTH"
);
},
{
closed = 1;
nodes = (
"478 510 OFFCURVE",
"544 435 OFFCURVE",
"544 335 CURVE SMOOTH",
"544 235 OFFCURVE",
"478 160 OFFCURVE",
"388 160 CURVE SMOOTH",
"298 160 OFFCURVE",
"232 235 OFFCURVE",
"232 335 CURVE SMOOTH",
"232 435 OFFCURVE",
"298 510 OFFCURVE",
"388 510 CURVE SMOOTH"
);
},
{
closed = 1;
nodes = (
"336 870 LINE",
"216 720 LINE",
"348 720 LINE",
"388 779 LINE",
"428 720 LINE",
"560 720 LINE",
"440 870 LINE"
);
}
);
};
components = (
{
name = O;
},
{
name = circumflex;
transform = "{1, 0, 0, 1, 136, 160}";
}
);
layerId = "2D992F1A-8218-4049-8E15-5955C72037C9";
width = 776;
}
);
unicode = 00D4;
},
{
color = 4;
glyphname = Odieresis;
layers = (
{
background = {
anchors = (
{
name = top;
position = "{403, 670}";
}
);
paths = (
{
closed = 1;
nodes = (
"201 685 OFFCURVE",
"50 527 OFFCURVE",
"50 335 CURVE SMOOTH",
"50 143 OFFCURVE",
"201 -15 OFFCURVE",
"403 -15 CURVE SMOOTH",
"605 -15 OFFCURVE",
"756 143 OFFCURVE",
"756 335 CURVE SMOOTH",
"756 527 OFFCURVE",
"605 685 OFFCURVE",
"403 685 CURVE SMOOTH"
);
},
{
closed = 1;
nodes = (
"553 597 OFFCURVE",
"664 485 OFFCURVE",
"664 335 CURVE SMOOTH",
"664 185 OFFCURVE",
"553 73 OFFCURVE",
"403 73 CURVE SMOOTH",
"253 73 OFFCURVE",
"142 185 OFFCURVE",
"142 335 CURVE SMOOTH",
"142 485 OFFCURVE",
"253 597 OFFCURVE",
"403 597 CURVE SMOOTH"
);
},
{
closed = 1;
nodes = (
"473 889 OFFCURVE",
"445 861 OFFCURVE",
"445 826 CURVE SMOOTH",
"445 792 OFFCURVE",
"473 763 OFFCURVE",
"508 763 CURVE",
"542 763 OFFCURVE",
"571 792 OFFCURVE",
"571 826 CURVE SMOOTH",
"571 861 OFFCURVE",
"542 889 OFFCURVE",
"508 889 CURVE SMOOTH"
);
},
{
closed = 1;
nodes = (
"263 889 OFFCURVE",
"235 861 OFFCURVE",
"235 826 CURVE SMOOTH",
"235 792 OFFCURVE",
"263 763 OFFCURVE",
"298 763 CURVE",
"332 763 OFFCURVE",
"361 792 OFFCURVE",
"361 826 CURVE SMOOTH",
"361 861 OFFCURVE",
"332 889 OFFCURVE",
"298 889 CURVE SMOOTH"
);
}
);
};
components = (
{
name = O;
},
{
name = dieresis;
transform = "{1, 0, 0, 1, 155, 170}";
}
);
layerId = "DEFEBCF2-9FF2-4B76-ADC8-AB6BD79F23E7";
width = 806;
},
{
background = {
anchors = (
{
name = top;
position = "{388, 670}";
}
);
paths = (
{
closed = 1;
nodes = (
"206 685 OFFCURVE",
"40 557 OFFCURVE",
"40 335 CURVE SMOOTH",
"40 113 OFFCURVE",
"206 -15 OFFCURVE",
"388 -15 CURVE SMOOTH",
"570 -15 OFFCURVE",
"736 113 OFFCURVE",
"736 335 CURVE SMOOTH",
"736 557 OFFCURVE",
"570 685 OFFCURVE",
"388 685 CURVE SMOOTH"
);
},
{
closed = 1;
nodes = (
"478 510 OFFCURVE",
"544 435 OFFCURVE",
"544 335 CURVE SMOOTH",
"544 235 OFFCURVE",
"478 160 OFFCURVE",
"388 160 CURVE SMOOTH",
"298 160 OFFCURVE",
"232 235 OFFCURVE",
"232 335 CURVE SMOOTH",
"232 435 OFFCURVE",
"298 510 OFFCURVE",
"388 510 CURVE SMOOTH"
);
},
{
closed = 1;
nodes = (
"451 885 OFFCURVE",
"417 851 OFFCURVE",
"417 809 CURVE SMOOTH",
"417 768 OFFCURVE",
"451 733 OFFCURVE",
"493 733 CURVE",
"534 733 OFFCURVE",
"569 768 OFFCURVE",
"569 809 CURVE SMOOTH",
"569 851 OFFCURVE",
"534 885 OFFCURVE",
"493 885 CURVE SMOOTH"
);
},
{
closed = 1;
nodes = (
"241 885 OFFCURVE",
"207 851 OFFCURVE",
"207 809 CURVE SMOOTH",
"207 768 OFFCURVE",
"241 733 OFFCURVE",
"283 733 CURVE",
"324 733 OFFCURVE",
"359 768 OFFCURVE",
"359 809 CURVE SMOOTH",
"359 851 OFFCURVE",
"324 885 OFFCURVE",
"283 885 CURVE SMOOTH"
);
}
);
};
components = (
{
name = O;
},
{
name = dieresis;
transform = "{1, 0, 0, 1, 121, 160}";
}
);
layerId = "2D992F1A-8218-4049-8E15-5955C72037C9";
width = 776;
}
);
unicode = 00D6;
},
{
color = 4;
glyphname = Ograve;
layers = (
{
background = {
anchors = (
{
name = top;
position = "{403, 670}";
}
);
paths = (
{
closed = 1;
nodes = (
"201 685 OFFCURVE",
"50 527 OFFCURVE",
"50 335 CURVE SMOOTH",
"50 143 OFFCURVE",
"201 -15 OFFCURVE",
"403 -15 CURVE SMOOTH",
"605 -15 OFFCURVE",
"756 143 OFFCURVE",
"756 335 CURVE SMOOTH",
"756 527 OFFCURVE",
"605 685 OFFCURVE",
"403 685 CURVE SMOOTH"
);
},
{
closed = 1;
nodes = (
"553 597 OFFCURVE",
"664 485 OFFCURVE",
"664 335 CURVE SMOOTH",
"664 185 OFFCURVE",
"553 73 OFFCURVE",
"403 73 CURVE SMOOTH",
"253 73 OFFCURVE",
"142 185 OFFCURVE",
"142 335 CURVE SMOOTH",
"142 485 OFFCURVE",
"253 597 OFFCURVE",
"403 597 CURVE SMOOTH"
);
},
{
closed = 1;
nodes = (
"366 755 LINE",
"448 755 LINE",
"338 890 LINE",
"224 890 LINE"
);
}
);
};
components = (
{
name = O;
},
{
name = grave;
transform = "{1, 0, 0, 1, 205, 170}";
}
);
layerId = "DEFEBCF2-9FF2-4B76-ADC8-AB6BD79F23E7";
width = 806;
},
{
background = {
anchors = (
{
name = top;
position = "{388, 670}";
}
);
paths = (
{
closed = 1;
nodes = (
"206 685 OFFCURVE",
"40 557 OFFCURVE",
"40 335 CURVE SMOOTH",
"40 113 OFFCURVE",
"206 -15 OFFCURVE",
"388 -15 CURVE SMOOTH",
"570 -15 OFFCURVE",
"736 113 OFFCURVE",
"736 335 CURVE SMOOTH",
"736 557 OFFCURVE",
"570 685 OFFCURVE",
"388 685 CURVE SMOOTH"
);
},
{
closed = 1;
nodes = (
"478 510 OFFCURVE",
"544 435 OFFCURVE",
"544 335 CURVE SMOOTH",
"544 235 OFFCURVE",
"478 160 OFFCURVE",
"388 160 CURVE SMOOTH",
"298 160 OFFCURVE",
"232 235 OFFCURVE",
"232 335 CURVE SMOOTH",
"232 435 OFFCURVE",
"298 510 OFFCURVE",
"388 510 CURVE SMOOTH"
);
},
{
closed = 1;
nodes = (
"198 870 LINE",
"330 720 LINE",
"452 720 LINE",
"352 870 LINE"
);
}
);
};
components = (
{
name = O;
},
{
name = grave;
transform = "{1, 0, 0, 1, 118, 160}";
}
);
layerId = "2D992F1A-8218-4049-8E15-5955C72037C9";
width = 776;
}
);
unicode = 00D2;
},
{
color = 4;
glyphname = Ohungarumlaut;
layers = (
{
background = {
anchors = (
{
name = top;
position = "{403, 670}";
}
);
paths = (
{
closed = 1;
nodes = (
"201 685 OFFCURVE",
"50 527 OFFCURVE",
"50 335 CURVE SMOOTH",
"50 143 OFFCURVE",
"201 -15 OFFCURVE",
"403 -15 CURVE SMOOTH",
"605 -15 OFFCURVE",
"756 143 OFFCURVE",
"756 335 CURVE SMOOTH",
"756 527 OFFCURVE",
"605 685 OFFCURVE",
"403 685 CURVE SMOOTH"
);
},
{
closed = 1;
nodes = (
"553 597 OFFCURVE",
"664 485 OFFCURVE",
"664 335 CURVE SMOOTH",
"664 185 OFFCURVE",
"553 73 OFFCURVE",
"403 73 CURVE SMOOTH",
"253 73 OFFCURVE",
"142 185 OFFCURVE",
"142 335 CURVE SMOOTH",
"142 485 OFFCURVE",
"253 597 OFFCURVE",
"403 597 CURVE SMOOTH"
);
},
{
closed = 1;
nodes = (
"511 890 LINE",
"401 755 LINE",
"483 755 LINE",
"625 890 LINE"
);
},
{
closed = 1;
nodes = (
"360 890 LINE",
"250 755 LINE",
"332 755 LINE",
"474 890 LINE"
);
}
);
};
components = (
{
name = O;
},
{
name = hungarumlaut;
transform = "{1, 0, 0, 1, 200, 170}";
}
);
layerId = "DEFEBCF2-9FF2-4B76-ADC8-AB6BD79F23E7";
width = 806;
},
{
background = {
anchors = (
{
name = top;
position = "{388, 670}";
}
);
paths = (
{
closed = 1;
nodes = (
"206 685 OFFCURVE",
"40 557 OFFCURVE",
"40 335 CURVE SMOOTH",
"40 113 OFFCURVE",
"206 -15 OFFCURVE",
"388 -15 CURVE SMOOTH",
"570 -15 OFFCURVE",
"736 113 OFFCURVE",
"736 335 CURVE SMOOTH",
"736 557 OFFCURVE",
"570 685 OFFCURVE",
"388 685 CURVE SMOOTH"
);
},
{
closed = 1;
nodes = (
"478 510 OFFCURVE",
"544 435 OFFCURVE",
"544 335 CURVE SMOOTH",
"544 235 OFFCURVE",
"478 160 OFFCURVE",
"388 160 CURVE SMOOTH",
"298 160 OFFCURVE",
"232 235 OFFCURVE",
"232 335 CURVE SMOOTH",
"232 435 OFFCURVE",
"298 510 OFFCURVE",
"388 510 CURVE SMOOTH"
);
},
{
closed = 1;
nodes = (
"503 870 LINE",
"403 720 LINE",
"525 720 LINE",
"657 870 LINE"
);
},
{
closed = 1;
nodes = (
"299 870 LINE",
"199 720 LINE",
"321 720 LINE",
"453 870 LINE"
);
}
);
};
components = (
{
name = O;
},
{
name = hungarumlaut;
transform = "{1, 0, 0, 1, 129, 160}";
}
);
layerId = "2D992F1A-8218-4049-8E15-5955C72037C9";
width = 776;
}
);
unicode = 0150;
},
{
color = 4;
glyphname = Omacron;
layers = (
{
background = {
anchors = (
{
name = top;
position = "{403, 670}";
}
);
paths = (
{
closed = 1;
nodes = (
"201 685 OFFCURVE",
"50 527 OFFCURVE",
"50 335 CURVE SMOOTH",
"50 143 OFFCURVE",
"201 -15 OFFCURVE",
"403 -15 CURVE SMOOTH",
"605 -15 OFFCURVE",
"756 143 OFFCURVE",
"756 335 CURVE SMOOTH",
"756 527 OFFCURVE",
"605 685 OFFCURVE",
"403 685 CURVE SMOOTH"
);
},
{
closed = 1;
nodes = (
"553 597 OFFCURVE",
"664 485 OFFCURVE",
"664 335 CURVE SMOOTH",
"664 185 OFFCURVE",
"553 73 OFFCURVE",
"403 73 CURVE SMOOTH",
"253 73 OFFCURVE",
"142 185 OFFCURVE",
"142 335 CURVE SMOOTH",
"142 485 OFFCURVE",
"253 597 OFFCURVE",
"403 597 CURVE SMOOTH"
);
},
{
closed = 1;
nodes = (
"228 888 LINE",
"228 808 LINE",
"578 808 LINE",
"578 888 LINE"
);
}
);
};
components = (
{
name = O;
},
{
name = macron;
transform = "{1, 0, 0, 1, 138, 170}";
}
);
layerId = "DEFEBCF2-9FF2-4B76-ADC8-AB6BD79F23E7";
width = 806;
},
{
background = {
anchors = (
{
name = top;
position = "{388, 670}";
}
);
paths = (
{
closed = 1;
nodes = (
"206 685 OFFCURVE",
"40 557 OFFCURVE",
"40 335 CURVE SMOOTH",
"40 113 OFFCURVE",
"206 -15 OFFCURVE",
"388 -15 CURVE SMOOTH",
"570 -15 OFFCURVE",
"736 113 OFFCURVE",
"736 335 CURVE SMOOTH",
"736 557 OFFCURVE",
"570 685 OFFCURVE",
"388 685 CURVE SMOOTH"
);
},
{
closed = 1;
nodes = (
"478 510 OFFCURVE",
"544 435 OFFCURVE",
"544 335 CURVE SMOOTH",
"544 235 OFFCURVE",
"478 160 OFFCURVE",
"388 160 CURVE SMOOTH",
"298 160 OFFCURVE",
"232 235 OFFCURVE",
"232 335 CURVE SMOOTH",
"232 435 OFFCURVE",
"298 510 OFFCURVE",
"388 510 CURVE SMOOTH"
);
},
{
closed = 1;
nodes = (
"203 870 LINE",
"203 760 LINE",
"573 760 LINE",
"573 870 LINE"
);
}
);
};
components = (
{
name = O;
},
{
name = macron;
transform = "{1, 0, 0, 1, 103, 160}";
}
);
layerId = "2D992F1A-8218-4049-8E15-5955C72037C9";
width = 776;
}
);
unicode = 014C;
},
{
color = 4;
glyphname = Oslash;
layers = (
{
background = {
anchors = (
{
name = top;
position = "{403, 670}";
}
);
paths = (
{
closed = 1;
nodes = (
"125 25 LINE",
"174 -15 LINE",
"702 645 LINE",
"650 685 LINE"
);
},
{
closed = 1;
nodes = (
"201 685 OFFCURVE",
"50 527 OFFCURVE",
"50 335 CURVE SMOOTH",
"50 143 OFFCURVE",
"201 -15 OFFCURVE",
"403 -15 CURVE SMOOTH",
"605 -15 OFFCURVE",
"756 143 OFFCURVE",
"756 335 CURVE SMOOTH",
"756 527 OFFCURVE",
"605 685 OFFCURVE",
"403 685 CURVE SMOOTH"
);
},
{
closed = 1;
nodes = (
"553 597 OFFCURVE",
"664 485 OFFCURVE",
"664 335 CURVE SMOOTH",
"664 185 OFFCURVE",
"553 73 OFFCURVE",
"403 73 CURVE SMOOTH",
"253 73 OFFCURVE",
"142 185 OFFCURVE",
"142 335 CURVE SMOOTH",
"142 485 OFFCURVE",
"253 597 OFFCURVE",
"403 597 CURVE SMOOTH"
);
}
);
};
components = (
{
name = O;
}
);
layerId = "DEFEBCF2-9FF2-4B76-ADC8-AB6BD79F23E7";
paths = (
{
closed = 1;
nodes = (
"702 645 LINE",
"650 685 LINE",
"125 25 LINE",
"174 -15 LINE"
);
}
);
width = 806;
},
{
background = {
anchors = (
{
name = top;
position = "{388, 670}";
}
);
paths = (
{
closed = 1;
nodes = (
"75 45 LINE",
"154 -15 LINE",
"712 625 LINE",
"630 685 LINE"
);
},
{
closed = 1;
nodes = (
"206 685 OFFCURVE",
"40 557 OFFCURVE",
"40 335 CURVE SMOOTH",
"40 113 OFFCURVE",
"206 -15 OFFCURVE",
"388 -15 CURVE SMOOTH",
"570 -15 OFFCURVE",
"736 113 OFFCURVE",
"736 335 CURVE SMOOTH",
"736 557 OFFCURVE",
"570 685 OFFCURVE",
"388 685 CURVE SMOOTH"
);
},
{
closed = 1;
nodes = (
"478 510 OFFCURVE",
"544 435 OFFCURVE",
"544 335 CURVE SMOOTH",
"544 235 OFFCURVE",
"478 160 OFFCURVE",
"388 160 CURVE SMOOTH",
"298 160 OFFCURVE",
"232 235 OFFCURVE",
"232 335 CURVE SMOOTH",
"232 435 OFFCURVE",
"298 510 OFFCURVE",
"388 510 CURVE SMOOTH"
);
}
);
};
components = (
{
name = O;
}
);
layerId = "2D992F1A-8218-4049-8E15-5955C72037C9";
leftMetricsKey = "=O";
rightMetricsKey = "=O";
paths = (
{
closed = 1;
nodes = (
"712 625 LINE",
"630 685 LINE",
"75 45 LINE",
"154 -15 LINE"
);
}
);
width = 776;
}
);
leftMetricsKey = "=O";
rightMetricsKey = "=O";
unicode = 00D8;
},
{
color = 4;
glyphname = Otilde;
layers = (
{
background = {
anchors = (
{
name = top;
position = "{403, 670}";
}
);
paths = (
{
closed = 1;
nodes = (
"201 685 OFFCURVE",
"50 527 OFFCURVE",
"50 335 CURVE SMOOTH",
"50 143 OFFCURVE",
"201 -15 OFFCURVE",
"403 -15 CURVE SMOOTH",
"605 -15 OFFCURVE",
"756 143 OFFCURVE",
"756 335 CURVE SMOOTH",
"756 527 OFFCURVE",
"605 685 OFFCURVE",
"403 685 CURVE SMOOTH"
);
},
{
closed = 1;
nodes = (
"553 597 OFFCURVE",
"664 485 OFFCURVE",
"664 335 CURVE SMOOTH",
"664 185 OFFCURVE",
"553 73 OFFCURVE",
"403 73 CURVE SMOOTH",
"253 73 OFFCURVE",
"142 185 OFFCURVE",
"142 335 CURVE SMOOTH",
"142 485 OFFCURVE",
"253 597 OFFCURVE",
"403 597 CURVE SMOOTH"
);
},
{
closed = 1;
nodes = (
"509 874 LINE",
"509 849 OFFCURVE",
"497 828 OFFCURVE",
"473 828 CURVE SMOOTH",
"431 828 OFFCURVE",
"420 879 OFFCURVE",
"347 879 CURVE SMOOTH",
"287 879 OFFCURVE",
"243 834 OFFCURVE",
"243 776 CURVE",
"311 776 LINE",
"311 801 OFFCURVE",
"324 822 OFFCURVE",
"347 822 CURVE SMOOTH",
"389 822 OFFCURVE",
"400 771 OFFCURVE",
"473 771 CURVE SMOOTH",
"533 771 OFFCURVE",
"577 816 OFFCURVE",
"577 874 CURVE"
);
}
);
};
components = (
{
name = O;
},
{
name = tilde;
transform = "{1, 0, 0, 1, 167, 154}";
}
);
layerId = "DEFEBCF2-9FF2-4B76-ADC8-AB6BD79F23E7";
width = 806;
},
{
background = {
anchors = (
{
name = top;
position = "{388, 670}";
}
);
paths = (
{
closed = 1;
nodes = (
"206 685 OFFCURVE",
"40 557 OFFCURVE",
"40 335 CURVE SMOOTH",
"40 113 OFFCURVE",
"206 -15 OFFCURVE",
"388 -15 CURVE SMOOTH",
"570 -15 OFFCURVE",
"736 113 OFFCURVE",
"736 335 CURVE SMOOTH",
"736 557 OFFCURVE",
"570 685 OFFCURVE",
"388 685 CURVE SMOOTH"
);
},
{
closed = 1;
nodes = (
"478 510 OFFCURVE",
"544 435 OFFCURVE",
"544 335 CURVE SMOOTH",
"544 235 OFFCURVE",
"478 160 OFFCURVE",
"388 160 CURVE SMOOTH",
"298 160 OFFCURVE",
"232 235 OFFCURVE",
"232 335 CURVE SMOOTH",
"232 435 OFFCURVE",
"298 510 OFFCURVE",
"388 510 CURVE SMOOTH"
);
},
{
closed = 1;
nodes = (
"485 845 LINE",
"485 822 OFFCURVE",
"474 808 OFFCURVE",
"452 808 CURVE SMOOTH",
"424 808 OFFCURVE",
"401 849 OFFCURVE",
"335 849 CURVE SMOOTH",
"265 849 OFFCURVE",
"207 803 OFFCURVE",
"207 710 CURVE",
"301 710 LINE",
"301 733 OFFCURVE",
"313 747 OFFCURVE",
"334 747 CURVE SMOOTH",
"362 747 OFFCURVE",
"385 706 OFFCURVE",
"451 706 CURVE SMOOTH",
"521 706 OFFCURVE",
"579 752 OFFCURVE",
"579 845 CURVE"
);
}
);
};
components = (
{
name = O;
},
{
name = tilde;
transform = "{1, 0, 0, 1, 163, 160}";
}
);
layerId = "2D992F1A-8218-4049-8E15-5955C72037C9";
leftMetricsKey = "=O";
rightMetricsKey = "=O";
width = 776;
}
);
leftMetricsKey = "=O";
rightMetricsKey = "=O";
unicode = 00D5;
},
{
color = 4;
glyphname = OE;
layers = (
{
anchors = (
{
name = top;
position = "{403, 670}";
}
);
background = {
anchors = (
{
name = bottom;
position = "{709, 0}";
},
{
name = ogonek;
position = "{963, 10}";
},
{
name = top;
position = "{403, 670}";
}
);
paths = (
{
closed = 1;
nodes = (
"403 670 LINE SMOOTH",
"211 670 OFFCURVE",
"50 527 OFFCURVE",
"50 335 CURVE SMOOTH",
"50 143 OFFCURVE",
"211 0 OFFCURVE",
"403 0 CURVE SMOOTH",
"496 0 LINE",
"496 95 LINE",
"403 95 LINE SMOOTH",
"263 95 OFFCURVE",
"152 185 OFFCURVE",
"152 335 CURVE SMOOTH",
"152 485 OFFCURVE",
"263 575 OFFCURVE",
"403 575 CURVE SMOOTH",
"496 575 LINE",
"496 670 LINE"
);
},
{
closed = 1;
nodes = (
"499 670 LINE",
"499 0 LINE",
"958 0 LINE",
"958 85 LINE",
"589 85 LINE",
"589 585 LINE",
"958 585 LINE",
"958 670 LINE"
);
},
{
closed = 1;
nodes = (
"556 386 LINE",
"556 301 LINE",
"915 301 LINE",
"915 386 LINE"
);
}
);
};
components = (
{
name = E;
transform = "{1, 0, 0, 1, 389, 0}";
}
);
layerId = "DEFEBCF2-9FF2-4B76-ADC8-AB6BD79F23E7";
leftMetricsKey = "=O";
rightMetricsKey = "=E";
paths = (
{
closed = 1;
nodes = (
"496 0 LINE",
"496 95 LINE",
"403 95 LINE SMOOTH",
"263 95 OFFCURVE",
"152 185 OFFCURVE",
"152 335 CURVE SMOOTH",
"152 485 OFFCURVE",
"263 575 OFFCURVE",
"403 575 CURVE SMOOTH",
"496 575 LINE",
"496 670 LINE",
"403 670 LINE SMOOTH",
"211 670 OFFCURVE",
"50 527 OFFCURVE",
"50 335 CURVE SMOOTH",
"50 143 OFFCURVE",
"211 0 OFFCURVE",
"403 0 CURVE SMOOTH"
);
}
);
width = 1028;
},
{
anchors = (
{
name = top;
position = "{393, 670}";
}
);
background = {
anchors = (
{
name = bottom;
position = "{703, 0}";
},
{
name = ogonek;
position = "{954, 10}";
},
{
name = top;
position = "{393, 670}";
}
);
paths = (
{
closed = 1;
nodes = (
"393 670 LINE",
"201 670 OFFCURVE",
"40 527 OFFCURVE",
"40 335 CURVE SMOOTH",
"40 143 OFFCURVE",
"201 0 OFFCURVE",
"393 0 CURVE",
"486 0 LINE",
"486 135 LINE",
"393 135 LINE SMOOTH",
"283 135 OFFCURVE",
"202 215 OFFCURVE",
"202 335 CURVE SMOOTH",
"202 455 OFFCURVE",
"283 525 OFFCURVE",
"393 525 CURVE SMOOTH",
"486 525 LINE",
"486 670 LINE"
);
},
{
closed = 1;
nodes = (
"459 670 LINE",
"459 0 LINE",
"953 0 LINE",
"953 160 LINE",
"646 160 LINE",
"646 515 LINE",
"953 515 LINE",
"953 670 LINE"
);
},
{
closed = 1;
nodes = (
"564 414 LINE",
"564 264 LINE",
"919 264 LINE",
"919 414 LINE"
);
}
);
};
components = (
{
name = E;
transform = "{1, 0, 0, 1, 379, 0}";
}
);
layerId = "2D992F1A-8218-4049-8E15-5955C72037C9";
paths = (
{
closed = 1;
nodes = (
"486 0 LINE",
"486 135 LINE",
"393 135 LINE SMOOTH",
"283 135 OFFCURVE",
"202 215 OFFCURVE",
"202 335 CURVE SMOOTH",
"202 455 OFFCURVE",
"283 525 OFFCURVE",
"393 525 CURVE SMOOTH",
"486 525 LINE",
"486 670 LINE",
"393 670 LINE",
"201 670 OFFCURVE",
"40 527 OFFCURVE",
"40 335 CURVE SMOOTH",
"40 143 OFFCURVE",
"201 0 OFFCURVE",
"393 0 CURVE"
);
}
);
width = 1023;
}
);
leftMetricsKey = "=O";
rightMetricsKey = "=E";
unicode = 0152;
},
{
color = 4;
glyphname = P;
layers = (
{
background = {
paths = (
{
closed = 1;
nodes = (
"110 670 LINE",
"110 0 LINE",
"200 0 LINE",
"200 585 LINE",
"352 585 LINE SMOOTH",
"438 585 OFFCURVE",
"518 524 OFFCURVE",
"518 439 CURVE SMOOTH",
"518 344 OFFCURVE",
"460 292 OFFCURVE",
"359 292 CURVE SMOOTH",
"291 292 OFFCURVE",
"220 313 OFFCURVE",
"188 330 CURVE",
"188 248 LINE",
"221 230 OFFCURVE",
"285 209 OFFCURVE",
"362 209 CURVE SMOOTH",
"500 209 OFFCURVE",
"610 301 OFFCURVE",
"610 439 CURVE SMOOTH",
"610 577 OFFCURVE",
"492 670 OFFCURVE",
"377 670 CURVE SMOOTH"
);
}
);
};
layerId = "DEFEBCF2-9FF2-4B76-ADC8-AB6BD79F23E7";
leftMetricsKey = "=L";
rightMetricsKey = "=O";
paths = (
{
closed = 1;
nodes = (
"200 0 LINE",
"200 585 LINE",
"352 585 LINE SMOOTH",
"438 585 OFFCURVE",
"518 524 OFFCURVE",
"518 439 CURVE SMOOTH",
"518 344 OFFCURVE",
"460 292 OFFCURVE",
"359 292 CURVE SMOOTH",
"291 292 OFFCURVE",
"220 313 OFFCURVE",
"188 330 CURVE",
"188 248 LINE",
"221 230 OFFCURVE",
"285 209 OFFCURVE",
"362 209 CURVE SMOOTH",
"500 209 OFFCURVE",
"610 301 OFFCURVE",
"610 439 CURVE SMOOTH",
"610 577 OFFCURVE",
"492 670 OFFCURVE",
"377 670 CURVE SMOOTH",
"110 670 LINE",
"110 0 LINE"
);
}
);
width = 660;
},
{
background = {
paths = (
{
closed = 1;
nodes = (
"70 670 LINE",
"70 0 LINE",
"257 0 LINE",
"257 495 LINE",
"335 495 LINE SMOOTH",
"394 495 OFFCURVE",
"438 472 OFFCURVE",
"438 397 CURVE SMOOTH",
"438 339 OFFCURVE",
"394 296 OFFCURVE",
"335 296 CURVE SMOOTH",
"296 296 OFFCURVE",
"261 306 OFFCURVE",
"235 318 CURVE",
"235 171 LINE",
"265 150 OFFCURVE",
"312 141 OFFCURVE",
"377 141 CURVE SMOOTH",
"507 141 OFFCURVE",
"630 242 OFFCURVE",
"630 397 CURVE SMOOTH",
"630 575 OFFCURVE",
"492 670 OFFCURVE",
"357 670 CURVE SMOOTH"
);
}
);
};
layerId = "2D992F1A-8218-4049-8E15-5955C72037C9";
rightMetricsKey = "=O-10";
paths = (
{
closed = 1;
nodes = (
"257 0 LINE",
"257 495 LINE",
"335 495 LINE SMOOTH",
"394 495 OFFCURVE",
"438 472 OFFCURVE",
"438 397 CURVE SMOOTH",
"438 339 OFFCURVE",
"394 296 OFFCURVE",
"335 296 CURVE SMOOTH",
"296 296 OFFCURVE",
"261 306 OFFCURVE",
"235 318 CURVE",
"235 171 LINE",
"265 150 OFFCURVE",
"312 141 OFFCURVE",
"377 141 CURVE SMOOTH",
"507 141 OFFCURVE",
"630 242 OFFCURVE",
"630 397 CURVE SMOOTH",
"630 575 OFFCURVE",
"492 670 OFFCURVE",
"357 670 CURVE SMOOTH",
"70 670 LINE",
"70 0 LINE"
);
}
);
width = 660;
}
);
leftMetricsKey = "=I";
rightMetricsKey = "=O";
unicode = 0050;
},
{
color = 4;
glyphname = Thorn;
layers = (
{
background = {
paths = (
{
closed = 1;
nodes = (
"110 670 LINE",
"110 0 LINE",
"207 0 LINE",
"207 172 LINE",
"253 157 OFFCURVE",
"300 148 OFFCURVE",
"359 148 CURVE SMOOTH",
"501 148 OFFCURVE",
"584 242 OFFCURVE",
"584 352 CURVE SMOOTH",
"584 472 OFFCURVE",
"473 550 OFFCURVE",
"358 550 CURVE SMOOTH",
"207 550 LINE",
"207 670 LINE"
);
},
{
closed = 1;
nodes = (
"419 460 OFFCURVE",
"482 419 OFFCURVE",
"482 352 CURVE SMOOTH",
"482 285 OFFCURVE",
"444 233 OFFCURVE",
"353 233 CURVE SMOOTH",
"307 233 OFFCURVE",
"249 240 OFFCURVE",
"207 263 CURVE",
"207 460 LINE",
"333 460 LINE SMOOTH"
);
}
);
};
layerId = "DEFEBCF2-9FF2-4B76-ADC8-AB6BD79F23E7";
leftMetricsKey = "=L";
rightMetricsKey = "=O";
paths = (
{
closed = 1;
nodes = (
"207 0 LINE",
"207 172 LINE",
"253 157 OFFCURVE",
"300 148 OFFCURVE",
"359 148 CURVE SMOOTH",
"501 148 OFFCURVE",
"584 242 OFFCURVE",
"584 352 CURVE SMOOTH",
"584 472 OFFCURVE",
"473 550 OFFCURVE",
"358 550 CURVE SMOOTH",
"207 550 LINE",
"207 670 LINE",
"110 670 LINE",
"110 0 LINE"
);
},
{
closed = 1;
nodes = (
"307 233 OFFCURVE",
"249 240 OFFCURVE",
"207 263 CURVE",
"207 460 LINE",
"333 460 LINE SMOOTH",
"419 460 OFFCURVE",
"482 419 OFFCURVE",
"482 352 CURVE SMOOTH",
"482 285 OFFCURVE",
"444 233 OFFCURVE",
"353 233 CURVE SMOOTH"
);
}
);
width = 634;
},
{
background = {
paths = (
{
closed = 1;
nodes = (
"80 670 LINE",
"80 0 LINE",
"237 0 LINE",
"237 123 LINE",
"283 110 OFFCURVE",
"328 99 OFFCURVE",
"387 99 CURVE SMOOTH",
"529 99 OFFCURVE",
"644 192 OFFCURVE",
"644 333 CURVE SMOOTH",
"644 463 OFFCURVE",
"533 561 OFFCURVE",
"418 561 CURVE SMOOTH",
"237 561 LINE",
"237 670 LINE"
);
},
{
closed = 1;
nodes = (
"427 411 OFFCURVE",
"482 386 OFFCURVE",
"482 333 CURVE SMOOTH",
"482 273 OFFCURVE",
"442 244 OFFCURVE",
"373 244 CURVE SMOOTH",
"337 244 OFFCURVE",
"276 254 OFFCURVE",
"237 274 CURVE",
"237 411 LINE",
"363 411 LINE SMOOTH"
);
}
);
};
layerId = "2D992F1A-8218-4049-8E15-5955C72037C9";
paths = (
{
closed = 1;
nodes = (
"237 0 LINE",
"237 123 LINE",
"283 110 OFFCURVE",
"328 99 OFFCURVE",
"387 99 CURVE SMOOTH",
"529 99 OFFCURVE",
"644 192 OFFCURVE",
"644 333 CURVE SMOOTH",
"644 463 OFFCURVE",
"533 561 OFFCURVE",
"418 561 CURVE SMOOTH",
"237 561 LINE",
"237 670 LINE",
"80 670 LINE",
"80 0 LINE"
);
},
{
closed = 1;
nodes = (
"337 244 OFFCURVE",
"276 254 OFFCURVE",
"237 274 CURVE",
"237 411 LINE",
"363 411 LINE SMOOTH",
"427 411 OFFCURVE",
"482 386 OFFCURVE",
"482 333 CURVE SMOOTH",
"482 273 OFFCURVE",
"442 244 OFFCURVE",
"373 244 CURVE SMOOTH"
);
}
);
width = 674;
}
);
leftMetricsKey = "=L";
rightMetricsKey = "=P";
unicode = 00DE;
},
{
color = 4;
glyphname = Q;
layers = (
{
background = {
paths = (
{
closed = 1;
nodes = (
"201 685 OFFCURVE",
"50 527 OFFCURVE",
"50 335 CURVE SMOOTH",
"50 143 OFFCURVE",
"201 -15 OFFCURVE",
"403 -15 CURVE SMOOTH",
"605 -15 OFFCURVE",
"756 143 OFFCURVE",
"756 335 CURVE SMOOTH",
"756 527 OFFCURVE",
"605 685 OFFCURVE",
"403 685 CURVE SMOOTH"
);
},
{
closed = 1;
nodes = (
"403 -15 LINE",
"506 -92 OFFCURVE",
"653 -154 OFFCURVE",
"764 -154 CURVE",
"764 -64 LINE",
"684 -64 OFFCURVE",
"549 -21 OFFCURVE",
"442 25 CURVE"
);
},
{
closed = 1;
nodes = (
"553 597 OFFCURVE",
"664 485 OFFCURVE",
"664 335 CURVE SMOOTH",
"664 185 OFFCURVE",
"553 73 OFFCURVE",
"403 73 CURVE SMOOTH",
"253 73 OFFCURVE",
"142 185 OFFCURVE",
"142 335 CURVE SMOOTH",
"142 485 OFFCURVE",
"253 597 OFFCURVE",
"403 597 CURVE SMOOTH"
);
}
);
};
layerId = "DEFEBCF2-9FF2-4B76-ADC8-AB6BD79F23E7";
leftMetricsKey = "=O";
rightMetricsKey = "=L";
paths = (
{
closed = 1;
nodes = (
"605 -15 OFFCURVE",
"756 143 OFFCURVE",
"756 335 CURVE SMOOTH",
"756 527 OFFCURVE",
"605 685 OFFCURVE",
"403 685 CURVE SMOOTH",
"201 685 OFFCURVE",
"50 527 OFFCURVE",
"50 335 CURVE SMOOTH",
"50 143 OFFCURVE",
"201 -15 OFFCURVE",
"403 -15 CURVE SMOOTH"
);
},
{
closed = 1;
nodes = (
"764 -64 LINE",
"684 -64 OFFCURVE",
"549 -21 OFFCURVE",
"442 25 CURVE",
"403 -15 LINE",
"506 -92 OFFCURVE",
"653 -154 OFFCURVE",
"764 -154 CURVE"
);
},
{
closed = 1;
nodes = (
"253 73 OFFCURVE",
"142 185 OFFCURVE",
"142 335 CURVE SMOOTH",
"142 485 OFFCURVE",
"253 597 OFFCURVE",
"403 597 CURVE SMOOTH",
"553 597 OFFCURVE",
"664 485 OFFCURVE",
"664 335 CURVE SMOOTH",
"664 185 OFFCURVE",
"553 73 OFFCURVE",
"403 73 CURVE SMOOTH"
);
}
);
width = 809;
},
{
background = {
paths = (
{
closed = 1;
nodes = (
"206 685 OFFCURVE",
"40 557 OFFCURVE",
"40 335 CURVE SMOOTH",
"40 113 OFFCURVE",
"206 -15 OFFCURVE",
"388 -15 CURVE SMOOTH",
"570 -15 OFFCURVE",
"736 113 OFFCURVE",
"736 335 CURVE SMOOTH",
"736 557 OFFCURVE",
"570 685 OFFCURVE",
"388 685 CURVE SMOOTH"
);
},
{
closed = 1;
nodes = (
"388 -15 LINE",
"480 -122 OFFCURVE",
"634 -171 OFFCURVE",
"755 -171 CURVE",
"755 -15 LINE",
"675 -15 OFFCURVE",
"596 -13 OFFCURVE",
"538 23 CURVE"
);
},
{
closed = 1;
nodes = (
"478 510 OFFCURVE",
"544 435 OFFCURVE",
"544 335 CURVE SMOOTH",
"544 235 OFFCURVE",
"478 160 OFFCURVE",
"388 160 CURVE SMOOTH",
"298 160 OFFCURVE",
"232 235 OFFCURVE",
"232 335 CURVE SMOOTH",
"232 435 OFFCURVE",
"298 510 OFFCURVE",
"388 510 CURVE SMOOTH"
);
}
);
};
layerId = "2D992F1A-8218-4049-8E15-5955C72037C9";
paths = (
{
closed = 1;
nodes = (
"570 -15 OFFCURVE",
"736 113 OFFCURVE",
"736 335 CURVE SMOOTH",
"736 557 OFFCURVE",
"570 685 OFFCURVE",
"388 685 CURVE SMOOTH",
"206 685 OFFCURVE",
"40 557 OFFCURVE",
"40 335 CURVE SMOOTH",
"40 113 OFFCURVE",
"206 -15 OFFCURVE",
"388 -15 CURVE SMOOTH"
);
},
{
closed = 1;
nodes = (
"755 -15 LINE",
"675 -15 OFFCURVE",
"596 -13 OFFCURVE",
"538 23 CURVE",
"388 -15 LINE",
"480 -122 OFFCURVE",
"634 -171 OFFCURVE",
"755 -171 CURVE"
);
},
{
closed = 1;
nodes = (
"298 160 OFFCURVE",
"232 235 OFFCURVE",
"232 335 CURVE SMOOTH",
"232 435 OFFCURVE",
"298 510 OFFCURVE",
"388 510 CURVE SMOOTH",
"478 510 OFFCURVE",
"544 435 OFFCURVE",
"544 335 CURVE SMOOTH",
"544 235 OFFCURVE",
"478 160 OFFCURVE",
"388 160 CURVE SMOOTH"
);
}
);
width = 775;
}
);
leftMetricsKey = "=O";
rightMetricsKey = "=L-40";
unicode = 0051;
},
{
color = 4;
glyphname = R;
layers = (
{
anchors = (
{
name = bottom;
position = "{366, 0}";
},
{
name = top;
position = "{308, 670}";
}
);
background = {
anchors = (
{
name = bottom;
position = "{366, 0}";
},
{
name = top;
position = "{308, 670}";
}
);
paths = (
{
closed = 1;
nodes = (
"110 670 LINE",
"110 0 LINE",
"200 0 LINE",
"200 585 LINE",
"352 585 LINE SMOOTH",
"438 585 OFFCURVE",
"508 544 OFFCURVE",
"508 469 CURVE SMOOTH",
"508 397 OFFCURVE",
"450 351 OFFCURVE",
"349 351 CURVE SMOOTH",
"295 351 OFFCURVE",
"238 359 OFFCURVE",
"193 372 CURVE",
"193 297 LINE",
"226 289 OFFCURVE",
"319 278 OFFCURVE",
"362 278 CURVE SMOOTH",
"478 278 OFFCURVE",
"600 344 OFFCURVE",
"600 469 CURVE SMOOTH",
"600 607 OFFCURVE",
"482 670 OFFCURVE",
"367 670 CURVE SMOOTH"
);
},
{
closed = 1;
nodes = (
"183 297 LINE",
"488 0 LINE",
"626 0 LINE",
"255 334 LINE"
);
}
);
};
layerId = "DEFEBCF2-9FF2-4B76-ADC8-AB6BD79F23E7";
leftMetricsKey = "=L";
rightMetricsKey = "=V+10";
paths = (
{
closed = 1;
nodes = (
"200 0 LINE",
"200 585 LINE",
"352 585 LINE SMOOTH",
"438 585 OFFCURVE",
"508 544 OFFCURVE",
"508 469 CURVE SMOOTH",
"508 397 OFFCURVE",
"450 351 OFFCURVE",
"349 351 CURVE SMOOTH",
"295 351 OFFCURVE",
"238 359 OFFCURVE",
"193 372 CURVE",
"193 297 LINE",
"226 289 OFFCURVE",
"319 278 OFFCURVE",
"362 278 CURVE SMOOTH",
"478 278 OFFCURVE",
"600 344 OFFCURVE",
"600 469 CURVE SMOOTH",
"600 607 OFFCURVE",
"482 670 OFFCURVE",
"367 670 CURVE SMOOTH",
"110 670 LINE",
"110 0 LINE"
);
},
{
closed = 1;
nodes = (
"626 0 LINE",
"255 334 LINE",
"183 297 LINE",
"488 0 LINE"
);
}
);
width = 646;
},
{
anchors = (
{
name = bottom;
position = "{349, 0}";
},
{
name = top;
position = "{309, 670}";
}
);
background = {
anchors = (
{
name = bottom;
position = "{349, 0}";
},
{
name = top;
position = "{309, 670}";
}
);
paths = (
{
closed = 1;
nodes = (
"80 670 LINE",
"80 0 LINE",
"267 0 LINE",
"267 515 LINE",
"345 515 LINE SMOOTH",
"404 515 OFFCURVE",
"448 492 OFFCURVE",
"448 437 CURVE SMOOTH",
"448 389 OFFCURVE",
"404 356 OFFCURVE",
"345 356 CURVE SMOOTH",
"306 356 OFFCURVE",
"271 367 OFFCURVE",
"245 379 CURVE",
"245 284 LINE",
"275 278 OFFCURVE",
"382 247 OFFCURVE",
"417 247 CURVE SMOOTH",
"540 247 OFFCURVE",
"640 312 OFFCURVE",
"640 437 CURVE SMOOTH",
"640 595 OFFCURVE",
"502 670 OFFCURVE",
"367 670 CURVE SMOOTH"
);
},
{
closed = 1;
nodes = (
"255 284 LINE",
"446 0 LINE",
"674 0 LINE",
"423 333 LINE"
);
}
);
};
layerId = "2D992F1A-8218-4049-8E15-5955C72037C9";
leftMetricsKey = "=L";
rightMetricsKey = "=V";
paths = (
{
closed = 1;
nodes = (
"267 0 LINE",
"267 515 LINE",
"345 515 LINE SMOOTH",
"404 515 OFFCURVE",
"448 492 OFFCURVE",
"448 437 CURVE SMOOTH",
"448 389 OFFCURVE",
"404 356 OFFCURVE",
"345 356 CURVE SMOOTH",
"306 356 OFFCURVE",
"271 367 OFFCURVE",
"245 379 CURVE",
"245 284 LINE",
"275 278 OFFCURVE",
"382 247 OFFCURVE",
"417 247 CURVE SMOOTH",
"540 247 OFFCURVE",
"640 312 OFFCURVE",
"640 437 CURVE SMOOTH",
"640 595 OFFCURVE",
"502 670 OFFCURVE",
"367 670 CURVE SMOOTH",
"80 670 LINE",
"80 0 LINE"
);
},
{
closed = 1;
nodes = (
"674 0 LINE",
"423 333 LINE",
"255 284 LINE",
"446 0 LINE"
);
}
);
width = 689;
}
);
leftMetricsKey = "=I";
rightMetricsKey = "=L";
unicode = 0052;
},
{
color = 4;
glyphname = Racute;
layers = (
{
background = {
anchors = (
{
name = bottom;
position = "{366, 0}";
},
{
name = top;
position = "{308, 670}";
}
);
paths = (
{
closed = 1;
nodes = (
"110 670 LINE",
"110 0 LINE",
"200 0 LINE",
"200 585 LINE",
"352 585 LINE SMOOTH",
"438 585 OFFCURVE",
"508 544 OFFCURVE",
"508 469 CURVE SMOOTH",
"508 397 OFFCURVE",
"450 351 OFFCURVE",
"349 351 CURVE SMOOTH",
"295 351 OFFCURVE",
"238 359 OFFCURVE",
"193 372 CURVE",
"193 297 LINE",
"226 289 OFFCURVE",
"319 278 OFFCURVE",
"362 278 CURVE SMOOTH",
"478 278 OFFCURVE",
"600 344 OFFCURVE",
"600 469 CURVE SMOOTH",
"600 607 OFFCURVE",
"482 670 OFFCURVE",
"367 670 CURVE SMOOTH"
);
},
{
closed = 1;
nodes = (
"183 297 LINE",
"488 0 LINE",
"626 0 LINE",
"255 334 LINE"
);
},
{
closed = 1;
nodes = (
"366 890 LINE",
"256 755 LINE",
"338 755 LINE",
"480 890 LINE"
);
}
);
};
components = (
{
name = R;
},
{
name = acute;
transform = "{1, 0, 0, 1, 186, 170}";
}
);
layerId = "DEFEBCF2-9FF2-4B76-ADC8-AB6BD79F23E7";
width = 646;
},
{
background = {
anchors = (
{
name = bottom;
position = "{349, 0}";
},
{
name = top;
position = "{309, 670}";
}
);
paths = (
{
closed = 1;
nodes = (
"80 670 LINE",
"80 0 LINE",
"267 0 LINE",
"267 515 LINE",
"345 515 LINE SMOOTH",
"404 515 OFFCURVE",
"448 492 OFFCURVE",
"448 437 CURVE SMOOTH",
"448 389 OFFCURVE",
"404 356 OFFCURVE",
"345 356 CURVE SMOOTH",
"306 356 OFFCURVE",
"271 367 OFFCURVE",
"245 379 CURVE",
"245 284 LINE",
"275 278 OFFCURVE",
"382 247 OFFCURVE",
"417 247 CURVE SMOOTH",
"540 247 OFFCURVE",
"640 312 OFFCURVE",
"640 437 CURVE SMOOTH",
"640 595 OFFCURVE",
"502 670 OFFCURVE",
"367 670 CURVE SMOOTH"
);
},
{
closed = 1;
nodes = (
"255 284 LINE",
"446 0 LINE",
"674 0 LINE",
"423 333 LINE"
);
},
{
closed = 1;
nodes = (
"325 870 LINE",
"225 720 LINE",
"347 720 LINE",
"479 870 LINE"
);
}
);
};
components = (
{
name = R;
},
{
name = acute;
transform = "{1, 0, 0, 1, 145, 160}";
}
);
layerId = "2D992F1A-8218-4049-8E15-5955C72037C9";
width = 689;
}
);
unicode = 0154;
},
{
color = 4;
glyphname = Rcaron;
layers = (
{
background = {
anchors = (
{
name = bottom;
position = "{366, 0}";
},
{
name = top;
position = "{308, 670}";
}
);
paths = (
{
closed = 1;
nodes = (
"110 670 LINE",
"110 0 LINE",
"200 0 LINE",
"200 585 LINE",
"352 585 LINE SMOOTH",
"438 585 OFFCURVE",
"508 544 OFFCURVE",
"508 469 CURVE SMOOTH",
"508 397 OFFCURVE",
"450 351 OFFCURVE",
"349 351 CURVE SMOOTH",
"295 351 OFFCURVE",
"238 359 OFFCURVE",
"193 372 CURVE",
"193 297 LINE",
"226 289 OFFCURVE",
"319 278 OFFCURVE",
"362 278 CURVE SMOOTH",
"478 278 OFFCURVE",
"600 344 OFFCURVE",
"600 469 CURVE SMOOTH",
"600 607 OFFCURVE",
"482 670 OFFCURVE",
"367 670 CURVE SMOOTH"
);
},
{
closed = 1;
nodes = (
"183 297 LINE",
"488 0 LINE",
"626 0 LINE",
"255 334 LINE"
);
},
{
closed = 1;
nodes = (
"286 751 LINE",
"330 751 LINE",
"470 890 LINE",
"388 890 LINE",
"308 812 LINE",
"228 890 LINE",
"146 890 LINE"
);
}
);
};
components = (
{
name = R;
},
{
name = caron;
transform = "{1, 0, 0, 1, 66, 170}";
}
);
layerId = "DEFEBCF2-9FF2-4B76-ADC8-AB6BD79F23E7";
width = 646;
},
{
background = {
anchors = (
{
name = bottom;
position = "{349, 0}";
},
{
name = top;
position = "{309, 670}";
}
);
paths = (
{
closed = 1;
nodes = (
"80 670 LINE",
"80 0 LINE",
"267 0 LINE",
"267 515 LINE",
"345 515 LINE SMOOTH",
"404 515 OFFCURVE",
"448 492 OFFCURVE",
"448 437 CURVE SMOOTH",
"448 389 OFFCURVE",
"404 356 OFFCURVE",
"345 356 CURVE SMOOTH",
"306 356 OFFCURVE",
"271 367 OFFCURVE",
"245 379 CURVE",
"245 284 LINE",
"275 278 OFFCURVE",
"382 247 OFFCURVE",
"417 247 CURVE SMOOTH",
"540 247 OFFCURVE",
"640 312 OFFCURVE",
"640 437 CURVE SMOOTH",
"640 595 OFFCURVE",
"502 670 OFFCURVE",
"367 670 CURVE SMOOTH"
);
},
{
closed = 1;
nodes = (
"255 284 LINE",
"446 0 LINE",
"674 0 LINE",
"423 333 LINE"
);
},
{
closed = 1;
nodes = (
"257 720 LINE",
"361 720 LINE",
"481 870 LINE",
"349 870 LINE",
"309 811 LINE",
"269 870 LINE",
"137 870 LINE"
);
}
);
};
components = (
{
name = R;
},
{
name = caron;
transform = "{1, 0, 0, 1, 77, 160}";
}
);
layerId = "2D992F1A-8218-4049-8E15-5955C72037C9";
width = 689;
}
);
unicode = 0158;
},
{
color = 4;
glyphname = Rcommaaccent;
layers = (
{
background = {
anchors = (
{
name = bottom;
position = "{366, 0}";
},
{
name = top;
position = "{308, 670}";
}
);
paths = (
{
closed = 1;
nodes = (
"110 670 LINE",
"110 0 LINE",
"200 0 LINE",
"200 585 LINE",
"352 585 LINE SMOOTH",
"438 585 OFFCURVE",
"508 544 OFFCURVE",
"508 469 CURVE SMOOTH",
"508 397 OFFCURVE",
"450 351 OFFCURVE",
"349 351 CURVE SMOOTH",
"295 351 OFFCURVE",
"238 359 OFFCURVE",
"193 372 CURVE",
"193 297 LINE",
"226 289 OFFCURVE",
"319 278 OFFCURVE",
"362 278 CURVE SMOOTH",
"478 278 OFFCURVE",
"600 344 OFFCURVE",
"600 469 CURVE SMOOTH",
"600 607 OFFCURVE",
"482 670 OFFCURVE",
"367 670 CURVE SMOOTH"
);
},
{
closed = 1;
nodes = (
"183 297 LINE",
"488 0 LINE",
"626 0 LINE",
"255 334 LINE"
);
},
{
closed = 1;
nodes = (
"332 -70 LINE",
"357 -70 OFFCURVE",
"386 -88 OFFCURVE",
"386 -119 CURVE SMOOTH",
"386 -151 OFFCURVE",
"364 -173 OFFCURVE",
"328 -173 CURVE SMOOTH",
"308 -173 OFFCURVE",
"290 -168 OFFCURVE",
"274 -155 CURVE",
"274 -207 LINE",
"287 -216 OFFCURVE",
"308 -225 OFFCURVE",
"336 -225 CURVE SMOOTH",
"381 -225 OFFCURVE",
"439 -187 OFFCURVE",
"439 -116 CURVE SMOOTH",
"439 -60 OFFCURVE",
"389 -22 OFFCURVE",
"332 -22 CURVE"
);
}
);
};
components = (
{
name = R;
},
{
name = commaaccent;
transform = "{1, 0, 0, 1, 214, 0}";
}
);
layerId = "DEFEBCF2-9FF2-4B76-ADC8-AB6BD79F23E7";
width = 646;
},
{
background = {
anchors = (
{
name = bottom;
position = "{349, 0}";
},
{
name = top;
position = "{309, 670}";
}
);
paths = (
{
closed = 1;
nodes = (
"80 670 LINE",
"80 0 LINE",
"267 0 LINE",
"267 515 LINE",
"345 515 LINE SMOOTH",
"404 515 OFFCURVE",
"448 492 OFFCURVE",
"448 437 CURVE SMOOTH",
"448 389 OFFCURVE",
"404 356 OFFCURVE",
"345 356 CURVE SMOOTH",
"306 356 OFFCURVE",
"271 367 OFFCURVE",
"245 379 CURVE",
"245 284 LINE",
"275 278 OFFCURVE",
"382 247 OFFCURVE",
"417 247 CURVE SMOOTH",
"540 247 OFFCURVE",
"640 312 OFFCURVE",
"640 437 CURVE SMOOTH",
"640 595 OFFCURVE",
"502 670 OFFCURVE",
"367 670 CURVE SMOOTH"
);
},
{
closed = 1;
nodes = (
"255 284 LINE",
"446 0 LINE",
"674 0 LINE",
"423 333 LINE"
);
},
{
closed = 1;
nodes = (
"312 -101 LINE",
"327 -101 OFFCURVE",
"339 -108 OFFCURVE",
"339 -120 CURVE SMOOTH",
"339 -132 OFFCURVE",
"328 -138 OFFCURVE",
"313 -138 CURVE SMOOTH",
"297 -138 OFFCURVE",
"282 -134 OFFCURVE",
"266 -123 CURVE",
"266 -207 LINE",
"279 -216 OFFCURVE",
"297 -225 OFFCURVE",
"319 -225 CURVE SMOOTH",
"372 -225 OFFCURVE",
"422 -190 OFFCURVE",
"422 -119 CURVE SMOOTH",
"422 -54 OFFCURVE",
"369 -22 OFFCURVE",
"312 -22 CURVE"
);
}
);
};
components = (
{
name = R;
},
{
name = commaaccent;
transform = "{1, 0, 0, 1, 197, 0}";
}
);
layerId = "2D992F1A-8218-4049-8E15-5955C72037C9";
width = 689;
}
);
unicode = 0156;
},
{
color = 4;
glyphname = S;
layers = (
{
anchors = (
{
name = bottom;
position = "{262, 0}";
},
{
name = top;
position = "{273, 670}";
}
);
background = {
anchors = (
{
name = bottom;
position = "{262, 0}";
},
{
name = top;
position = "{273, 670}";
}
);
paths = (
{
closed = 1;
nodes = (
"153 680 OFFCURVE",
"50 598 OFFCURVE",
"50 492 CURVE SMOOTH",
"50 417 OFFCURVE",
"78 361 OFFCURVE",
"174 318 CURVE SMOOTH",
"285 268 LINE SMOOTH",
"326 250 OFFCURVE",
"381 222 OFFCURVE",
"381 172 CURVE SMOOTH",
"381 113 OFFCURVE",
"322 78 OFFCURVE",
"255 78 CURVE SMOOTH",
"170 78 OFFCURVE",
"103 112 OFFCURVE",
"51 148 CURVE",
"51 55 LINE",
"99 21 OFFCURVE",
"166 -10 OFFCURVE",
"243 -10 CURVE SMOOTH",
"366 -10 OFFCURVE",
"473 67 OFFCURVE",
"473 176 CURVE SMOOTH",
"473 260 OFFCURVE",
"426 304 OFFCURVE",
"334 346 CURVE SMOOTH",
"242 388 LINE SMOOTH",
"187 413 OFFCURVE",
"143 435 OFFCURVE",
"143 489 CURVE SMOOTH",
"143 561 OFFCURVE",
"221 592 OFFCURVE",
"282 592 CURVE SMOOTH",
"344 592 OFFCURVE",
"399 562 OFFCURVE",
"437 534 CURVE",
"437 627 LINE",
"398 652 OFFCURVE",
"351 680 OFFCURVE",
"272 680 CURVE SMOOTH"
);
}
);
};
layerId = "DEFEBCF2-9FF2-4B76-ADC8-AB6BD79F23E7";
leftMetricsKey = "=O";
rightMetricsKey = "=O";
paths = (
{
closed = 1;
nodes = (
"366 -10 OFFCURVE",
"473 67 OFFCURVE",
"473 176 CURVE SMOOTH",
"473 260 OFFCURVE",
"426 304 OFFCURVE",
"334 346 CURVE SMOOTH",
"242 388 LINE SMOOTH",
"187 413 OFFCURVE",
"143 435 OFFCURVE",
"143 489 CURVE SMOOTH",
"143 561 OFFCURVE",
"221 592 OFFCURVE",
"282 592 CURVE SMOOTH",
"344 592 OFFCURVE",
"399 562 OFFCURVE",
"437 534 CURVE",
"437 627 LINE",
"398 652 OFFCURVE",
"351 680 OFFCURVE",
"272 680 CURVE SMOOTH",
"153 680 OFFCURVE",
"50 598 OFFCURVE",
"50 492 CURVE SMOOTH",
"50 417 OFFCURVE",
"78 361 OFFCURVE",
"174 318 CURVE SMOOTH",
"285 268 LINE SMOOTH",
"326 250 OFFCURVE",
"381 222 OFFCURVE",
"381 172 CURVE SMOOTH",
"381 113 OFFCURVE",
"322 78 OFFCURVE",
"255 78 CURVE SMOOTH",
"170 78 OFFCURVE",
"103 112 OFFCURVE",
"51 148 CURVE",
"51 55 LINE",
"99 21 OFFCURVE",
"166 -10 OFFCURVE",
"243 -10 CURVE SMOOTH"
);
}
);
width = 523;
},
{
anchors = (
{
name = bottom;
position = "{287, 0}";
},
{
name = top;
position = "{294, 670}";
}
);
background = {
anchors = (
{
name = bottom;
position = "{287, 0}";
},
{
name = top;
position = "{294, 670}";
}
);
paths = (
{
closed = 1;
nodes = (
"162 685 OFFCURVE",
"40 608 OFFCURVE",
"40 467 CURVE SMOOTH",
"40 386 OFFCURVE",
"69 310 OFFCURVE",
"182 274 CURVE SMOOTH",
"277 244 LINE SMOOTH",
"313 233 OFFCURVE",
"336 215 OFFCURVE",
"336 195 CURVE SMOOTH",
"336 167 OFFCURVE",
"314 147 OFFCURVE",
"268 147 CURVE SMOOTH",
"193 147 OFFCURVE",
"107 181 OFFCURVE",
"43 229 CURVE",
"43 58 LINE",
"102 16 OFFCURVE",
"185 -15 OFFCURVE",
"265 -15 CURVE SMOOTH",
"420 -15 OFFCURVE",
"543 77 OFFCURVE",
"543 205 CURVE SMOOTH",
"543 277 OFFCURVE",
"502 335 OFFCURVE",
"405 373 CURVE SMOOTH",
"337 400 LINE SMOOTH",
"281 422 OFFCURVE",
"237 437 OFFCURVE",
"237 470 CURVE SMOOTH",
"237 501 OFFCURVE",
"264 523 OFFCURVE",
"308 523 CURVE SMOOTH",
"384 523 OFFCURVE",
"445 494 OFFCURVE",
"502 461 CURVE",
"502 632 LINE",
"455 664 OFFCURVE",
"371 685 OFFCURVE",
"293 685 CURVE SMOOTH"
);
}
);
};
layerId = "2D992F1A-8218-4049-8E15-5955C72037C9";
leftMetricsKey = "=O";
rightMetricsKey = "=O-10";
paths = (
{
closed = 1;
nodes = (
"420 -15 OFFCURVE",
"543 77 OFFCURVE",
"543 205 CURVE SMOOTH",
"543 277 OFFCURVE",
"502 335 OFFCURVE",
"405 373 CURVE SMOOTH",
"337 400 LINE SMOOTH",
"281 422 OFFCURVE",
"237 437 OFFCURVE",
"237 470 CURVE SMOOTH",
"237 501 OFFCURVE",
"264 523 OFFCURVE",
"308 523 CURVE SMOOTH",
"384 523 OFFCURVE",
"445 494 OFFCURVE",
"502 461 CURVE",
"502 632 LINE",
"455 664 OFFCURVE",
"371 685 OFFCURVE",
"293 685 CURVE SMOOTH",
"162 685 OFFCURVE",
"40 608 OFFCURVE",
"40 467 CURVE SMOOTH",
"40 386 OFFCURVE",
"69 310 OFFCURVE",
"182 274 CURVE SMOOTH",
"277 244 LINE SMOOTH",
"313 233 OFFCURVE",
"336 215 OFFCURVE",
"336 195 CURVE SMOOTH",
"336 167 OFFCURVE",
"314 147 OFFCURVE",
"268 147 CURVE SMOOTH",
"193 147 OFFCURVE",
"107 181 OFFCURVE",
"43 229 CURVE",
"43 58 LINE",
"102 16 OFFCURVE",
"185 -15 OFFCURVE",
"265 -15 CURVE SMOOTH"
);
}
);
width = 573;
}
);
leftMetricsKey = "=O-20";
rightMetricsKey = "=O-20";
unicode = 0053;
},
{
color = 4;
glyphname = Sacute;
layers = (
{
background = {
anchors = (
{
name = bottom;
position = "{262, 0}";
},
{
name = top;
position = "{273, 670}";
}
);
paths = (
{
closed = 1;
nodes = (
"153 680 OFFCURVE",
"50 598 OFFCURVE",
"50 492 CURVE SMOOTH",
"50 417 OFFCURVE",
"78 361 OFFCURVE",
"174 318 CURVE SMOOTH",
"285 268 LINE SMOOTH",
"326 250 OFFCURVE",
"381 222 OFFCURVE",
"381 172 CURVE SMOOTH",
"381 113 OFFCURVE",
"322 78 OFFCURVE",
"255 78 CURVE SMOOTH",
"170 78 OFFCURVE",
"103 112 OFFCURVE",
"51 148 CURVE",
"51 55 LINE",
"99 21 OFFCURVE",
"166 -10 OFFCURVE",
"243 -10 CURVE SMOOTH",
"366 -10 OFFCURVE",
"473 67 OFFCURVE",
"473 176 CURVE SMOOTH",
"473 260 OFFCURVE",
"426 304 OFFCURVE",
"334 346 CURVE SMOOTH",
"242 388 LINE SMOOTH",
"187 413 OFFCURVE",
"143 435 OFFCURVE",
"143 489 CURVE SMOOTH",
"143 561 OFFCURVE",
"221 592 OFFCURVE",
"282 592 CURVE SMOOTH",
"344 592 OFFCURVE",
"399 562 OFFCURVE",
"437 534 CURVE",
"437 627 LINE",
"398 652 OFFCURVE",
"351 680 OFFCURVE",
"272 680 CURVE SMOOTH"
);
},
{
closed = 1;
nodes = (
"331 890 LINE",
"221 755 LINE",
"303 755 LINE",
"445 890 LINE"
);
}
);
};
components = (
{
name = S;
},
{
name = acute;
transform = "{1, 0, 0, 1, 151, 170}";
}
);
layerId = "DEFEBCF2-9FF2-4B76-ADC8-AB6BD79F23E7";
width = 523;
},
{
background = {
anchors = (
{
name = bottom;
position = "{287, 0}";
},
{
name = top;
position = "{294, 670}";
}
);
paths = (
{
closed = 1;
nodes = (
"162 685 OFFCURVE",
"40 608 OFFCURVE",
"40 467 CURVE SMOOTH",
"40 386 OFFCURVE",
"69 310 OFFCURVE",
"182 274 CURVE SMOOTH",
"277 244 LINE SMOOTH",
"313 233 OFFCURVE",
"336 215 OFFCURVE",
"336 195 CURVE SMOOTH",
"336 167 OFFCURVE",
"314 147 OFFCURVE",
"268 147 CURVE SMOOTH",
"193 147 OFFCURVE",
"107 181 OFFCURVE",
"43 229 CURVE",
"43 58 LINE",
"102 16 OFFCURVE",
"185 -15 OFFCURVE",
"265 -15 CURVE SMOOTH",
"420 -15 OFFCURVE",
"543 77 OFFCURVE",
"543 205 CURVE SMOOTH",
"543 277 OFFCURVE",
"502 335 OFFCURVE",
"405 373 CURVE SMOOTH",
"337 400 LINE SMOOTH",
"281 422 OFFCURVE",
"237 437 OFFCURVE",
"237 470 CURVE SMOOTH",
"237 501 OFFCURVE",
"264 523 OFFCURVE",
"308 523 CURVE SMOOTH",
"384 523 OFFCURVE",
"445 494 OFFCURVE",
"502 461 CURVE",
"502 632 LINE",
"455 664 OFFCURVE",
"371 685 OFFCURVE",
"293 685 CURVE SMOOTH"
);
},
{
closed = 1;
nodes = (
"310 870 LINE",
"210 720 LINE",
"332 720 LINE",
"464 870 LINE"
);
}
);
};
components = (
{
name = S;
},
{
name = acute;
transform = "{1, 0, 0, 1, 130, 160}";
}
);
layerId = "2D992F1A-8218-4049-8E15-5955C72037C9";
width = 573;
}
);
unicode = 015A;
},
{
color = 4;
glyphname = Scaron;
layers = (
{
background = {
anchors = (
{
name = bottom;
position = "{262, 0}";
},
{
name = top;
position = "{273, 670}";
}
);
paths = (
{
closed = 1;
nodes = (
"153 680 OFFCURVE",
"50 598 OFFCURVE",
"50 492 CURVE SMOOTH",
"50 417 OFFCURVE",
"78 361 OFFCURVE",
"174 318 CURVE SMOOTH",
"285 268 LINE SMOOTH",
"326 250 OFFCURVE",
"381 222 OFFCURVE",
"381 172 CURVE SMOOTH",
"381 113 OFFCURVE",
"322 78 OFFCURVE",
"255 78 CURVE SMOOTH",
"170 78 OFFCURVE",
"103 112 OFFCURVE",
"51 148 CURVE",
"51 55 LINE",
"99 21 OFFCURVE",
"166 -10 OFFCURVE",
"243 -10 CURVE SMOOTH",
"366 -10 OFFCURVE",
"473 67 OFFCURVE",
"473 176 CURVE SMOOTH",
"473 260 OFFCURVE",
"426 304 OFFCURVE",
"334 346 CURVE SMOOTH",
"242 388 LINE SMOOTH",
"187 413 OFFCURVE",
"143 435 OFFCURVE",
"143 489 CURVE SMOOTH",
"143 561 OFFCURVE",
"221 592 OFFCURVE",
"282 592 CURVE SMOOTH",
"344 592 OFFCURVE",
"399 562 OFFCURVE",
"437 534 CURVE",
"437 627 LINE",
"398 652 OFFCURVE",
"351 680 OFFCURVE",
"272 680 CURVE SMOOTH"
);
},
{
closed = 1;
nodes = (
"251 751 LINE",
"295 751 LINE",
"435 890 LINE",
"353 890 LINE",
"273 812 LINE",
"193 890 LINE",
"111 890 LINE"
);
}
);
};
components = (
{
name = S;
},
{
name = caron;
transform = "{1, 0, 0, 1, 31, 170}";
}
);
layerId = "DEFEBCF2-9FF2-4B76-ADC8-AB6BD79F23E7";
width = 523;
},
{
background = {
anchors = (
{
name = bottom;
position = "{287, 0}";
},
{
name = top;
position = "{294, 670}";
}
);
paths = (
{
closed = 1;
nodes = (
"162 685 OFFCURVE",
"40 608 OFFCURVE",
"40 467 CURVE SMOOTH",
"40 386 OFFCURVE",
"69 310 OFFCURVE",
"182 274 CURVE SMOOTH",
"277 244 LINE SMOOTH",
"313 233 OFFCURVE",
"336 215 OFFCURVE",
"336 195 CURVE SMOOTH",
"336 167 OFFCURVE",
"314 147 OFFCURVE",
"268 147 CURVE SMOOTH",
"193 147 OFFCURVE",
"107 181 OFFCURVE",
"43 229 CURVE",
"43 58 LINE",
"102 16 OFFCURVE",
"185 -15 OFFCURVE",
"265 -15 CURVE SMOOTH",
"420 -15 OFFCURVE",
"543 77 OFFCURVE",
"543 205 CURVE SMOOTH",
"543 277 OFFCURVE",
"502 335 OFFCURVE",
"405 373 CURVE SMOOTH",
"337 400 LINE SMOOTH",
"281 422 OFFCURVE",
"237 437 OFFCURVE",
"237 470 CURVE SMOOTH",
"237 501 OFFCURVE",
"264 523 OFFCURVE",
"308 523 CURVE SMOOTH",
"384 523 OFFCURVE",
"445 494 OFFCURVE",
"502 461 CURVE",
"502 632 LINE",
"455 664 OFFCURVE",
"371 685 OFFCURVE",
"293 685 CURVE SMOOTH"
);
},
{
closed = 1;
nodes = (
"242 720 LINE",
"346 720 LINE",
"466 870 LINE",
"334 870 LINE",
"294 811 LINE",
"254 870 LINE",
"122 870 LINE"
);
}
);
};
components = (
{
name = S;
},
{
name = caron;
transform = "{1, 0, 0, 1, 62, 160}";
}
);
layerId = "2D992F1A-8218-4049-8E15-5955C72037C9";
width = 573;
}
);
unicode = 0160;
},
{
color = 4;
glyphname = Scedilla;
layers = (
{
background = {
anchors = (
{
name = bottom;
position = "{262, 0}";
},
{
name = top;
position = "{273, 670}";
}
);
paths = (
{
closed = 1;
nodes = (
"153 680 OFFCURVE",
"50 598 OFFCURVE",
"50 492 CURVE SMOOTH",
"50 417 OFFCURVE",
"78 361 OFFCURVE",
"174 318 CURVE SMOOTH",
"285 268 LINE SMOOTH",
"326 250 OFFCURVE",
"381 222 OFFCURVE",
"381 172 CURVE SMOOTH",
"381 113 OFFCURVE",
"322 78 OFFCURVE",
"255 78 CURVE SMOOTH",
"170 78 OFFCURVE",
"103 112 OFFCURVE",
"51 148 CURVE",
"51 55 LINE",
"99 21 OFFCURVE",
"166 -10 OFFCURVE",
"243 -10 CURVE SMOOTH",
"366 -10 OFFCURVE",
"473 67 OFFCURVE",
"473 176 CURVE SMOOTH",
"473 260 OFFCURVE",
"426 304 OFFCURVE",
"334 346 CURVE SMOOTH",
"242 388 LINE SMOOTH",
"187 413 OFFCURVE",
"143 435 OFFCURVE",
"143 489 CURVE SMOOTH",
"143 561 OFFCURVE",
"221 592 OFFCURVE",
"282 592 CURVE SMOOTH",
"344 592 OFFCURVE",
"399 562 OFFCURVE",
"437 534 CURVE",
"437 627 LINE",
"398 652 OFFCURVE",
"351 680 OFFCURVE",
"272 680 CURVE SMOOTH"
);
},
{
closed = 1;
nodes = (
"234 2 LINE",
"220 -118 LINE",
"236 -130 LINE",
"249 -123 OFFCURVE",
"261 -121 OFFCURVE",
"271 -121 CURVE SMOOTH",
"296 -121 OFFCURVE",
"310 -132 OFFCURVE",
"310 -150 CURVE SMOOTH",
"310 -168 OFFCURVE",
"294 -181 OFFCURVE",
"271 -181 CURVE SMOOTH",
"242 -181 OFFCURVE",
"218 -171 OFFCURVE",
"197 -160 CURVE",
"190 -215 LINE",
"211 -232 OFFCURVE",
"248 -240 OFFCURVE",
"268 -240 CURVE SMOOTH",
"337 -240 OFFCURVE",
"378 -200 OFFCURVE",
"378 -147 CURVE SMOOTH",
"378 -98 OFFCURVE",
"337 -63 OFFCURVE",
"282 -70 CURVE",
"288 2 LINE"
);
}
);
};
components = (
{
name = S;
},
{
name = cedilla;
transform = "{1, 0, 0, 1, 105, 0}";
}
);
layerId = "DEFEBCF2-9FF2-4B76-ADC8-AB6BD79F23E7";
width = 523;
},
{
background = {
anchors = (
{
name = bottom;
position = "{287, 0}";
},
{
name = top;
position = "{294, 670}";
}
);
paths = (
{
closed = 1;
nodes = (
"162 685 OFFCURVE",
"40 608 OFFCURVE",
"40 467 CURVE SMOOTH",
"40 386 OFFCURVE",
"69 310 OFFCURVE",
"182 274 CURVE SMOOTH",
"277 244 LINE SMOOTH",
"313 233 OFFCURVE",
"336 215 OFFCURVE",
"336 195 CURVE SMOOTH",
"336 167 OFFCURVE",
"314 147 OFFCURVE",
"268 147 CURVE SMOOTH",
"193 147 OFFCURVE",
"107 181 OFFCURVE",
"43 229 CURVE",
"43 58 LINE",
"102 16 OFFCURVE",
"185 -15 OFFCURVE",
"265 -15 CURVE SMOOTH",
"420 -15 OFFCURVE",
"543 77 OFFCURVE",
"543 205 CURVE SMOOTH",
"543 277 OFFCURVE",
"502 335 OFFCURVE",
"405 373 CURVE SMOOTH",
"337 400 LINE SMOOTH",
"281 422 OFFCURVE",
"237 437 OFFCURVE",
"237 470 CURVE SMOOTH",
"237 501 OFFCURVE",
"264 523 OFFCURVE",
"308 523 CURVE SMOOTH",
"384 523 OFFCURVE",
"445 494 OFFCURVE",
"502 461 CURVE",
"502 632 LINE",
"455 664 OFFCURVE",
"371 685 OFFCURVE",
"293 685 CURVE SMOOTH"
);
},
{
closed = 1;
nodes = (
"226 2 LINE",
"214 -114 LINE",
"238 -126 LINE",
"251 -119 OFFCURVE",
"258 -117 OFFCURVE",
"268 -117 CURVE SMOOTH",
"283 -117 OFFCURVE",
"298 -125 OFFCURVE",
"298 -141 CURVE SMOOTH",
"298 -159 OFFCURVE",
"279 -167 OFFCURVE",
"266 -167 CURVE SMOOTH",
"237 -167 OFFCURVE",
"217 -152 OFFCURVE",
"196 -141 CURVE",
"189 -215 LINE",
"210 -232 OFFCURVE",
"249 -240 OFFCURVE",
"269 -240 CURVE SMOOTH",
"338 -240 OFFCURVE",
"387 -199 OFFCURVE",
"387 -131 CURVE SMOOTH",
"387 -82 OFFCURVE",
"351 -44 OFFCURVE",
"297 -46 CURVE",
"300 2 LINE"
);
}
);
};
components = (
{
name = S;
},
{
name = cedilla;
transform = "{1, 0, 0, 1, 109, 0}";
}
);
layerId = "2D992F1A-8218-4049-8E15-5955C72037C9";
width = 573;
}
);
unicode = 015E;
},
{
color = 4;
glyphname = T;
layers = (
{
anchors = (
{
name = bottom;
position = "{306, 0}";
},
{
name = center;
position = "{306, 335}";
},
{
name = top;
position = "{306, 670}";
}
);
background = {
anchors = (
{
name = bottom;
position = "{306, 0}";
},
{
name = center;
position = "{306, 335}";
},
{
name = top;
position = "{306, 670}";
}
);
paths = (
{
closed = 1;
nodes = (
"261 670 LINE",
"261 3 LINE",
"351 3 LINE",
"351 670 LINE"
);
},
{
closed = 1;
nodes = (
"30 670 LINE",
"30 585 LINE",
"582 585 LINE",
"582 670 LINE"
);
}
);
};
layerId = "DEFEBCF2-9FF2-4B76-ADC8-AB6BD79F23E7";
paths = (
{
closed = 1;
nodes = (
"351 3 LINE",
"351 670 LINE",
"261 670 LINE",
"261 3 LINE"
);
},
{
closed = 1;
nodes = (
"582 585 LINE",
"582 670 LINE",
"30 670 LINE",
"30 585 LINE"
);
}
);
width = 611;
},
{
anchors = (
{
name = bottom;
position = "{329, 0}";
},
{
name = center;
position = "{311, 335}";
},
{
name = top;
position = "{311, 670}";
}
);
background = {
anchors = (
{
name = bottom;
position = "{329, 0}";
},
{
name = center;
position = "{311, 335}";
},
{
name = top;
position = "{311, 670}";
}
);
paths = (
{
closed = 1;
nodes = (
"217 670 LINE",
"217 3 LINE",
"404 3 LINE",
"404 670 LINE"
);
},
{
closed = 1;
nodes = (
"35 670 LINE",
"35 515 LINE",
"586 515 LINE",
"586 670 LINE"
);
}
);
};
layerId = "2D992F1A-8218-4049-8E15-5955C72037C9";
paths = (
{
closed = 1;
nodes = (
"404 3 LINE",
"404 670 LINE",
"217 670 LINE",
"217 3 LINE"
);
},
{
closed = 1;
nodes = (
"586 515 LINE",
"586 670 LINE",
"35 670 LINE",
"35 515 LINE"
);
}
);
width = 621;
}
);
unicode = 0054;
},
{
color = 4;
glyphname = Tbar;
layers = (
{
anchors = (
{
name = top;
position = "{306, 406}";
}
);
background = {
anchors = (
{
name = bottom;
position = "{306, 0}";
},
{
name = center;
position = "{306, 335}";
},
{
name = top;
position = "{306, 670}";
}
);
paths = (
{
closed = 1;
nodes = (
"261 670 LINE",
"261 3 LINE",
"351 3 LINE",
"351 670 LINE"
);
},
{
closed = 1;
nodes = (
"30 670 LINE",
"30 585 LINE",
"582 585 LINE",
"582 670 LINE"
);
},
{
closed = 1;
nodes = (
"131 888 LINE",
"131 808 LINE",
"481 808 LINE",
"481 888 LINE"
);
}
);
};
components = (
{
name = T;
}
);
layerId = "DEFEBCF2-9FF2-4B76-ADC8-AB6BD79F23E7";
paths = (
{
closed = 1;
nodes = (
"481 326 LINE",
"481 406 LINE",
"131 406 LINE",
"131 326 LINE"
);
}
);
width = 611;
},
{
anchors = (
{
name = top;
position = "{311, 391}";
}
);
background = {
anchors = (
{
name = bottom;
position = "{329, 0}";
},
{
name = center;
position = "{311, 335}";
},
{
name = top;
position = "{311, 670}";
}
);
paths = (
{
closed = 1;
nodes = (
"217 670 LINE",
"217 3 LINE",
"404 3 LINE",
"404 670 LINE"
);
},
{
closed = 1;
nodes = (
"35 670 LINE",
"35 515 LINE",
"586 515 LINE",
"586 670 LINE"
);
},
{
closed = 1;
nodes = (
"126 870 LINE",
"126 760 LINE",
"496 760 LINE",
"496 870 LINE"
);
}
);
};
components = (
{
name = T;
}
);
layerId = "2D992F1A-8218-4049-8E15-5955C72037C9";
paths = (
{
closed = 1;
nodes = (
"496 281 LINE",
"496 391 LINE",
"126 391 LINE",
"126 281 LINE"
);
}
);
width = 621;
}
);
unicode = 0166;
},
{
color = 4;
glyphname = Tcaron;
layers = (
{
background = {
anchors = (
{
name = bottom;
position = "{306, 0}";
},
{
name = center;
position = "{306, 335}";
},
{
name = top;
position = "{306, 670}";
}
);
paths = (
{
closed = 1;
nodes = (
"261 670 LINE",
"261 3 LINE",
"351 3 LINE",
"351 670 LINE"
);
},
{
closed = 1;
nodes = (
"30 670 LINE",
"30 585 LINE",
"582 585 LINE",
"582 670 LINE"
);
},
{
closed = 1;
nodes = (
"284 751 LINE",
"328 751 LINE",
"468 890 LINE",
"386 890 LINE",
"306 812 LINE",
"226 890 LINE",
"144 890 LINE"
);
}
);
};
components = (
{
name = T;
},
{
name = caron;
transform = "{1, 0, 0, 1, 64, 170}";
}
);
layerId = "DEFEBCF2-9FF2-4B76-ADC8-AB6BD79F23E7";
width = 611;
},
{
background = {
anchors = (
{
name = bottom;
position = "{329, 0}";
},
{
name = center;
position = "{311, 335}";
},
{
name = top;
position = "{311, 670}";
}
);
paths = (
{
closed = 1;
nodes = (
"217 670 LINE",
"217 3 LINE",
"404 3 LINE",
"404 670 LINE"
);
},
{
closed = 1;
nodes = (
"35 670 LINE",
"35 515 LINE",
"586 515 LINE",
"586 670 LINE"
);
},
{
closed = 1;
nodes = (
"259 720 LINE",
"363 720 LINE",
"483 870 LINE",
"351 870 LINE",
"311 811 LINE",
"271 870 LINE",
"139 870 LINE"
);
}
);
};
components = (
{
name = T;
},
{
name = caron;
transform = "{1, 0, 0, 1, 79, 160}";
}
);
layerId = "2D992F1A-8218-4049-8E15-5955C72037C9";
width = 621;
}
);
unicode = 0164;
},
{
color = 4;
glyphname = Tcedilla;
layers = (
{
background = {
anchors = (
{
name = bottom;
position = "{306, 0}";
},
{
name = center;
position = "{306, 335}";
},
{
name = top;
position = "{306, 670}";
}
);
paths = (
{
closed = 1;
nodes = (
"261 670 LINE",
"261 3 LINE",
"351 3 LINE",
"351 670 LINE"
);
},
{
closed = 1;
nodes = (
"30 670 LINE",
"30 585 LINE",
"582 585 LINE",
"582 670 LINE"
);
},
{
closed = 1;
nodes = (
"278 2 LINE",
"264 -118 LINE",
"280 -130 LINE",
"293 -123 OFFCURVE",
"305 -121 OFFCURVE",
"315 -121 CURVE SMOOTH",
"340 -121 OFFCURVE",
"354 -132 OFFCURVE",
"354 -150 CURVE SMOOTH",
"354 -168 OFFCURVE",
"338 -181 OFFCURVE",
"315 -181 CURVE SMOOTH",
"286 -181 OFFCURVE",
"262 -171 OFFCURVE",
"241 -160 CURVE",
"234 -215 LINE",
"255 -232 OFFCURVE",
"292 -240 OFFCURVE",
"312 -240 CURVE SMOOTH",
"381 -240 OFFCURVE",
"422 -200 OFFCURVE",
"422 -147 CURVE SMOOTH",
"422 -98 OFFCURVE",
"381 -63 OFFCURVE",
"326 -70 CURVE",
"332 2 LINE"
);
}
);
};
components = (
{
name = T;
},
{
name = cedilla;
transform = "{1, 0, 0, 1, 149, 0}";
}
);
layerId = "DEFEBCF2-9FF2-4B76-ADC8-AB6BD79F23E7";
width = 611;
},
{
background = {
anchors = (
{
name = bottom;
position = "{329, 0}";
},
{
name = center;
position = "{311, 335}";
},
{
name = top;
position = "{311, 670}";
}
);
paths = (
{
closed = 1;
nodes = (
"217 670 LINE",
"217 3 LINE",
"404 3 LINE",
"404 670 LINE"
);
},
{
closed = 1;
nodes = (
"35 670 LINE",
"35 515 LINE",
"586 515 LINE",
"586 670 LINE"
);
},
{
closed = 1;
nodes = (
"268 2 LINE",
"256 -114 LINE",
"280 -126 LINE",
"293 -119 OFFCURVE",
"300 -117 OFFCURVE",
"310 -117 CURVE SMOOTH",
"325 -117 OFFCURVE",
"340 -125 OFFCURVE",
"340 -141 CURVE SMOOTH",
"340 -159 OFFCURVE",
"321 -167 OFFCURVE",
"308 -167 CURVE SMOOTH",
"279 -167 OFFCURVE",
"259 -152 OFFCURVE",
"238 -141 CURVE",
"231 -215 LINE",
"252 -232 OFFCURVE",
"291 -240 OFFCURVE",
"311 -240 CURVE SMOOTH",
"380 -240 OFFCURVE",
"429 -199 OFFCURVE",
"429 -131 CURVE SMOOTH",
"429 -82 OFFCURVE",
"393 -44 OFFCURVE",
"339 -46 CURVE",
"342 2 LINE"
);
}
);
};
components = (
{
name = T;
},
{
name = cedilla;
transform = "{1, 0, 0, 1, 151, 0}";
}
);
layerId = "2D992F1A-8218-4049-8E15-5955C72037C9";
width = 621;
}
);
unicode = 0162;
},
{
color = 4;
glyphname = U;
layers = (
{
anchors = (
{
name = ogonek;
position = "{469, 10}";
},
{
name = top;
position = "{376, 670}";
}
);
background = {
anchors = (
{
name = ogonek;
position = "{469, 10}";
},
{
name = top;
position = "{376, 670}";
}
);
paths = (
{
closed = 1;
nodes = (
"562 672 LINE",
"562 268 LINE SMOOTH",
"562 132 OFFCURVE",
"476 80 OFFCURVE",
"376 79 CURVE SMOOTH",
"276 78 OFFCURVE",
"190 132 OFFCURVE",
"190 268 CURVE SMOOTH",
"190 672 LINE",
"100 672 LINE",
"100 265 LINE SMOOTH",
"100 90 OFFCURVE",
"219 -13 OFFCURVE",
"376 -13 CURVE SMOOTH",
"533 -13 OFFCURVE",
"652 90 OFFCURVE",
"652 265 CURVE SMOOTH",
"652 672 LINE"
);
}
);
};
layerId = "DEFEBCF2-9FF2-4B76-ADC8-AB6BD79F23E7";
leftMetricsKey = "=L-10";
rightMetricsKey = "=|L-10";
paths = (
{
closed = 1;
nodes = (
"533 -13 OFFCURVE",
"652 90 OFFCURVE",
"652 265 CURVE SMOOTH",
"652 672 LINE",
"562 672 LINE",
"562 268 LINE SMOOTH",
"562 132 OFFCURVE",
"476 80 OFFCURVE",
"376 79 CURVE SMOOTH",
"276 78 OFFCURVE",
"190 132 OFFCURVE",
"190 268 CURVE SMOOTH",
"190 672 LINE",
"100 672 LINE",
"100 265 LINE SMOOTH",
"100 90 OFFCURVE",
"219 -13 OFFCURVE",
"376 -13 CURVE SMOOTH"
);
}
);
width = 752;
},
{
anchors = (
{
name = ogonek;
position = "{483, 10}";
},
{
name = top;
position = "{373, 670}";
}
);
background = {
anchors = (
{
name = ogonek;
position = "{483, 10}";
},
{
name = top;
position = "{373, 670}";
}
);
paths = (
{
closed = 1;
nodes = (
"489 672 LINE",
"489 278 LINE SMOOTH",
"489 209 OFFCURVE",
"453 161 OFFCURVE",
"373 160 CURVE SMOOTH",
"293 159 OFFCURVE",
"257 209 OFFCURVE",
"257 278 CURVE SMOOTH",
"257 672 LINE",
"70 672 LINE",
"70 265 LINE SMOOTH",
"70 90 OFFCURVE",
"206 -15 OFFCURVE",
"373 -15 CURVE SMOOTH",
"540 -15 OFFCURVE",
"676 90 OFFCURVE",
"676 265 CURVE SMOOTH",
"676 672 LINE"
);
}
);
};
layerId = "2D992F1A-8218-4049-8E15-5955C72037C9";
leftMetricsKey = "=L-10";
rightMetricsKey = "=|L-10";
paths = (
{
closed = 1;
nodes = (
"540 -15 OFFCURVE",
"676 90 OFFCURVE",
"676 265 CURVE SMOOTH",
"676 672 LINE",
"489 672 LINE",
"489 278 LINE SMOOTH",
"489 209 OFFCURVE",
"453 161 OFFCURVE",
"373 160 CURVE SMOOTH",
"293 159 OFFCURVE",
"257 209 OFFCURVE",
"257 278 CURVE SMOOTH",
"257 672 LINE",
"70 672 LINE",
"70 265 LINE SMOOTH",
"70 90 OFFCURVE",
"206 -15 OFFCURVE",
"373 -15 CURVE SMOOTH"
);
}
);
width = 746;
}
);
leftMetricsKey = "=I";
rightMetricsKey = "=I";
unicode = 0055;
},
{
color = 4;
glyphname = Uacute;
layers = (
{
background = {
anchors = (
{
name = ogonek;
position = "{469, 10}";
},
{
name = top;
position = "{376, 670}";
}
);
paths = (
{
closed = 1;
nodes = (
"562 672 LINE",
"562 268 LINE SMOOTH",
"562 132 OFFCURVE",
"476 80 OFFCURVE",
"376 79 CURVE SMOOTH",
"276 78 OFFCURVE",
"190 132 OFFCURVE",
"190 268 CURVE SMOOTH",
"190 672 LINE",
"100 672 LINE",
"100 265 LINE SMOOTH",
"100 90 OFFCURVE",
"219 -13 OFFCURVE",
"376 -13 CURVE SMOOTH",
"533 -13 OFFCURVE",
"652 90 OFFCURVE",
"652 265 CURVE SMOOTH",
"652 672 LINE"
);
},
{
closed = 1;
nodes = (
"434 890 LINE",
"324 755 LINE",
"406 755 LINE",
"548 890 LINE"
);
}
);
};
components = (
{
name = U;
},
{
name = acute;
transform = "{1, 0, 0, 1, 254, 170}";
}
);
layerId = "DEFEBCF2-9FF2-4B76-ADC8-AB6BD79F23E7";
width = 752;
},
{
background = {
anchors = (
{
name = ogonek;
position = "{483, 10}";
},
{
name = top;
position = "{373, 670}";
}
);
paths = (
{
closed = 1;
nodes = (
"489 672 LINE",
"489 278 LINE SMOOTH",
"489 209 OFFCURVE",
"453 161 OFFCURVE",
"373 160 CURVE SMOOTH",
"293 159 OFFCURVE",
"257 209 OFFCURVE",
"257 278 CURVE SMOOTH",
"257 672 LINE",
"70 672 LINE",
"70 265 LINE SMOOTH",
"70 90 OFFCURVE",
"206 -15 OFFCURVE",
"373 -15 CURVE SMOOTH",
"540 -15 OFFCURVE",
"676 90 OFFCURVE",
"676 265 CURVE SMOOTH",
"676 672 LINE"
);
},
{
closed = 1;
nodes = (
"389 870 LINE",
"289 720 LINE",
"411 720 LINE",
"543 870 LINE"
);
}
);
};
components = (
{
name = U;
},
{
name = acute;
transform = "{1, 0, 0, 1, 209, 160}";
}
);
layerId = "2D992F1A-8218-4049-8E15-5955C72037C9";
width = 746;
}
);
unicode = 00DA;
},
{
color = 4;
glyphname = Ucircumflex;
layers = (
{
background = {
anchors = (
{
name = ogonek;
position = "{469, 10}";
},
{
name = top;
position = "{376, 670}";
}
);
paths = (
{
closed = 1;
nodes = (
"562 672 LINE",
"562 268 LINE SMOOTH",
"562 132 OFFCURVE",
"476 80 OFFCURVE",
"376 79 CURVE SMOOTH",
"276 78 OFFCURVE",
"190 132 OFFCURVE",
"190 268 CURVE SMOOTH",
"190 672 LINE",
"100 672 LINE",
"100 265 LINE SMOOTH",
"100 90 OFFCURVE",
"219 -13 OFFCURVE",
"376 -13 CURVE SMOOTH",
"533 -13 OFFCURVE",
"652 90 OFFCURVE",
"652 265 CURVE SMOOTH",
"652 672 LINE"
);
},
{
closed = 1;
nodes = (
"354 890 LINE",
"214 751 LINE",
"296 751 LINE",
"376 829 LINE",
"456 751 LINE",
"538 751 LINE",
"398 890 LINE"
);
}
);
};
components = (
{
name = U;
},
{
name = circumflex;
transform = "{1, 0, 0, 1, 134, 170}";
}
);
layerId = "DEFEBCF2-9FF2-4B76-ADC8-AB6BD79F23E7";
width = 752;
},
{
background = {
anchors = (
{
name = ogonek;
position = "{483, 10}";
},
{
name = top;
position = "{373, 670}";
}
);
paths = (
{
closed = 1;
nodes = (
"489 672 LINE",
"489 278 LINE SMOOTH",
"489 209 OFFCURVE",
"453 161 OFFCURVE",
"373 160 CURVE SMOOTH",
"293 159 OFFCURVE",
"257 209 OFFCURVE",
"257 278 CURVE SMOOTH",
"257 672 LINE",
"70 672 LINE",
"70 265 LINE SMOOTH",
"70 90 OFFCURVE",
"206 -15 OFFCURVE",
"373 -15 CURVE SMOOTH",
"540 -15 OFFCURVE",
"676 90 OFFCURVE",
"676 265 CURVE SMOOTH",
"676 672 LINE"
);
},
{
closed = 1;
nodes = (
"321 870 LINE",
"201 720 LINE",
"333 720 LINE",
"373 779 LINE",
"413 720 LINE",
"545 720 LINE",
"425 870 LINE"
);
}
);
};
components = (
{
name = U;
},
{
name = circumflex;
transform = "{1, 0, 0, 1, 121, 160}";
}
);
layerId = "2D992F1A-8218-4049-8E15-5955C72037C9";
width = 746;
}
);
unicode = 00DB;
},
{
color = 4;
glyphname = Udieresis;
layers = (
{
background = {
anchors = (
{
name = ogonek;
position = "{469, 10}";
},
{
name = top;
position = "{376, 670}";
}
);
paths = (
{
closed = 1;
nodes = (
"562 672 LINE",
"562 268 LINE SMOOTH",
"562 132 OFFCURVE",
"476 80 OFFCURVE",
"376 79 CURVE SMOOTH",
"276 78 OFFCURVE",
"190 132 OFFCURVE",
"190 268 CURVE SMOOTH",
"190 672 LINE",
"100 672 LINE",
"100 265 LINE SMOOTH",
"100 90 OFFCURVE",
"219 -13 OFFCURVE",
"376 -13 CURVE SMOOTH",
"533 -13 OFFCURVE",
"652 90 OFFCURVE",
"652 265 CURVE SMOOTH",
"652 672 LINE"
);
},
{
closed = 1;
nodes = (
"446 889 OFFCURVE",
"418 861 OFFCURVE",
"418 826 CURVE SMOOTH",
"418 792 OFFCURVE",
"446 763 OFFCURVE",
"481 763 CURVE",
"515 763 OFFCURVE",
"544 792 OFFCURVE",
"544 826 CURVE SMOOTH",
"544 861 OFFCURVE",
"515 889 OFFCURVE",
"481 889 CURVE SMOOTH"
);
},
{
closed = 1;
nodes = (
"236 889 OFFCURVE",
"208 861 OFFCURVE",
"208 826 CURVE SMOOTH",
"208 792 OFFCURVE",
"236 763 OFFCURVE",
"271 763 CURVE",
"305 763 OFFCURVE",
"334 792 OFFCURVE",
"334 826 CURVE SMOOTH",
"334 861 OFFCURVE",
"305 889 OFFCURVE",
"271 889 CURVE SMOOTH"
);
}
);
};
components = (
{
name = U;
},
{
name = dieresis;
transform = "{1, 0, 0, 1, 128, 170}";
}
);
layerId = "DEFEBCF2-9FF2-4B76-ADC8-AB6BD79F23E7";
width = 752;
},
{
background = {
anchors = (
{
name = ogonek;
position = "{483, 10}";
},
{
name = top;
position = "{373, 670}";
}
);
paths = (
{
closed = 1;
nodes = (
"489 672 LINE",
"489 278 LINE SMOOTH",
"489 209 OFFCURVE",
"453 161 OFFCURVE",
"373 160 CURVE SMOOTH",
"293 159 OFFCURVE",
"257 209 OFFCURVE",
"257 278 CURVE SMOOTH",
"257 672 LINE",
"70 672 LINE",
"70 265 LINE SMOOTH",
"70 90 OFFCURVE",
"206 -15 OFFCURVE",
"373 -15 CURVE SMOOTH",
"540 -15 OFFCURVE",
"676 90 OFFCURVE",
"676 265 CURVE SMOOTH",
"676 672 LINE"
);
},
{
closed = 1;
nodes = (
"436 885 OFFCURVE",
"402 851 OFFCURVE",
"402 809 CURVE SMOOTH",
"402 768 OFFCURVE",
"436 733 OFFCURVE",
"478 733 CURVE",
"519 733 OFFCURVE",
"554 768 OFFCURVE",
"554 809 CURVE SMOOTH",
"554 851 OFFCURVE",
"519 885 OFFCURVE",
"478 885 CURVE SMOOTH"
);
},
{
closed = 1;
nodes = (
"226 885 OFFCURVE",
"192 851 OFFCURVE",
"192 809 CURVE SMOOTH",
"192 768 OFFCURVE",
"226 733 OFFCURVE",
"268 733 CURVE",
"309 733 OFFCURVE",
"344 768 OFFCURVE",
"344 809 CURVE SMOOTH",
"344 851 OFFCURVE",
"309 885 OFFCURVE",
"268 885 CURVE SMOOTH"
);
}
);
};
components = (
{
name = U;
},
{
name = dieresis;
transform = "{1, 0, 0, 1, 106, 160}";
}
);
layerId = "2D992F1A-8218-4049-8E15-5955C72037C9";
width = 746;
}
);
unicode = 00DC;
},
{
color = 4;
glyphname = Ugrave;
layers = (
{
background = {
anchors = (
{
name = ogonek;
position = "{469, 10}";
},
{
name = top;
position = "{376, 670}";
}
);
paths = (
{
closed = 1;
nodes = (
"562 672 LINE",
"562 268 LINE SMOOTH",
"562 132 OFFCURVE",
"476 80 OFFCURVE",
"376 79 CURVE SMOOTH",
"276 78 OFFCURVE",
"190 132 OFFCURVE",
"190 268 CURVE SMOOTH",
"190 672 LINE",
"100 672 LINE",
"100 265 LINE SMOOTH",
"100 90 OFFCURVE",
"219 -13 OFFCURVE",
"376 -13 CURVE SMOOTH",
"533 -13 OFFCURVE",
"652 90 OFFCURVE",
"652 265 CURVE SMOOTH",
"652 672 LINE"
);
},
{
closed = 1;
nodes = (
"339 755 LINE",
"421 755 LINE",
"311 890 LINE",
"197 890 LINE"
);
}
);
};
components = (
{
name = U;
},
{
name = grave;
transform = "{1, 0, 0, 1, 178, 170}";
}
);
layerId = "DEFEBCF2-9FF2-4B76-ADC8-AB6BD79F23E7";
width = 752;
},
{
background = {
anchors = (
{
name = ogonek;
position = "{483, 10}";
},
{
name = top;
position = "{373, 670}";
}
);
paths = (
{
closed = 1;
nodes = (
"489 672 LINE",
"489 278 LINE SMOOTH",
"489 209 OFFCURVE",
"453 161 OFFCURVE",
"373 160 CURVE SMOOTH",
"293 159 OFFCURVE",
"257 209 OFFCURVE",
"257 278 CURVE SMOOTH",
"257 672 LINE",
"70 672 LINE",
"70 265 LINE SMOOTH",
"70 90 OFFCURVE",
"206 -15 OFFCURVE",
"373 -15 CURVE SMOOTH",
"540 -15 OFFCURVE",
"676 90 OFFCURVE",
"676 265 CURVE SMOOTH",
"676 672 LINE"
);
},
{
closed = 1;
nodes = (
"183 870 LINE",
"315 720 LINE",
"437 720 LINE",
"337 870 LINE"
);
}
);
};
components = (
{
name = U;
},
{
name = grave;
transform = "{1, 0, 0, 1, 103, 160}";
}
);
layerId = "2D992F1A-8218-4049-8E15-5955C72037C9";
width = 746;
}
);
unicode = 00D9;
},
{
color = 4;
glyphname = Uhungarumlaut;
layers = (
{
background = {
anchors = (
{
name = ogonek;
position = "{469, 10}";
},
{
name = top;
position = "{376, 670}";
}
);
paths = (
{
closed = 1;
nodes = (
"562 672 LINE",
"562 268 LINE SMOOTH",
"562 132 OFFCURVE",
"476 80 OFFCURVE",
"376 79 CURVE SMOOTH",
"276 78 OFFCURVE",
"190 132 OFFCURVE",
"190 268 CURVE SMOOTH",
"190 672 LINE",
"100 672 LINE",
"100 265 LINE SMOOTH",
"100 90 OFFCURVE",
"219 -13 OFFCURVE",
"376 -13 CURVE SMOOTH",
"533 -13 OFFCURVE",
"652 90 OFFCURVE",
"652 265 CURVE SMOOTH",
"652 672 LINE"
);
},
{
closed = 1;
nodes = (
"484 890 LINE",
"374 755 LINE",
"456 755 LINE",
"598 890 LINE"
);
},
{
closed = 1;
nodes = (
"333 890 LINE",
"223 755 LINE",
"305 755 LINE",
"447 890 LINE"
);
}
);
};
components = (
{
name = U;
},
{
name = hungarumlaut;
transform = "{1, 0, 0, 1, 173, 170}";
}
);
layerId = "DEFEBCF2-9FF2-4B76-ADC8-AB6BD79F23E7";
width = 752;
},
{
background = {
anchors = (
{
name = ogonek;
position = "{483, 10}";
},
{
name = top;
position = "{373, 670}";
}
);
paths = (
{
closed = 1;
nodes = (
"489 672 LINE",
"489 278 LINE SMOOTH",
"489 209 OFFCURVE",
"453 161 OFFCURVE",
"373 160 CURVE SMOOTH",
"293 159 OFFCURVE",
"257 209 OFFCURVE",
"257 278 CURVE SMOOTH",
"257 672 LINE",
"70 672 LINE",
"70 265 LINE SMOOTH",
"70 90 OFFCURVE",
"206 -15 OFFCURVE",
"373 -15 CURVE SMOOTH",
"540 -15 OFFCURVE",
"676 90 OFFCURVE",
"676 265 CURVE SMOOTH",
"676 672 LINE"
);
},
{
closed = 1;
nodes = (
"488 870 LINE",
"388 720 LINE",
"510 720 LINE",
"642 870 LINE"
);
},
{
closed = 1;
nodes = (
"284 870 LINE",
"184 720 LINE",
"306 720 LINE",
"438 870 LINE"
);
}
);
};
components = (
{
name = U;
},
{
name = hungarumlaut;
transform = "{1, 0, 0, 1, 114, 160}";
}
);
layerId = "2D992F1A-8218-4049-8E15-5955C72037C9";
width = 746;
}
);
unicode = 0170;
},
{
color = 4;
glyphname = Umacron;
layers = (
{
background = {
anchors = (
{
name = ogonek;
position = "{469, 10}";
},
{
name = top;
position = "{376, 670}";
}
);
paths = (
{
closed = 1;
nodes = (
"562 672 LINE",
"562 268 LINE SMOOTH",
"562 132 OFFCURVE",
"476 80 OFFCURVE",
"376 79 CURVE SMOOTH",
"276 78 OFFCURVE",
"190 132 OFFCURVE",
"190 268 CURVE SMOOTH",
"190 672 LINE",
"100 672 LINE",
"100 265 LINE SMOOTH",
"100 90 OFFCURVE",
"219 -13 OFFCURVE",
"376 -13 CURVE SMOOTH",
"533 -13 OFFCURVE",
"652 90 OFFCURVE",
"652 265 CURVE SMOOTH",
"652 672 LINE"
);
},
{
closed = 1;
nodes = (
"201 888 LINE",
"201 808 LINE",
"551 808 LINE",
"551 888 LINE"
);
}
);
};
components = (
{
name = U;
},
{
name = macron;
transform = "{1, 0, 0, 1, 111, 170}";
}
);
layerId = "DEFEBCF2-9FF2-4B76-ADC8-AB6BD79F23E7";
width = 752;
},
{
background = {
anchors = (
{
name = ogonek;
position = "{483, 10}";
},
{
name = top;
position = "{373, 670}";
}
);
paths = (
{
closed = 1;
nodes = (
"489 672 LINE",
"489 278 LINE SMOOTH",
"489 209 OFFCURVE",
"453 161 OFFCURVE",
"373 160 CURVE SMOOTH",
"293 159 OFFCURVE",
"257 209 OFFCURVE",
"257 278 CURVE SMOOTH",
"257 672 LINE",
"70 672 LINE",
"70 265 LINE SMOOTH",
"70 90 OFFCURVE",
"206 -15 OFFCURVE",
"373 -15 CURVE SMOOTH",
"540 -15 OFFCURVE",
"676 90 OFFCURVE",
"676 265 CURVE SMOOTH",
"676 672 LINE"
);
},
{
closed = 1;
nodes = (
"188 870 LINE",
"188 760 LINE",
"558 760 LINE",
"558 870 LINE"
);
}
);
};
components = (
{
name = U;
},
{
name = macron;
transform = "{1, 0, 0, 1, 88, 160}";
}
);
layerId = "2D992F1A-8218-4049-8E15-5955C72037C9";
width = 746;
}
);
unicode = 016A;
},
{
color = 4;
glyphname = Uogonek;
layers = (
{
background = {
anchors = (
{
name = ogonek;
position = "{469, 10}";
},
{
name = top;
position = "{376, 670}";
}
);
paths = (
{
closed = 1;
nodes = (
"562 672 LINE",
"562 268 LINE SMOOTH",
"562 132 OFFCURVE",
"476 80 OFFCURVE",
"376 79 CURVE SMOOTH",
"276 78 OFFCURVE",
"190 132 OFFCURVE",
"190 268 CURVE SMOOTH",
"190 672 LINE",
"100 672 LINE",
"100 265 LINE SMOOTH",
"100 90 OFFCURVE",
"219 -13 OFFCURVE",
"376 -13 CURVE SMOOTH",
"533 -13 OFFCURVE",
"652 90 OFFCURVE",
"652 265 CURVE SMOOTH",
"652 672 LINE"
);
},
{
closed = 1;
nodes = (
"347 -12 OFFCURVE",
"273 -56 OFFCURVE",
"273 -126 CURVE SMOOTH",
"273 -192 OFFCURVE",
"330 -225 OFFCURVE",
"390 -225 CURVE SMOOTH",
"426 -225 OFFCURVE",
"450 -207 OFFCURVE",
"464 -200 CURVE",
"464 -131 LINE",
"449 -141 OFFCURVE",
"433 -149 OFFCURVE",
"410 -149 CURVE SMOOTH",
"375 -149 OFFCURVE",
"357 -126 OFFCURVE",
"357 -98 CURVE SMOOTH",
"357 -54 OFFCURVE",
"417 -18 OFFCURVE",
"464 1 CURVE",
"384 1 LINE"
);
}
);
};
components = (
{
name = U;
},
{
name = ogonek;
transform = "{1, 0, 0, 1, 90, 0}";
}
);
layerId = "DEFEBCF2-9FF2-4B76-ADC8-AB6BD79F23E7";
width = 752;
},
{
background = {
anchors = (
{
name = ogonek;
position = "{483, 10}";
},
{
name = top;
position = "{373, 670}";
}
);
paths = (
{
closed = 1;
nodes = (
"489 672 LINE",
"489 278 LINE SMOOTH",
"489 209 OFFCURVE",
"453 161 OFFCURVE",
"373 160 CURVE SMOOTH",
"293 159 OFFCURVE",
"257 209 OFFCURVE",
"257 278 CURVE SMOOTH",
"257 672 LINE",
"70 672 LINE",
"70 265 LINE SMOOTH",
"70 90 OFFCURVE",
"206 -15 OFFCURVE",
"373 -15 CURVE SMOOTH",
"540 -15 OFFCURVE",
"676 90 OFFCURVE",
"676 265 CURVE SMOOTH",
"676 672 LINE"
);
},
{
closed = 1;
nodes = (
"286 -13 OFFCURVE",
"226 -56 OFFCURVE",
"226 -126 CURVE SMOOTH",
"226 -192 OFFCURVE",
"293 -225 OFFCURVE",
"353 -225 CURVE SMOOTH",
"409 -225 OFFCURVE",
"453 -210 OFFCURVE",
"467 -203 CURVE",
"467 -90 LINE",
"452 -100 OFFCURVE",
"436 -108 OFFCURVE",
"413 -108 CURVE SMOOTH",
"392 -108 OFFCURVE",
"377 -94 OFFCURVE",
"377 -73 CURVE SMOOTH",
"377 -51 OFFCURVE",
"424 -13 OFFCURVE",
"483 1 CURVE",
"343 1 LINE"
);
}
);
};
components = (
{
name = U;
},
{
name = ogonek;
transform = "{1, 0, 0, 1, 93, 0}";
}
);
layerId = "2D992F1A-8218-4049-8E15-5955C72037C9";
width = 746;
}
);
unicode = 0172;
},
{
color = 4;
glyphname = Uring;
layers = (
{
background = {
anchors = (
{
name = ogonek;
position = "{469, 10}";
},
{
name = top;
position = "{376, 670}";
}
);
paths = (
{
closed = 1;
nodes = (
"562 672 LINE",
"562 268 LINE SMOOTH",
"562 132 OFFCURVE",
"476 80 OFFCURVE",
"376 79 CURVE SMOOTH",
"276 78 OFFCURVE",
"190 132 OFFCURVE",
"190 268 CURVE SMOOTH",
"190 672 LINE",
"100 672 LINE",
"100 265 LINE SMOOTH",
"100 90 OFFCURVE",
"219 -13 OFFCURVE",
"376 -13 CURVE SMOOTH",
"533 -13 OFFCURVE",
"652 90 OFFCURVE",
"652 265 CURVE SMOOTH",
"652 672 LINE"
);
},
{
closed = 1;
nodes = (
"328 895 OFFCURVE",
"293 857 OFFCURVE",
"293 812 CURVE SMOOTH",
"293 767 OFFCURVE",
"328 729 OFFCURVE",
"376 729 CURVE SMOOTH",
"424 729 OFFCURVE",
"458 767 OFFCURVE",
"458 812 CURVE SMOOTH",
"458 857 OFFCURVE",
"424 895 OFFCURVE",
"376 895 CURVE SMOOTH"
);
},
{
closed = 1;
nodes = (
"398 854 OFFCURVE",
"416 834 OFFCURVE",
"416 812 CURVE SMOOTH",
"416 789 OFFCURVE",
"398 770 OFFCURVE",
"376 770 CURVE SMOOTH",
"353 770 OFFCURVE",
"335 789 OFFCURVE",
"335 812 CURVE SMOOTH",
"335 834 OFFCURVE",
"353 854 OFFCURVE",
"376 854 CURVE SMOOTH"
);
}
);
};
components = (
{
name = U;
},
{
name = ring;
transform = "{1, 0, 0, 1, 213, 170}";
}
);
layerId = "DEFEBCF2-9FF2-4B76-ADC8-AB6BD79F23E7";
width = 752;
},
{
background = {
anchors = (
{
name = ogonek;
position = "{483, 10}";
},
{
name = top;
position = "{373, 670}";
}
);
paths = (
{
closed = 1;
nodes = (
"489 672 LINE",
"489 278 LINE SMOOTH",
"489 209 OFFCURVE",
"453 161 OFFCURVE",
"373 160 CURVE SMOOTH",
"293 159 OFFCURVE",
"257 209 OFFCURVE",
"257 278 CURVE SMOOTH",
"257 672 LINE",
"70 672 LINE",
"70 265 LINE SMOOTH",
"70 90 OFFCURVE",
"206 -15 OFFCURVE",
"373 -15 CURVE SMOOTH",
"540 -15 OFFCURVE",
"676 90 OFFCURVE",
"676 265 CURVE SMOOTH",
"676 672 LINE"
);
},
{
closed = 1;
nodes = (
"320 893 OFFCURVE",
"276 853 OFFCURVE",
"276 802 CURVE SMOOTH",
"276 751 OFFCURVE",
"320 711 OFFCURVE",
"373 711 CURVE SMOOTH",
"426 711 OFFCURVE",
"469 751 OFFCURVE",
"469 802 CURVE SMOOTH",
"469 853 OFFCURVE",
"426 893 OFFCURVE",
"373 893 CURVE SMOOTH"
);
},
{
closed = 1;
nodes = (
"393 838 OFFCURVE",
"411 822 OFFCURVE",
"411 802 CURVE SMOOTH",
"411 781 OFFCURVE",
"393 766 OFFCURVE",
"373 766 CURVE SMOOTH",
"352 766 OFFCURVE",
"334 781 OFFCURVE",
"334 802 CURVE SMOOTH",
"334 822 OFFCURVE",
"352 838 OFFCURVE",
"373 838 CURVE SMOOTH"
);
}
);
};
components = (
{
name = U;
},
{
name = ring;
transform = "{1, 0, 0, 1, 202, 160}";
}
);
layerId = "2D992F1A-8218-4049-8E15-5955C72037C9";
width = 746;
}
);
unicode = 016E;
},
{
color = 4;
glyphname = V;
layers = (
{
background = {
paths = (
{
closed = 1;
nodes = (
"573 670 LINE",
"344 152 LINE",
"118 670 LINE",
"10 670 LINE",
"323 0 LINE",
"368 0 LINE",
"681 670 LINE"
);
}
);
};
layerId = "DEFEBCF2-9FF2-4B76-ADC8-AB6BD79F23E7";
paths = (
{
closed = 1;
nodes = (
"368 0 LINE",
"681 670 LINE",
"573 670 LINE",
"344 152 LINE",
"118 670 LINE",
"10 670 LINE",
"323 0 LINE"
);
}
);
width = 691;
},
{
background = {
paths = (
{
closed = 1;
nodes = (
"501 670 LINE",
"367 302 LINE",
"233 670 LINE",
"15 670 LINE",
"320 -5 LINE",
"414 -5 LINE",
"719 670 LINE"
);
}
);
};
layerId = "2D992F1A-8218-4049-8E15-5955C72037C9";
paths = (
{
closed = 1;
nodes = (
"414 -5 LINE",
"719 670 LINE",
"501 670 LINE",
"367 302 LINE",
"233 670 LINE",
"15 670 LINE",
"320 -5 LINE"
);
}
);
width = 734;
}
);
unicode = 0056;
},
{
color = 4;
glyphname = W;
layers = (
{
anchors = (
{
name = top;
position = "{472, 670}";
}
);
background = {
anchors = (
{
name = top;
position = "{472, 670}";
}
);
paths = (
{
closed = 1;
nodes = (
"836 670 LINE",
"672 172 LINE",
"500 669 LINE",
"442 670 LINE",
"265 172 LINE",
"108 670 LINE",
"10 670 LINE",
"235 0 LINE",
"286 0 LINE",
"468 507 LINE",
"648 0 LINE",
"699 0 LINE",
"934 670 LINE"
);
}
);
};
layerId = "DEFEBCF2-9FF2-4B76-ADC8-AB6BD79F23E7";
leftMetricsKey = "=V";
rightMetricsKey = "=V";
paths = (
{
closed = 1;
nodes = (
"286 0 LINE",
"468 507 LINE",
"648 0 LINE",
"699 0 LINE",
"934 670 LINE",
"836 670 LINE",
"672 172 LINE",
"500 669 LINE",
"442 670 LINE",
"265 172 LINE",
"108 670 LINE",
"10 670 LINE",
"235 0 LINE"
);
}
);
width = 944;
},
{
anchors = (
{
name = top;
position = "{492, 670}";
}
);
background = {
anchors = (
{
name = top;
position = "{492, 670}";
}
);
paths = (
{
closed = 1;
nodes = (
"751 670 LINE",
"662 322 LINE",
"556 670 LINE",
"428 670 LINE",
"324 322 LINE",
"233 670 LINE",
"15 670 LINE",
"235 0 LINE",
"376 0 LINE",
"493 355 LINE",
"610 0 LINE",
"751 0 LINE",
"969 670 LINE"
);
}
);
};
layerId = "2D992F1A-8218-4049-8E15-5955C72037C9";
paths = (
{
closed = 1;
nodes = (
"376 0 LINE",
"493 355 LINE",
"610 0 LINE",
"751 0 LINE",
"969 670 LINE",
"751 670 LINE",
"662 322 LINE",
"556 670 LINE",
"428 670 LINE",
"324 322 LINE",
"233 670 LINE",
"15 670 LINE",
"235 0 LINE"
);
}
);
width = 984;
}
);
leftMetricsKey = "=V";
rightMetricsKey = "=V";
unicode = 0057;
},
{
color = 4;
glyphname = Wacute;
layers = (
{
background = {
anchors = (
{
name = top;
position = "{472, 670}";
}
);
paths = (
{
closed = 1;
nodes = (
"836 670 LINE",
"672 172 LINE",
"500 669 LINE",
"442 670 LINE",
"265 172 LINE",
"108 670 LINE",
"10 670 LINE",
"235 0 LINE",
"286 0 LINE",
"468 507 LINE",
"648 0 LINE",
"699 0 LINE",
"934 670 LINE"
);
},
{
closed = 1;
nodes = (
"530 890 LINE",
"420 755 LINE",
"502 755 LINE",
"644 890 LINE"
);
}
);
};
components = (
{
name = W;
},
{
name = acute;
transform = "{1, 0, 0, 1, 350, 170}";
}
);
layerId = "DEFEBCF2-9FF2-4B76-ADC8-AB6BD79F23E7";
width = 944;
},
{
background = {
anchors = (
{
name = top;
position = "{492, 670}";
}
);
paths = (
{
closed = 1;
nodes = (
"751 670 LINE",
"662 322 LINE",
"556 670 LINE",
"428 670 LINE",
"324 322 LINE",
"233 670 LINE",
"15 670 LINE",
"235 0 LINE",
"376 0 LINE",
"493 355 LINE",
"610 0 LINE",
"751 0 LINE",
"969 670 LINE"
);
},
{
closed = 1;
nodes = (
"508 870 LINE",
"408 720 LINE",
"530 720 LINE",
"662 870 LINE"
);
}
);
};
components = (
{
name = W;
},
{
name = acute;
transform = "{1, 0, 0, 1, 328, 160}";
}
);
layerId = "2D992F1A-8218-4049-8E15-5955C72037C9";
width = 984;
}
);
unicode = 1E82;
},
{
color = 4;
glyphname = Wcircumflex;
layers = (
{
background = {
anchors = (
{
name = top;
position = "{472, 670}";
}
);
paths = (
{
closed = 1;
nodes = (
"836 670 LINE",
"672 172 LINE",
"500 669 LINE",
"442 670 LINE",
"265 172 LINE",
"108 670 LINE",
"10 670 LINE",
"235 0 LINE",
"286 0 LINE",
"468 507 LINE",
"648 0 LINE",
"699 0 LINE",
"934 670 LINE"
);
},
{
closed = 1;
nodes = (
"450 890 LINE",
"310 751 LINE",
"392 751 LINE",
"472 829 LINE",
"552 751 LINE",
"634 751 LINE",
"494 890 LINE"
);
}
);
};
components = (
{
name = W;
},
{
name = circumflex;
transform = "{1, 0, 0, 1, 230, 170}";
}
);
layerId = "DEFEBCF2-9FF2-4B76-ADC8-AB6BD79F23E7";
width = 944;
},
{
background = {
anchors = (
{
name = top;
position = "{492, 670}";
}
);
paths = (
{
closed = 1;
nodes = (
"751 670 LINE",
"662 322 LINE",
"556 670 LINE",
"428 670 LINE",
"324 322 LINE",
"233 670 LINE",
"15 670 LINE",
"235 0 LINE",
"376 0 LINE",
"493 355 LINE",
"610 0 LINE",
"751 0 LINE",
"969 670 LINE"
);
},
{
closed = 1;
nodes = (
"440 870 LINE",
"320 720 LINE",
"452 720 LINE",
"492 779 LINE",
"532 720 LINE",
"664 720 LINE",
"544 870 LINE"
);
}
);
};
components = (
{
name = W;
},
{
name = circumflex;
transform = "{1, 0, 0, 1, 240, 160}";
}
);
layerId = "2D992F1A-8218-4049-8E15-5955C72037C9";
width = 984;
}
);
unicode = 0174;
},
{
color = 4;
glyphname = Wdieresis;
layers = (
{
background = {
anchors = (
{
name = top;
position = "{472, 670}";
}
);
paths = (
{
closed = 1;
nodes = (
"836 670 LINE",
"672 172 LINE",
"500 669 LINE",
"442 670 LINE",
"265 172 LINE",
"108 670 LINE",
"10 670 LINE",
"235 0 LINE",
"286 0 LINE",
"468 507 LINE",
"648 0 LINE",
"699 0 LINE",
"934 670 LINE"
);
},
{
closed = 1;
nodes = (
"542 889 OFFCURVE",
"514 861 OFFCURVE",
"514 826 CURVE SMOOTH",
"514 792 OFFCURVE",
"542 763 OFFCURVE",
"577 763 CURVE",
"611 763 OFFCURVE",
"640 792 OFFCURVE",
"640 826 CURVE SMOOTH",
"640 861 OFFCURVE",
"611 889 OFFCURVE",
"577 889 CURVE SMOOTH"
);
},
{
closed = 1;
nodes = (
"332 889 OFFCURVE",
"304 861 OFFCURVE",
"304 826 CURVE SMOOTH",
"304 792 OFFCURVE",
"332 763 OFFCURVE",
"367 763 CURVE",
"401 763 OFFCURVE",
"430 792 OFFCURVE",
"430 826 CURVE SMOOTH",
"430 861 OFFCURVE",
"401 889 OFFCURVE",
"367 889 CURVE SMOOTH"
);
}
);
};
components = (
{
name = W;
},
{
name = dieresis;
transform = "{1, 0, 0, 1, 224, 170}";
}
);
layerId = "DEFEBCF2-9FF2-4B76-ADC8-AB6BD79F23E7";
width = 944;
},
{
background = {
anchors = (
{
name = top;
position = "{492, 670}";
}
);
paths = (
{
closed = 1;
nodes = (
"751 670 LINE",
"662 322 LINE",
"556 670 LINE",
"428 670 LINE",
"324 322 LINE",
"233 670 LINE",
"15 670 LINE",
"235 0 LINE",
"376 0 LINE",
"493 355 LINE",
"610 0 LINE",
"751 0 LINE",
"969 670 LINE"
);
},
{
closed = 1;
nodes = (
"555 885 OFFCURVE",
"521 851 OFFCURVE",
"521 809 CURVE SMOOTH",
"521 768 OFFCURVE",
"555 733 OFFCURVE",
"597 733 CURVE",
"638 733 OFFCURVE",
"673 768 OFFCURVE",
"673 809 CURVE SMOOTH",
"673 851 OFFCURVE",
"638 885 OFFCURVE",
"597 885 CURVE SMOOTH"
);
},
{
closed = 1;
nodes = (
"345 885 OFFCURVE",
"311 851 OFFCURVE",
"311 809 CURVE SMOOTH",
"311 768 OFFCURVE",
"345 733 OFFCURVE",
"387 733 CURVE",
"428 733 OFFCURVE",
"463 768 OFFCURVE",
"463 809 CURVE SMOOTH",
"463 851 OFFCURVE",
"428 885 OFFCURVE",
"387 885 CURVE SMOOTH"
);
}
);
};
components = (
{
name = W;
},
{
name = dieresis;
transform = "{1, 0, 0, 1, 225, 160}";
}
);
layerId = "2D992F1A-8218-4049-8E15-5955C72037C9";
width = 984;
}
);
unicode = 1E84;
},
{
color = 4;
glyphname = Wgrave;
layers = (
{
background = {
anchors = (
{
name = top;
position = "{472, 670}";
}
);
paths = (
{
closed = 1;
nodes = (
"836 670 LINE",
"672 172 LINE",
"500 669 LINE",
"442 670 LINE",
"265 172 LINE",
"108 670 LINE",
"10 670 LINE",
"235 0 LINE",
"286 0 LINE",
"468 507 LINE",
"648 0 LINE",
"699 0 LINE",
"934 670 LINE"
);
},
{
closed = 1;
nodes = (
"435 755 LINE",
"517 755 LINE",
"407 890 LINE",
"293 890 LINE"
);
}
);
};
components = (
{
name = W;
},
{
name = grave;
transform = "{1, 0, 0, 1, 274, 170}";
}
);
layerId = "DEFEBCF2-9FF2-4B76-ADC8-AB6BD79F23E7";
width = 944;
},
{
background = {
anchors = (
{
name = top;
position = "{492, 670}";
}
);
paths = (
{
closed = 1;
nodes = (
"751 670 LINE",
"662 322 LINE",
"556 670 LINE",
"428 670 LINE",
"324 322 LINE",
"233 670 LINE",
"15 670 LINE",
"235 0 LINE",
"376 0 LINE",
"493 355 LINE",
"610 0 LINE",
"751 0 LINE",
"969 670 LINE"
);
},
{
closed = 1;
nodes = (
"302 870 LINE",
"434 720 LINE",
"556 720 LINE",
"456 870 LINE"
);
}
);
};
components = (
{
name = W;
},
{
name = grave;
transform = "{1, 0, 0, 1, 222, 160}";
}
);
layerId = "2D992F1A-8218-4049-8E15-5955C72037C9";
width = 984;
}
);
unicode = 1E80;
},
{
color = 4;
glyphname = X;
layers = (
{
background = {
paths = (
{
closed = 1;
nodes = (
"514 670 LINE",
"320 397 LINE",
"130 670 LINE",
"10 670 LINE",
"261 335 LINE",
"10 0 LINE",
"120 0 LINE",
"312 262 LINE",
"514 0 LINE",
"634 0 LINE",
"371 325 LINE",
"634 670 LINE"
);
}
);
};
layerId = "DEFEBCF2-9FF2-4B76-ADC8-AB6BD79F23E7";
leftMetricsKey = "=V";
rightMetricsKey = "=V";
paths = (
{
closed = 1;
nodes = (
"120 0 LINE",
"312 262 LINE",
"514 0 LINE",
"634 0 LINE",
"371 325 LINE",
"634 670 LINE",
"514 670 LINE",
"320 397 LINE",
"130 670 LINE",
"10 670 LINE",
"261 335 LINE",
"10 0 LINE"
);
}
);
width = 644;
},
{
background = {
paths = (
{
closed = 1;
nodes = (
"491 670 LINE",
"378 467 LINE",
"245 670 LINE",
"15 670 LINE",
"250 331 LINE",
"15 0 LINE",
"245 0 LINE",
"368 200 LINE",
"491 0 LINE",
"721 0 LINE",
"496 346 LINE",
"721 670 LINE"
);
}
);
};
layerId = "2D992F1A-8218-4049-8E15-5955C72037C9";
paths = (
{
closed = 1;
nodes = (
"245 0 LINE",
"368 200 LINE",
"491 0 LINE",
"721 0 LINE",
"496 346 LINE",
"721 670 LINE",
"491 670 LINE",
"378 467 LINE",
"245 670 LINE",
"15 670 LINE",
"250 331 LINE",
"15 0 LINE"
);
}
);
width = 736;
}
);
leftMetricsKey = "=V";
rightMetricsKey = "=V";
unicode = 0058;
},
{
color = 4;
glyphname = Y;
layers = (
{
anchors = (
{
name = top;
position = "{316, 670}";
}
);
background = {
anchors = (
{
name = top;
position = "{316, 670}";
}
);
paths = (
{
closed = 1;
nodes = (
"513 670 LINE",
"314 354 LINE",
"118 670 LINE",
"10 670 LINE",
"295 217 LINE",
"326 217 LINE",
"621 670 LINE"
);
},
{
closed = 1;
nodes = (
"267 304 LINE",
"267 0 LINE",
"364 0 LINE",
"364 304 LINE"
);
}
);
};
layerId = "DEFEBCF2-9FF2-4B76-ADC8-AB6BD79F23E7";
leftMetricsKey = "=V";
rightMetricsKey = "=V";
paths = (
{
closed = 1;
nodes = (
"326 217 LINE",
"621 670 LINE",
"513 670 LINE",
"314 354 LINE",
"118 670 LINE",
"10 670 LINE",
"295 217 LINE"
);
},
{
closed = 1;
nodes = (
"364 0 LINE",
"364 304 LINE",
"267 304 LINE",
"267 0 LINE"
);
}
);
width = 631;
},
{
anchors = (
{
name = top;
position = "{371, 670}";
}
);
background = {
anchors = (
{
name = top;
position = "{371, 670}";
}
);
paths = (
{
closed = 1;
nodes = (
"508 670 LINE",
"371 409 LINE",
"233 670 LINE",
"15 670 LINE",
"315 167 LINE",
"426 167 LINE",
"726 670 LINE"
);
},
{
closed = 1;
nodes = (
"277 254 LINE",
"277 0 LINE",
"464 0 LINE",
"464 254 LINE"
);
}
);
};
layerId = "2D992F1A-8218-4049-8E15-5955C72037C9";
paths = (
{
closed = 1;
nodes = (
"426 167 LINE",
"726 670 LINE",
"508 670 LINE",
"371 409 LINE",
"233 670 LINE",
"15 670 LINE",
"315 167 LINE"
);
},
{
closed = 1;
nodes = (
"464 0 LINE",
"464 254 LINE",
"277 254 LINE",
"277 0 LINE"
);
}
);
width = 741;
}
);
leftMetricsKey = "=V";
rightMetricsKey = "=V";
unicode = 0059;
},
{
color = 4;
glyphname = Yacute;
layers = (
{
background = {
anchors = (
{
name = top;
position = "{316, 670}";
}
);
paths = (
{
closed = 1;
nodes = (
"513 670 LINE",
"314 354 LINE",
"118 670 LINE",
"10 670 LINE",
"295 217 LINE",
"326 217 LINE",
"621 670 LINE"
);
},
{
closed = 1;
nodes = (
"267 304 LINE",
"267 0 LINE",
"364 0 LINE",
"364 304 LINE"
);
},
{
closed = 1;
nodes = (
"374 890 LINE",
"264 755 LINE",
"346 755 LINE",
"488 890 LINE"
);
}
);
};
components = (
{
name = Y;
},
{
name = acute;
transform = "{1, 0, 0, 1, 194, 170}";
}
);
layerId = "DEFEBCF2-9FF2-4B76-ADC8-AB6BD79F23E7";
width = 631;
},
{
background = {
anchors = (
{
name = top;
position = "{371, 670}";
}
);
paths = (
{
closed = 1;
nodes = (
"508 670 LINE",
"371 409 LINE",
"233 670 LINE",
"15 670 LINE",
"315 167 LINE",
"426 167 LINE",
"726 670 LINE"
);
},
{
closed = 1;
nodes = (
"277 254 LINE",
"277 0 LINE",
"464 0 LINE",
"464 254 LINE"
);
},
{
closed = 1;
nodes = (
"387 870 LINE",
"287 720 LINE",
"409 720 LINE",
"541 870 LINE"
);
}
);
};
components = (
{
name = Y;
},
{
name = acute;
transform = "{1, 0, 0, 1, 207, 160}";
}
);
layerId = "2D992F1A-8218-4049-8E15-5955C72037C9";
width = 741;
}
);
unicode = 00DD;
},
{
color = 4;
glyphname = Ycircumflex;
layers = (
{
background = {
anchors = (
{
name = top;
position = "{316, 670}";
}
);
paths = (
{
closed = 1;
nodes = (
"513 670 LINE",
"314 354 LINE",
"118 670 LINE",
"10 670 LINE",
"295 217 LINE",
"326 217 LINE",
"621 670 LINE"
);
},
{
closed = 1;
nodes = (
"267 304 LINE",
"267 0 LINE",
"364 0 LINE",
"364 304 LINE"
);
},
{
closed = 1;
nodes = (
"294 890 LINE",
"154 751 LINE",
"236 751 LINE",
"316 829 LINE",
"396 751 LINE",
"478 751 LINE",
"338 890 LINE"
);
}
);
};
components = (
{
name = Y;
},
{
name = circumflex;
transform = "{1, 0, 0, 1, 74, 170}";
}
);
layerId = "DEFEBCF2-9FF2-4B76-ADC8-AB6BD79F23E7";
width = 631;
},
{
background = {
anchors = (
{
name = top;
position = "{371, 670}";
}
);
paths = (
{
closed = 1;
nodes = (
"508 670 LINE",
"371 409 LINE",
"233 670 LINE",
"15 670 LINE",
"315 167 LINE",
"426 167 LINE",
"726 670 LINE"
);
},
{
closed = 1;
nodes = (
"277 254 LINE",
"277 0 LINE",
"464 0 LINE",
"464 254 LINE"
);
},
{
closed = 1;
nodes = (
"319 870 LINE",
"199 720 LINE",
"331 720 LINE",
"371 779 LINE",
"411 720 LINE",
"543 720 LINE",
"423 870 LINE"
);
}
);
};
components = (
{
name = Y;
},
{
name = circumflex;
transform = "{1, 0, 0, 1, 119, 160}";
}
);
layerId = "2D992F1A-8218-4049-8E15-5955C72037C9";
width = 741;
}
);
unicode = 0176;
},
